<?xml version="1.0" encoding="UTF-8" standalone="no"?>
<!DOCTYPE svg PUBLIC "-//W3C//DTD SVG 1.1//EN" "http://www.w3.org/Graphics/SVG/1.1/DTD/svg11.dtd">
<svg xmlns:xlink="http://www.w3.org/1999/xlink" version="1.1" xmlns="http://www.w3.org/2000/svg"  width="1123" height="1280" viewBox="0 0 281 320">
<rect x="0.0" y="0.0" width="281.0" height="320.0" id="0" fill="rgb(109,109,108)" fill-opacity="1.0" />
<circle cx="145.0" cy="127.0" r="97.0" id="1" fill="rgb(0,0,0)" fill-opacity="0.5019607843137255"/>
<circle cx="158.0" cy="77.0" r="36.0" id="2" fill="rgb(209,200,184)" fill-opacity="0.5019607843137255"/>
<circle cx="43.0" cy="248.0" r="74.0" id="3" fill="rgb(226,223,221)" fill-opacity="0.5019607843137255"/>
<circle cx="251.0" cy="206.0" r="48.0" id="4" fill="rgb(232,231,232)" fill-opacity="0.5019607843137255"/>
<circle cx="224.0" cy="101.0" r="39.0" id="5" fill="rgb(0,0,0)" fill-opacity="0.5019607843137255"/>
<circle cx="50.0" cy="35.0" r="55.0" id="6" fill="rgb(47,45,22)" fill-opacity="0.5019607843137255"/>
<circle cx="0.0" cy="143.0" r="51.0" id="7" fill="rgb(217,208,203)" fill-opacity="0.5019607843137255"/>
<circle cx="224.0" cy="276.0" r="66.0" id="8" fill="rgb(197,197,196)" fill-opacity="0.5019607843137255"/>
<circle cx="159.0" cy="180.0" r="53.0" id="9" fill="rgb(0,0,0)" fill-opacity="0.5019607843137255"/>
<circle cx="278.0" cy="131.0" r="29.0" id="10" fill="rgb(215,210,201)" fill-opacity="0.5019607843137255"/>
<circle cx="214.0" cy="7.0" r="56.0" id="11" fill="rgb(179,175,162)" fill-opacity="0.5019607843137255"/>
<circle cx="76.0" cy="96.0" r="30.0" id="12" fill="rgb(0,0,0)" fill-opacity="0.5019607843137255"/>
<circle cx="125.0" cy="313.0" r="31.0" id="13" fill="rgb(191,195,201)" fill-opacity="0.5019607843137255"/>
<circle cx="134.0" cy="52.0" r="47.0" id="14" fill="rgb(122,124,98)" fill-opacity="0.5019607843137255"/>
<circle cx="99.0" cy="158.0" r="36.0" id="15" fill="rgb(0,0,1)" fill-opacity="0.5019607843137255"/>
<circle cx="134.0" cy="250.0" r="20.0" id="16" fill="rgb(208,203,197)" fill-opacity="0.5019607843137255"/>
<circle cx="205.0" cy="144.0" r="30.0" id="17" fill="rgb(0,0,3)" fill-opacity="0.5019607843137255"/>
<circle cx="100.0" cy="261.0" r="20.0" id="18" fill="rgb(93,86,84)" fill-opacity="0.5019607843137255"/>
<circle cx="63.0" cy="59.0" r="20.0" id="19" fill="rgb(0,0,0)" fill-opacity="0.5019607843137255"/>
<circle cx="255.0" cy="162.0" r="24.0" id="20" fill="rgb(178,177,175)" fill-opacity="0.5019607843137255"/>
<circle cx="280.0" cy="45.0" r="36.0" id="21" fill="rgb(183,180,166)" fill-opacity="0.5019607843137255"/>
<circle cx="72.0" cy="149.0" r="25.0" id="22" fill="rgb(0,0,18)" fill-opacity="0.5019607843137255"/>
<circle cx="231.0" cy="87.0" r="28.0" id="23" fill="rgb(0,0,17)" fill-opacity="0.5019607843137255"/>
<circle cx="21.0" cy="82.0" r="27.0" id="24" fill="rgb(136,124,113)" fill-opacity="0.5019607843137255"/>
<circle cx="164.0" cy="77.0" r="32.0" id="25" fill="rgb(148,141,136)" fill-opacity="0.5019607843137255"/>
<circle cx="189.0" cy="245.0" r="27.0" id="26" fill="rgb(187,184,175)" fill-opacity="0.5019607843137255"/>
<circle cx="151.0" cy="47.0" r="31.0" id="27" fill="rgb(91,88,73)" fill-opacity="0.5019607843137255"/>
<circle cx="154.0" cy="221.0" r="15.0" id="28" fill="rgb(0,0,0)" fill-opacity="0.5019607843137255"/>
<circle cx="166.0" cy="139.0" r="32.0" id="29" fill="rgb(0,8,31)" fill-opacity="0.5019607843137255"/>
<circle cx="280.0" cy="92.0" r="23.0" id="30" fill="rgb(197,191,185)" fill-opacity="0.5019607843137255"/>
<circle cx="120.0" cy="220.0" r="10.0" id="31" fill="rgb(0,0,0)" fill-opacity="0.5019607843137255"/>
<circle cx="159.0" cy="86.0" r="23.0" id="32" fill="rgb(185,179,169)" fill-opacity="0.5019607843137255"/>
<circle cx="126.0" cy="83.0" r="16.0" id="33" fill="rgb(179,175,164)" fill-opacity="0.5019607843137255"/>
<circle cx="179.0" cy="206.0" r="19.0" id="34" fill="rgb(0,0,0)" fill-opacity="0.5019607843137255"/>
<circle cx="73.0" cy="314.0" r="31.0" id="35" fill="rgb(152,158,163)" fill-opacity="0.5019607843137255"/>
<circle cx="45.0" cy="198.0" r="30.0" id="36" fill="rgb(190,188,181)" fill-opacity="0.5019607843137255"/>
<circle cx="98.0" cy="0.0" r="40.0" id="37" fill="rgb(84,119,48)" fill-opacity="0.5019607843137255"/>
<circle cx="155.0" cy="278.0" r="18.0" id="38" fill="rgb(99,96,97)" fill-opacity="0.5019607843137255"/>
<circle cx="153.0" cy="314.0" r="24.0" id="39" fill="rgb(172,175,179)" fill-opacity="0.5019607843137255"/>
<circle cx="16.0" cy="47.0" r="34.0" id="40" fill="rgb(122,90,92)" fill-opacity="0.5019607843137255"/>
<circle cx="133.0" cy="131.0" r="27.0" id="41" fill="rgb(15,23,43)" fill-opacity="0.5019607843137255"/>
<circle cx="131.0" cy="59.0" r="18.0" id="42" fill="rgb(56,50,50)" fill-opacity="0.5019607843137255"/>
<circle cx="221.0" cy="117.0" r="34.0" id="43" fill="rgb(0,4,23)" fill-opacity="0.5019607843137255"/>
<circle cx="69.0" cy="78.0" r="24.0" id="44" fill="rgb(0,0,18)" fill-opacity="0.5019607843137255"/>
<circle cx="132.0" cy="189.0" r="34.0" id="45" fill="rgb(0,0,10)" fill-opacity="0.5019607843137255"/>
<circle cx="143.0" cy="20.0" r="24.0" id="46" fill="rgb(135,143,113)" fill-opacity="0.5019607843137255"/>
<circle cx="1.0" cy="319.0" r="16.0" id="47" fill="rgb(216,221,223)" fill-opacity="0.5019607843137255"/>
<circle cx="89.0" cy="203.0" r="10.0" id="48" fill="rgb(232,237,238)" fill-opacity="0.5019607843137255"/>
<circle cx="93.0" cy="245.0" r="16.0" id="49" fill="rgb(191,185,186)" fill-opacity="0.5019607843137255"/>
<circle cx="86.0" cy="116.0" r="35.0" id="50" fill="rgb(0,12,31)" fill-opacity="0.5019607843137255"/>
</svg>