<?xml version="1.0" encoding="UTF-8" standalone="no"?>
<!DOCTYPE svg PUBLIC "-//W3C//DTD SVG 1.1//EN" "http://www.w3.org/Graphics/SVG/1.1/DTD/svg11.dtd">
<svg xmlns:xlink="http://www.w3.org/1999/xlink" version="1.1" xmlns="http://www.w3.org/2000/svg"  width="1123" height="1280" viewBox="0 0 281 320">
<rect x="0.0" y="0.0" width="281.0" height="320.0" id="0" fill="rgb(109,109,108)" fill-opacity="1.0" />
<circle cx="145.0" cy="125.0" r="98.0" id="1" fill="rgb(0,0,0)" fill-opacity="0.5019607843137255"/>
<circle cx="272.0" cy="248.0" r="87.0" id="2" fill="rgb(217,217,217)" fill-opacity="0.5019607843137255"/>
<g transform="translate(29.0 205.0) rotate(208.0) scale(94.0 46.0)"><ellipse cx="0" cy="0" rx="1" ry="1" id="3" fill="rgb(240,235,231)" fill-opacity="0.5019607843137255" /></g>
<circle cx="221.0" cy="101.0" r="40.0" id="4" fill="rgb(0,0,3)" fill-opacity="0.5019607843137255"/>
<circle cx="81.0" cy="319.0" r="107.0" id="5" fill="rgb(182,181,181)" fill-opacity="0.5019607843137255"/>
<ellipse cx="155.0" cy="85.0" rx="40.0" ry="23.0" id="6" fill="rgb(255,246,226)" fill-opacity="0.5019607843137255"/>
<g transform="translate(80.0 100.0) rotate(68.0) scale(146.0 29.0)"><ellipse cx="0" cy="0" rx="1" ry="1" id="7" fill="rgb(0,0,1)" fill-opacity="0.5019607843137255" /></g>
<circle cx="175.0" cy="188.0" r="37.0" id="8" fill="rgb(0,0,0)" fill-opacity="0.5019607843137255"/>
<ellipse cx="208.0" cy="25.0" rx="88.0" ry="38.0" id="9" fill="rgb(172,170,151)" fill-opacity="0.5019607843137255"/>
<circle cx="280.0" cy="132.0" r="31.0" id="10" fill="rgb(214,209,201)" fill-opacity="0.5019607843137255"/>
<g transform="translate(184.0 246.0) rotate(286.0) scale(22.0 22.0)"><ellipse cx="0" cy="0" rx="1" ry="1" id="11" fill="rgb(209,205,193)" fill-opacity="0.5019607843137255" /></g>
<circle cx="24.0" cy="129.0" r="27.0" id="12" fill="rgb(220,212,204)" fill-opacity="0.5019607843137255"/>
<ellipse cx="199.0" cy="144.0" rx="36.0" ry="32.0" id="13" fill="rgb(0,0,1)" fill-opacity="0.5019607843137255"/>
<circle cx="156.0" cy="218.0" r="18.0" id="14" fill="rgb(0,0,0)" fill-opacity="0.5019607843137255"/>
<circle cx="244.0" cy="162.0" r="17.0" id="15" fill="rgb(207,206,204)" fill-opacity="0.5019607843137255"/>
<circle cx="126.0" cy="26.0" r="57.0" id="16" fill="rgb(99,107,74)" fill-opacity="0.5019607843137255"/>
<circle cx="280.0" cy="77.0" r="24.0" id="17" fill="rgb(203,197,185)" fill-opacity="0.5019607843137255"/>
<circle cx="93.0" cy="145.0" r="44.0" id="18" fill="rgb(0,0,20)" fill-opacity="0.5019607843137255"/>
<ellipse cx="26.0" cy="28.0" rx="28.0" ry="58.0" id="19" fill="rgb(107,88,66)" fill-opacity="0.5019607843137255"/>
<circle cx="12.0" cy="316.0" r="73.0" id="20" fill="rgb(185,186,184)" fill-opacity="0.5019607843137255"/>
<circle cx="158.0" cy="171.0" r="57.0" id="21" fill="rgb(0,0,15)" fill-opacity="0.5019607843137255"/>
<circle cx="68.0" cy="67.0" r="22.0" id="22" fill="rgb(0,0,5)" fill-opacity="0.5019607843137255"/>
<rect x="165.0" y="225.0" width="98.0" height="94.0" id="23" fill="rgb(161,161,160)" fill-opacity="0.5019607843137255" />
<circle cx="100.0" cy="260.0" r="20.0" id="24" fill="rgb(101,92,90)" fill-opacity="0.5019607843137255"/>
<g transform="translate(68.0 10.0) rotate(187.0) scale(75.0 24.0)"><ellipse cx="0" cy="0" rx="1" ry="1" id="25" fill="rgb(76,107,50)" fill-opacity="0.5019607843137255" /></g>
<circle cx="149.0" cy="280.0" r="21.0" id="26" fill="rgb(88,85,86)" fill-opacity="0.5019607843137255"/>
<polygon points="237.8656241066695,215.40037963624857 210.18213304167526,178.66314617407312 238.1343758933305,157.59962036375143 265.8178669583247,194.33685382592688" id="27" fill="rgb(180,178,179)" fill-opacity="0.5019607843137255"/>
<g transform="translate(35.0 36.0) rotate(154.0) scale(15.0 4.0)"><ellipse cx="0" cy="0" rx="1" ry="1" id="28" fill="rgb(255,137,156)" fill-opacity="0.5019607843137255" /></g>
<g transform="translate(235.0 72.0) rotate(24.0) scale(26.0 11.0)"><ellipse cx="0" cy="0" rx="1" ry="1" id="29" fill="rgb(0,0,17)" fill-opacity="0.5019607843137255" /></g>
<circle cx="111.0" cy="76.0" r="14.0" id="30" fill="rgb(154,145,141)" fill-opacity="0.5019607843137255"/>
<polygon points="187.9139974274122,11.022052464865709 154.7854152247142,18.67038831255711 152.0860025725878,6.97794753513429 185.2145847752858,-0.6703883125571117" id="31" fill="rgb(188,186,190)" fill-opacity="0.5019607843137255"/>
<polygon points="163.62289161425696,64.3869106045525 178.07994336836006,30.3282310268122 209.37710838574304,43.6130893954475 194.92005663163994,77.6717689731878" id="32" fill="rgb(131,122,111)" fill-opacity="0.5019607843137255"/>
<circle cx="120.0" cy="224.0" r="9.0" id="33" fill="rgb(0,0,0)" fill-opacity="0.5019607843137255"/>
<circle cx="247.0" cy="5.0" r="34.0" id="34" fill="rgb(162,162,164)" fill-opacity="0.5019607843137255"/>
<polygon points="123.30229328677687,231.2128429852324 129.03805765028733,223.0213225423425 148.69770671322314,236.7871570147676 142.96194234971267,244.9786774576575" id="35" fill="rgb(236,227,216)" fill-opacity="0.5019607843137255"/>
<circle cx="221.0" cy="116.0" r="36.0" id="36" fill="rgb(0,2,23)" fill-opacity="0.5019607843137255"/>
<rect x="61.0" y="195.0" width="41.0" height="18.0" id="37" fill="rgb(204,208,209)" fill-opacity="0.5019607843137255" />
<ellipse cx="229.0" cy="203.0" rx="23.0" ry="15.0" id="38" fill="rgb(193,196,200)" fill-opacity="0.5019607843137255"/>
<g transform="translate(66.0 249.0) rotate(346.0) scale(49.0 19.0)"><ellipse cx="0" cy="0" rx="1" ry="1" id="39" fill="rgb(160,157,156)" fill-opacity="0.5019607843137255" /></g>
<circle cx="278.0" cy="232.0" r="36.0" id="40" fill="rgb(190,190,187)" fill-opacity="0.5019607843137255"/>
<g transform="translate(87.0 269.0) rotate(189.0) scale(19.0 7.0)"><ellipse cx="0" cy="0" rx="1" ry="1" id="41" fill="rgb(76,66,64)" fill-opacity="0.5019607843137255" /></g>
<ellipse cx="96.0" cy="292.0" rx="28.0" ry="12.0" id="42" fill="rgb(168,174,178)" fill-opacity="0.5019607843137255"/>
<circle cx="82.0" cy="236.0" r="30.0" id="43" fill="rgb(169,166,162)" fill-opacity="0.5019607843137255"/>
<ellipse cx="31.0" cy="156.0" rx="18.0" ry="43.0" id="44" fill="rgb(175,172,172)" fill-opacity="0.5019607843137255"/>
<ellipse cx="158.0" cy="255.0" rx="5.0" ry="33.0" id="45" fill="rgb(27,23,26)" fill-opacity="0.5019607843137255"/>
<ellipse cx="120.0" cy="209.0" rx="8.0" ry="30.0" id="46" fill="rgb(13,11,11)" fill-opacity="0.5019607843137255"/>
<circle cx="118.0" cy="127.0" r="29.0" id="47" fill="rgb(21,32,48)" fill-opacity="0.5019607843137255"/>
<circle cx="225.0" cy="292.0" r="56.0" id="48" fill="rgb(150,151,151)" fill-opacity="0.5019607843137255"/>
<rect x="37.0" y="73.0" width="9.0" height="48.0" id="49" fill="rgb(182,174,158)" fill-opacity="0.5019607843137255" />
<ellipse cx="241.0" cy="87.0" rx="17.0" ry="24.0" id="50" fill="rgb(0,9,25)" fill-opacity="0.5019607843137255"/>
<rect x="187.0" y="70.0" width="7.0" height="7.0" id="51" fill="rgb(222,220,212)" fill-opacity="0.5019607843137255" />
<circle cx="3.0" cy="23.0" r="23.0" id="52" fill="rgb(63,69,64)" fill-opacity="0.5019607843137255"/>
<ellipse cx="263.0" cy="98.0" rx="5.0" ry="72.0" id="53" fill="rgb(168,165,157)" fill-opacity="0.5019607843137255"/>
<polygon points="215.66458927749972,165.3366980839805 205.96839687257298,147.84430394119258 224.33541072250028,137.6633019160195 234.03160312742702,155.15569605880742" id="54" fill="rgb(0,0,1)" fill-opacity="0.5019607843137255"/>
<circle cx="119.0" cy="177.0" r="30.0" id="55" fill="rgb(0,5,10)" fill-opacity="0.5019607843137255"/>
<circle cx="64.0" cy="98.0" r="18.0" id="56" fill="rgb(0,0,9)" fill-opacity="0.5019607843137255"/>
<g transform="translate(5.0 126.0) rotate(334.0) scale(22.0 32.0)"><ellipse cx="0" cy="0" rx="1" ry="1" id="57" fill="rgb(164,159,153)" fill-opacity="0.5019607843137255" /></g>
<ellipse cx="59.0" cy="44.0" rx="15.0" ry="16.0" id="58" fill="rgb(17,0,18)" fill-opacity="0.5019607843137255"/>
<g transform="translate(130.0 245.0) rotate(40.0) scale(8.0 19.0)"><ellipse cx="0" cy="0" rx="1" ry="1" id="59" fill="rgb(180,177,170)" fill-opacity="0.5019607843137255" /></g>
<g transform="translate(148.0 310.0) rotate(132.0) scale(21.0 16.0)"><ellipse cx="0" cy="0" rx="1" ry="1" id="60" fill="rgb(172,176,181)" fill-opacity="0.5019607843137255" /></g>
<ellipse cx="142.0" cy="278.0" rx="36.0" ry="10.0" id="61" fill="rgb(99,96,97)" fill-opacity="0.5019607843137255"/>
<circle cx="142.0" cy="265.0" r="13.0" id="62" fill="rgb(165,164,161)" fill-opacity="0.5019607843137255"/>
<ellipse cx="128.0" cy="34.0" rx="21.0" ry="8.0" id="63" fill="rgb(131,136,93)" fill-opacity="0.5019607843137255"/>
<rect x="20.0" y="93.0" width="17.0" height="5.0" id="64" fill="rgb(224,212,201)" fill-opacity="0.5019607843137255" />
<g transform="translate(78.0 158.0) rotate(281.0) scale(21.0 29.0)"><ellipse cx="0" cy="0" rx="1" ry="1" id="65" fill="rgb(5,11,18)" fill-opacity="0.5019607843137255" /></g>
<polygon points="179.54520645781702,41.21433583774515 182.10446266932513,62.05780502221292 135.45479354218298,67.78566416225485 132.89553733067487,46.94219497778708" id="66" fill="rgb(77,67,70)" fill-opacity="0.5019607843137255"/>
<g transform="translate(151.0 98.0) rotate(20.0) scale(22.0 8.0)"><ellipse cx="0" cy="0" rx="1" ry="1" id="67" fill="rgb(191,188,180)" fill-opacity="0.5019607843137255" /></g>
<rect x="46.0" y="112.0" width="3.0" height="36.0" id="68" fill="rgb(201,197,194)" fill-opacity="0.5019607843137255" />
<polygon points="21.0,169.0 73.0,179.0 68.0,210.0" id="69" fill="rgb(191,193,191)" fill-opacity="0.5019607843137255"/>
<rect x="149.0" y="212.0" width="9.0" height="25.0" id="70" fill="rgb(0,0,0)" fill-opacity="0.5019607843137255" />
<ellipse cx="162.0" cy="127.0" rx="41.0" ry="19.0" id="71" fill="rgb(23,30,47)" fill-opacity="0.5019607843137255"/>
<circle cx="23.0" cy="74.0" r="23.0" id="72" fill="rgb(119,110,100)" fill-opacity="0.5019607843137255"/>
<circle cx="109.0" cy="56.0" r="22.0" id="73" fill="rgb(77,71,71)" fill-opacity="0.5019607843137255"/>
<circle cx="154.0" cy="193.0" r="36.0" id="74" fill="rgb(3,7,15)" fill-opacity="0.5019607843137255"/>
<ellipse cx="37.0" cy="44.0" rx="16.0" ry="11.0" id="75" fill="rgb(109,45,56)" fill-opacity="0.5019607843137255"/>
<g transform="translate(226.0 38.0) rotate(90.0) scale(22.0 18.0)"><ellipse cx="0" cy="0" rx="1" ry="1" id="76" fill="rgb(140,136,129)" fill-opacity="0.5019607843137255" /></g>
<g transform="translate(271.0 64.0) rotate(233.0) scale(14.0 21.0)"><ellipse cx="0" cy="0" rx="1" ry="1" id="77" fill="rgb(163,161,140)" fill-opacity="0.5019607843137255" /></g>
<g transform="translate(205.0 284.0) rotate(21.0) scale(54.0 7.0)"><ellipse cx="0" cy="0" rx="1" ry="1" id="78" fill="rgb(139,139,138)" fill-opacity="0.5019607843137255" /></g>
<g transform="translate(118.0 57.0) rotate(200.0) scale(27.0 4.0)"><ellipse cx="0" cy="0" rx="1" ry="1" id="79" fill="rgb(37,32,37)" fill-opacity="0.5019607843137255" /></g>
<ellipse cx="223.0" cy="93.0" rx="31.0" ry="33.0" id="80" fill="rgb(5,12,26)" fill-opacity="0.5019607843137255"/>
<circle cx="256.0" cy="171.0" r="30.0" id="81" fill="rgb(165,163,161)" fill-opacity="0.5019607843137255"/>
<rect x="228.0" y="220.0" width="50.0" height="19.0" id="82" fill="rgb(193,197,198)" fill-opacity="0.5019607843137255" />
<polygon points="21.970051605332827,287.9398375384229 25.411609836217902,266.2106940453299 56.02994839466717,271.0601624615771 52.588390163782094,292.7893059546701" id="83" fill="rgb(206,206,206)" fill-opacity="0.5019607843137255"/>
<ellipse cx="199.0" cy="4.0" rx="38.0" ry="31.0" id="84" fill="rgb(155,153,148)" fill-opacity="0.5019607843137255"/>
<ellipse cx="51.0" cy="91.0" rx="3.0" ry="29.0" id="85" fill="rgb(0,0,8)" fill-opacity="0.5019607843137255"/>
<ellipse cx="130.0" cy="85.0" rx="24.0" ry="10.0" id="86" fill="rgb(174,172,157)" fill-opacity="0.5019607843137255"/>
<polygon points="200.1963887051587,223.5942753108838 201.6780363318689,240.52958517844348 168.8036112948413,243.4057246891162 167.3219636681311,226.47041482155652" id="87" fill="rgb(206,198,185)" fill-opacity="0.5019607843137255"/>
<circle cx="176.0" cy="88.0" r="17.0" id="88" fill="rgb(169,165,158)" fill-opacity="0.5019607843137255"/>
<polygon points="73.0,38.0 93.0,70.0 97.0,39.0" id="89" fill="rgb(111,106,106)" fill-opacity="0.5019607843137255"/>
<circle cx="82.0" cy="227.0" r="29.0" id="90" fill="rgb(174,172,170)" fill-opacity="0.5019607843137255"/>
<polyline points="114.0,193.0 117.0,247.0 139.0,193.0 72.0,179.0" id="91" stroke="rgb(12,9,9)" stroke-width="1" fill="none" stroke-opacity="0.5019607843137255" />
<polygon points="96.0,165.0 261.0,83.0 231.0,159.0" id="92" fill="rgb(4,10,22)" fill-opacity="0.5019607843137255"/>
<ellipse cx="255.0" cy="144.0" rx="8.0" ry="16.0" id="93" fill="rgb(169,164,163)" fill-opacity="0.5019607843137255"/>
<g transform="translate(73.0 305.0) rotate(90.0) scale(17.0 35.0)"><ellipse cx="0" cy="0" rx="1" ry="1" id="94" fill="rgb(149,153,157)" fill-opacity="0.5019607843137255" /></g>
<g transform="translate(204.0 78.0) rotate(22.0) scale(8.0 20.0)"><ellipse cx="0" cy="0" rx="1" ry="1" id="95" fill="rgb(16,14,21)" fill-opacity="0.5019607843137255" /></g>
<polygon points="169.54039889128305,75.21008246217151 163.69067040783597,27.56786718338805 194.45960110871695,23.78991753782849 200.30932959216403,71.43213281661195" id="96" fill="rgb(118,113,102)" fill-opacity="0.5019607843137255"/>
<polygon points="232.07064801766563,50.39937492314931 224.85399869877003,42.097569540698814 236.92935198233437,31.600625076850694 244.14600130122997,39.902430459301186" id="97" fill="rgb(94,94,90)" fill-opacity="0.5019607843137255"/>
<ellipse cx="83.0" cy="96.0" rx="24.0" ry="21.0" id="98" fill="rgb(1,12,28)" fill-opacity="0.5019607843137255"/>
<ellipse cx="74.0" cy="7.0" rx="44.0" ry="10.0" id="99" fill="rgb(97,126,63)" fill-opacity="0.5019607843137255"/>
<ellipse cx="130.0" cy="281.0" rx="15.0" ry="3.0" id="100" fill="rgb(35,27,30)" fill-opacity="0.5019607843137255"/>
<line x1="163.0" y1="83.0" x2="69.0" y2="98.0" id="101" stroke="rgb(0,0,0)" stroke-width="1" fill="none" stroke-opacity="0.5019607843137255"/>
<line x1="120.0" y1="246.0" x2="147.0" y2="249.0" id="102" stroke="rgb(66,64,57)" stroke-width="1" fill="none" stroke-opacity="0.5019607843137255"/>
<rect x="249.0" y="177.0" width="31.0" height="5.0" id="103" fill="rgb(105,99,102)" fill-opacity="0.5019607843137255" />
<polygon points="251.41560768041668,117.99755276968412 270.06711075538396,102.893863384488 272.58439231958334,106.00244723031588 253.93288924461604,121.106136615512" id="104" fill="rgb(198,193,182)" fill-opacity="0.5019607843137255"/>
<rect x="35.0" y="145.0" width="13.0" height="18.0" id="105" fill="rgb(190,187,185)" fill-opacity="0.5019607843137255" />
<rect x="111.0" y="237.0" width="4.0" height="31.0" id="106" fill="rgb(65,53,50)" fill-opacity="0.5019607843137255" />
<polygon points="263.0,96.0 279.0,96.0 279.0,122.0 263.0,122.0" id="107" fill="rgb(186,182,171)" fill-opacity="0.5019607843137255"/>
<polygon points="21.0,28.0 29.0,52.0 38.0,30.0" id="108" fill="rgb(184,115,115)" fill-opacity="0.5019607843137255"/>
<rect x="101.0" y="267.0" width="20.0" height="5.0" id="109" fill="rgb(43,39,42)" fill-opacity="0.5019607843137255" />
<ellipse cx="260.0" cy="166.0" rx="22.0" ry="9.0" id="110" fill="rgb(190,194,193)" fill-opacity="0.5019607843137255"/>
<ellipse cx="63.0" cy="76.0" rx="17.0" ry="28.0" id="111" fill="rgb(0,5,14)" fill-opacity="0.5019607843137255"/>
<polygon points="111.31780957138588,316.8363683823855 128.5200025014547,304.79126321901356 133.68219042861412,312.1636316176145 116.4799974985453,324.20873678098644" id="112" fill="rgb(189,196,200)" fill-opacity="0.5019607843137255"/>
<circle cx="115.0" cy="217.0" r="6.0" id="113" fill="rgb(0,0,0)" fill-opacity="0.5019607843137255"/>
<circle cx="81.0" cy="29.0" r="13.0" id="114" fill="rgb(67,73,57)" fill-opacity="0.5019607843137255"/>
<circle cx="31.0" cy="122.0" r="20.0" id="115" fill="rgb(165,160,155)" fill-opacity="0.5019607843137255"/>
<g transform="translate(59.0 249.0) rotate(134.0) scale(24.0 22.0)"><ellipse cx="0" cy="0" rx="1" ry="1" id="116" fill="rgb(158,158,157)" fill-opacity="0.5019607843137255" /></g>
<polygon points="246.29342533608445,210.67478535430664 247.38270340611453,212.35212649019746 219.70657466391555,230.32521464569336 218.61729659388547,228.64787350980254" id="117" fill="rgb(119,114,107)" fill-opacity="0.5019607843137255"/>
<g transform="translate(116.0 242.0) rotate(202.0) scale(3.0 31.0)"><ellipse cx="0" cy="0" rx="1" ry="1" id="118" fill="rgb(59,48,42)" fill-opacity="0.5019607843137255" /></g>
<line x1="260.0" y1="237.0" x2="293.0" y2="238.0" id="119" stroke="rgb(93,97,99)" stroke-width="1" fill="none" stroke-opacity="0.5019607843137255"/>
<g transform="translate(166.0 51.0) rotate(354.0) scale(26.0 4.0)"><ellipse cx="0" cy="0" rx="1" ry="1" id="120" fill="rgb(67,61,55)" fill-opacity="0.5019607843137255" /></g>
<polygon points="71.0,191.0 95.0,216.0 99.0,199.0" id="121" fill="rgb(209,213,214)" fill-opacity="0.5019607843137255"/>
<ellipse cx="206.0" cy="314.0" rx="79.0" ry="21.0" id="122" fill="rgb(159,159,161)" fill-opacity="0.5019607843137255"/>
<ellipse cx="9.0" cy="231.0" rx="28.0" ry="33.0" id="123" fill="rgb(187,182,182)" fill-opacity="0.5019607843137255"/>
<circle cx="216.0" cy="246.0" r="30.0" id="124" fill="rgb(173,172,169)" fill-opacity="0.5019607843137255"/>
<circle cx="0.0" cy="112.0" r="9.0" id="125" fill="rgb(178,174,164)" fill-opacity="0.5019607843137255"/>
<line x1="101.0" y1="261.0" x2="113.0" y2="237.0" id="126" stroke="rgb(236,228,227)" stroke-width="1" fill="none" stroke-opacity="0.5019607843137255"/>
<polygon points="149.6788813992874,71.5425015099196 148.8017662851192,68.67358724203051 159.3211186007126,65.4574984900804 160.1982337148808,68.32641275796949" id="127" fill="rgb(229,210,201)" fill-opacity="0.5019607843137255"/>
<circle cx="72.0" cy="129.0" r="23.0" id="128" fill="rgb(13,24,36)" fill-opacity="0.5019607843137255"/>
<polygon points="129.7967059583977,33.021742736836 118.28726915297929,44.13627666417995 116.20329404160229,41.978257263164 127.71273084702071,30.863723335820048" id="129" fill="rgb(191,196,140)" fill-opacity="0.5019607843137255"/>
<line x1="234.0" y1="16.0" x2="290.0" y2="14.0" id="130" stroke="rgb(170,170,165)" stroke-width="1" fill="none" stroke-opacity="0.5019607843137255"/>
<ellipse cx="89.0" cy="169.0" rx="19.0" ry="21.0" id="131" fill="rgb(4,6,9)" fill-opacity="0.5019607843137255"/>
<g transform="translate(182.0 206.0) rotate(233.0) scale(17.0 24.0)"><ellipse cx="0" cy="0" rx="1" ry="1" id="132" fill="rgb(4,5,10)" fill-opacity="0.5019607843137255" /></g>
<rect x="39.0" y="27.0" width="10.0" height="4.0" id="133" fill="rgb(255,208,228)" fill-opacity="0.5019607843137255" />
<ellipse cx="259.0" cy="32.0" rx="34.0" ry="5.0" id="134" fill="rgb(173,175,175)" fill-opacity="0.5019607843137255"/>
<polygon points="22.0,37.0 40.0,49.0 8.0,48.0" id="135" fill="rgb(63,77,74)" fill-opacity="0.5019607843137255"/>
<polygon points="232.80757264339368,99.86691980735188 243.7701181351049,94.98608009044229 257.1924273566063,125.13308019264812 246.2298818648951,130.01391990955773" id="136" fill="rgb(10,16,28)" fill-opacity="0.5019607843137255"/>
<rect x="254.0" y="59.0" width="19.0" height="4.0" id="137" fill="rgb(92,82,73)" fill-opacity="0.5019607843137255" />
<polygon points="61.0,36.0 81.0,45.0 62.0,56.0" id="138" fill="rgb(0,5,19)" fill-opacity="0.5019607843137255"/>
<polygon points="5.00977293692541,89.12417693744798 31.67735813299413,84.90044638136175 31.99022706307459,86.87582306255202 5.322641867005872,91.09955361863825" id="139" fill="rgb(192,186,155)" fill-opacity="0.5019607843137255"/>
<circle cx="280.0" cy="18.0" r="24.0" id="140" fill="rgb(144,143,141)" fill-opacity="0.5019607843137255"/>
<polygon points="40.3139068714608,84.02081940459996 28.670358156148843,81.11775665740394 35.6860931285392,52.979180595400045 47.32964184385116,55.882243342596055" id="141" fill="rgb(116,79,79)" fill-opacity="0.5019607843137255"/>
<ellipse cx="245.0" cy="83.0" rx="20.0" ry="1.0" id="142" fill="rgb(10,15,27)" fill-opacity="0.5019607843137255"/>
<circle cx="45.0" cy="195.0" r="28.0" id="143" fill="rgb(179,178,171)" fill-opacity="0.5019607843137255"/>
<rect x="153.0" y="219.0" width="10.0" height="21.0" id="144" fill="rgb(0,0,3)" fill-opacity="0.5019607843137255" />
<ellipse cx="247.0" cy="171.0" rx="30.0" ry="5.0" id="145" fill="rgb(173,173,171)" fill-opacity="0.5019607843137255"/>
<g transform="translate(207.0 212.0) rotate(127.0) scale(16.0 3.0)"><ellipse cx="0" cy="0" rx="1" ry="1" id="146" fill="rgb(201,201,203)" fill-opacity="0.5019607843137255" /></g>
<rect x="9.0" y="243.0" width="41.0" height="24.0" id="147" fill="rgb(150,149,149)" fill-opacity="0.5019607843137255" />
<rect x="124.0" y="229.0" width="11.0" height="28.0" id="148" fill="rgb(177,174,172)" fill-opacity="0.5019607843137255" />
<ellipse cx="183.0" cy="59.0" rx="25.0" ry="5.0" id="149" fill="rgb(98,92,87)" fill-opacity="0.5019607843137255"/>
<g transform="translate(133.0 204.0) rotate(319.0) scale(29.0 13.0)"><ellipse cx="0" cy="0" rx="1" ry="1" id="150" fill="rgb(13,14,20)" fill-opacity="0.5019607843137255" /></g>
<ellipse cx="82.0" cy="17.0" rx="24.0" ry="7.0" id="151" fill="rgb(71,94,50)" fill-opacity="0.5019607843137255"/>
<rect x="141.0" y="109.0" width="40.0" height="34.0" id="152" fill="rgb(33,36,48)" fill-opacity="0.5019607843137255" />
<polyline points="56.0,270.0 77.0,270.0 84.0,266.0 85.0,266.0" id="153" stroke="rgb(30,24,26)" stroke-width="1" fill="none" stroke-opacity="0.5019607843137255" />
<circle cx="141.0" cy="0.0" r="10.0" id="154" fill="rgb(150,163,129)" fill-opacity="0.5019607843137255"/>
<polygon points="161.0,302.0 213.0,307.0 187.0,308.0" id="155" fill="rgb(99,99,99)" fill-opacity="0.5019607843137255"/>
<circle cx="41.0" cy="229.0" r="16.0" id="156" fill="rgb(189,187,183)" fill-opacity="0.5019607843137255"/>
<polygon points="218.77288415806086,294.4234328457892 202.68310272243912,309.42739676716417 197.22711584193914,303.5765671542108 213.31689727756088,288.57260323283583" id="157" fill="rgb(117,117,114)" fill-opacity="0.5019607843137255"/>
<ellipse cx="4.0" cy="311.0" rx="19.0" ry="9.0" id="158" fill="rgb(193,197,199)" fill-opacity="0.5019607843137255"/>
<polygon points="155.33685317449834,237.02653125452883 127.90749955203074,220.54531285740708 136.66314682550166,205.97346874547117 164.09250044796926,222.45468714259292" id="159" fill="rgb(2,2,5)" fill-opacity="0.5019607843137255"/>
<circle cx="160.0" cy="226.0" r="7.0" id="160" fill="rgb(0,0,5)" fill-opacity="0.5019607843137255"/>
<line x1="23.0" y1="215.0" x2="72.0" y2="184.0" id="161" stroke="rgb(74,70,63)" stroke-width="1" fill="none" stroke-opacity="0.5019607843137255"/>
<polygon points="190.3825506520864,85.54893474355755 192.0363747869884,91.31650491918747 177.6174493479136,95.45106525644245 175.9636252130116,89.68349508081253" id="162" fill="rgb(208,206,190)" fill-opacity="0.5019607843137255"/>
<polygon points="32.0,88.0 46.0,100.0 49.0,117.0" id="163" fill="rgb(202,196,187)" fill-opacity="0.5019607843137255"/>
<line x1="167.0" y1="83.0" x2="198.0" y2="78.0" id="164" stroke="rgb(0,0,0)" stroke-width="1" fill="none" stroke-opacity="0.5019607843137255"/>
<g transform="translate(190.0 253.0) rotate(328.0) scale(30.0 21.0)"><ellipse cx="0" cy="0" rx="1" ry="1" id="165" fill="rgb(167,167,161)" fill-opacity="0.5019607843137255" /></g>
<rect x="30.0" y="59.0" width="13.0" height="34.0" id="166" fill="rgb(102,102,89)" fill-opacity="0.5019607843137255" />
<ellipse cx="269.0" cy="68.0" rx="17.0" ry="6.0" id="167" fill="rgb(182,181,178)" fill-opacity="0.5019607843137255"/>
<polygon points="262.0,201.0 274.0,207.0 280.0,204.0" id="168" fill="rgb(119,118,119)" fill-opacity="0.5019607843137255"/>
<polygon points="226.0,61.0 263.0,63.0 233.0,66.0" id="169" fill="rgb(38,31,32)" fill-opacity="0.5019607843137255"/>
<ellipse cx="263.0" cy="230.0" rx="17.0" ry="15.0" id="170" fill="rgb(185,189,190)" fill-opacity="0.5019607843137255"/>
<g transform="translate(274.0 245.0) rotate(239.0) scale(2.0 22.0)"><ellipse cx="0" cy="0" rx="1" ry="1" id="171" fill="rgb(122,121,117)" fill-opacity="0.5019607843137255" /></g>
<polygon points="97.0,215.0 39.0,209.0 51.0,208.0" id="172" fill="rgb(87,86,84)" fill-opacity="0.5019607843137255"/>
<circle cx="86.0" cy="282.0" r="9.0" id="173" fill="rgb(180,182,180)" fill-opacity="0.5019607843137255"/>
<g transform="translate(73.0 152.0) rotate(86.0) scale(24.0 24.0)"><ellipse cx="0" cy="0" rx="1" ry="1" id="174" fill="rgb(14,18,28)" fill-opacity="0.5019607843137255" /></g>
<polyline points="5.0,272.0 73.0,229.0 11.0,271.0 49.0,243.0" id="175" stroke="rgb(78,75,70)" stroke-width="1" fill="none" stroke-opacity="0.5019607843137255" />
<g transform="translate(104.0 100.0) rotate(219.0) scale(38.0 11.0)"><ellipse cx="0" cy="0" rx="1" ry="1" id="176" fill="rgb(18,25,41)" fill-opacity="0.5019607843137255" /></g>
<ellipse cx="270.0" cy="281.0" rx="48.0" ry="7.0" id="177" fill="rgb(133,137,140)" fill-opacity="0.5019607843137255"/>
<line x1="108.0" y1="194.0" x2="77.0" y2="192.0" id="178" stroke="rgb(29,25,28)" stroke-width="1" fill="none" stroke-opacity="0.5019607843137255"/>
<g transform="translate(10.0 102.0) rotate(85.0) scale(1.0 15.0)"><ellipse cx="0" cy="0" rx="1" ry="1" id="179" fill="rgb(34,22,11)" fill-opacity="0.5019607843137255" /></g>
<g transform="translate(17.0 8.0) rotate(71.0) scale(27.0 5.0)"><ellipse cx="0" cy="0" rx="1" ry="1" id="180" fill="rgb(85,98,78)" fill-opacity="0.5019607843137255" /></g>
<rect x="222.0" y="46.0" width="37.0" height="14.0" id="181" fill="rgb(161,154,138)" fill-opacity="0.5019607843137255" />
<ellipse cx="120.0" cy="261.0" rx="7.0" ry="3.0" id="182" fill="rgb(196,191,188)" fill-opacity="0.5019607843137255"/>
<line x1="11.0" y1="324.0" x2="37.0" y2="304.0" id="183" stroke="rgb(48,47,42)" stroke-width="1" fill="none" stroke-opacity="0.5019607843137255"/>
<rect x="163.0" y="229.0" width="26.0" height="20.0" id="184" fill="rgb(193,188,177)" fill-opacity="0.5019607843137255" />
<polygon points="33.0,164.0 40.0,169.0 8.0,181.0" id="185" fill="rgb(127,122,122)" fill-opacity="0.5019607843137255"/>
<line x1="86.0" y1="269.0" x2="69.0" y2="269.0" id="186" stroke="rgb(11,3,7)" stroke-width="1" fill="none" stroke-opacity="0.5019607843137255"/>
<polygon points="72.44251705421114,179.59358259113822 74.13861324652399,178.53374406267181 81.55748294578886,190.40641740886178 79.86138675347601,191.46625593732819" id="187" fill="rgb(32,25,25)" fill-opacity="0.5019607843137255"/>
<polygon points="95.46764452783547,249.05741952800892 89.64587017017949,247.60588815441093 100.53235547216453,203.94258047199108 106.35412982982051,205.39411184558907" id="188" fill="rgb(169,165,167)" fill-opacity="0.5019607843137255"/>
<g transform="translate(177.0 73.0) rotate(259.0) scale(2.0 23.0)"><ellipse cx="0" cy="0" rx="1" ry="1" id="189" fill="rgb(141,133,114)" fill-opacity="0.5019607843137255" /></g>
<circle cx="214.0" cy="80.0" r="20.0" id="190" fill="rgb(15,19,30)" fill-opacity="0.5019607843137255"/>
<circle cx="215.0" cy="155.0" r="15.0" id="191" fill="rgb(1,1,6)" fill-opacity="0.5019607843137255"/>
<g transform="translate(134.0 23.0) rotate(110.0) scale(10.0 26.0)"><ellipse cx="0" cy="0" rx="1" ry="1" id="192" fill="rgb(108,115,88)" fill-opacity="0.5019607843137255" /></g>
<polygon points="160.0,250.0 130.0,247.0 189.0,257.0" id="193" fill="rgb(80,76,70)" fill-opacity="0.5019607843137255"/>
<polyline points="240.0,56.0 280.0,47.0 252.0,39.0 280.0,43.0" id="194" stroke="rgb(113,110,102)" stroke-width="1" fill="none" stroke-opacity="0.5019607843137255" />
<line x1="28.0" y1="131.0" x2="40.0" y2="131.0" id="195" stroke="rgb(76,69,71)" stroke-width="1" fill="none" stroke-opacity="0.5019607843137255"/>
<circle cx="17.0" cy="136.0" r="5.0" id="196" fill="rgb(110,107,108)" fill-opacity="0.5019607843137255"/>
<circle cx="22.0" cy="277.0" r="11.0" id="197" fill="rgb(199,199,197)" fill-opacity="0.5019607843137255"/>
<rect x="236.0" y="145.0" width="14.0" height="43.0" id="198" fill="rgb(169,166,166)" fill-opacity="0.5019607843137255" />
<polyline points="160.0,219.0 97.0,215.0 102.0,209.0 70.0,232.0" id="199" stroke="rgb(43,44,43)" stroke-width="1" fill="none" stroke-opacity="0.5019607843137255" />
<circle cx="113.0" cy="87.0" r="3.0" id="200" fill="rgb(223,216,202)" fill-opacity="0.5019607843137255"/>
</svg>