<?xml version="1.0" encoding="UTF-8" standalone="no"?>
<!DOCTYPE svg PUBLIC "-//W3C//DTD SVG 1.1//EN" "http://www.w3.org/Graphics/SVG/1.1/DTD/svg11.dtd">
<svg xmlns:xlink="http://www.w3.org/1999/xlink" version="1.1" xmlns="http://www.w3.org/2000/svg"  width="1123" height="1280" viewBox="0 0 281 320">
<rect x="0.0" y="0.0" width="281.0" height="320.0" id="0" fill="rgb(109,109,108)" fill-opacity="1.0" />
<polygon points="236.66185155729593,143.00675694559428 181.3935548492135,242.7134035594854 21.338148442704068,153.99324305440572 76.6064451507865,54.2865964405146" id="1" fill="rgb(0,0,0)" fill-opacity="0.5019607843137255"/>
<polygon points="166.38354820249629,140.46267892735275 207.80013785308483,51.644515797761066 267.6164517975037,79.53732107264725 226.19986214691517,168.35548420223893" id="2" fill="rgb(0,0,0)" fill-opacity="0.5019607843137255"/>
<polygon points="161.65211410927424,229.68721005392123 262.06411348539297,198.98818105803394 293.34788589072576,301.31278994607874 192.93588651460703,332.01181894196606" id="3" fill="rgb(217,217,215)" fill-opacity="0.5019607843137255"/>
<polygon points="118.92839560734377,169.2828002981101 56.273516199142556,175.86809348397227 40.071604392656226,21.71719970188991 102.72648380085744,15.131906516027726" id="4" fill="rgb(0,0,4)" fill-opacity="0.5019607843137255"/>
<polygon points="1.4487678328191436,168.42370018420144 0.5586951045176818,117.43146773122547 49.551232167180856,116.57629981579858 50.44130489548232,167.56853226877453" id="5" fill="rgb(247,239,235)" fill-opacity="0.5019607843137255"/>
<polygon points="49.38057703734077,164.55355220585037 121.65515145283906,223.08034857348525 43.61942296265923,319.44644779414966 -28.655151452839064,260.91965142651475" id="6" fill="rgb(231,227,224)" fill-opacity="0.5019607843137255"/>
<polygon points="184.5793214438338,126.50898671813842 209.13854464054367,206.83858621903337 115.42067855616621,235.49101328186157 90.86145535945631,155.16141378096663" id="7" fill="rgb(0,0,0)" fill-opacity="0.5019607843137255"/>
<polygon points="152.44967320028763,92.95577136594005 143.44967320028763,108.54422863405995 97.55032679971237,82.04422863405995 106.55032679971237,66.45577136594005" id="8" fill="rgb(235,229,210)" fill-opacity="0.5019607843137255"/>
<polygon points="287.53508741004947,232.69156781363478 226.88993616455352,245.58209264433586 210.46491258995053,168.30843218636522 271.11006383544645,155.41790735566414" id="9" fill="rgb(211,210,211)" fill-opacity="0.5019607843137255"/>
<polygon points="159.00299444863208,64.38802934181774 178.25132852285358,100.58888064903374 149.99700555136792,115.61197065818226 130.74867147714642,79.41111935096626" id="10" fill="rgb(204,196,181)" fill-opacity="0.5019607843137255"/>
<polygon points="256.07759923214684,178.24664719195957 232.86454720060567,162.58924589477866 275.92240076785316,98.75335280804043 299.13545279939433,114.41075410522134" id="11" fill="rgb(213,211,204)" fill-opacity="0.5019607843137255"/>
<polygon points="185.0,319.0 0.0,319.0 0.0,286.0 185.0,286.0" id="12" fill="rgb(191,194,197)" fill-opacity="0.5019607843137255"/>
<polygon points="302.428547763285,47.022428249958516 269.0745670376436,88.21116420717797 204.571452236715,35.977571750041484 237.92543296235638,-5.21116420717798" id="13" fill="rgb(183,179,166)" fill-opacity="0.5019607843137255"/>
<polygon points="155.9308361010311,242.7454531067061 137.46099184126135,219.10513049850442 150.0691638989689,209.2545468932939 168.53900815873865,232.89486950149558" id="14" fill="rgb(0,0,0)" fill-opacity="0.5019607843137255"/>
<polygon points="24.785351204387663,149.92439355914513 47.14714548571186,166.77521420740248 3.2146487956123373,225.07560644085487 -19.14714548571186,208.22478579259752" id="15" fill="rgb(226,219,217)" fill-opacity="0.5019607843137255"/>
<polygon points="169.17658786737258,113.61127912617448 223.38072649049406,74.22966722257877 259.8234121326274,124.38872087382552 205.61927350950594,163.77033277742123" id="16" fill="rgb(0,0,4)" fill-opacity="0.5019607843137255"/>
<polygon points="177.51634526571522,48.906307263654085 191.68826168937872,-12.479006817815737 237.48365473428478,-1.9063072636540852 223.31173831062128,59.47900681781574" id="17" fill="rgb(166,162,148)" fill-opacity="0.5019607843137255"/>
<polygon points="113.47803643808572,250.8298082779287 130.36184652355155,224.83102067162054 155.52196356191428,241.1701917220713 138.63815347644845,267.16897932837946" id="18" fill="rgb(220,215,209)" fill-opacity="0.5019607843137255"/>
<polygon points="38.469018234048306,68.20044762320751 74.94667142647012,43.595959870494625 113.5309817659517,100.79955237679249 77.05332857352988,125.40404012950538" id="19" fill="rgb(0,0,15)" fill-opacity="0.5019607843137255"/>
<polygon points="218.58591933696405,179.82144228768547 286.8942668557007,213.13764944365533 265.414080663036,257.17855771231456 197.10573314429925,223.86235055634467" id="20" fill="rgb(182,183,183)" fill-opacity="0.5019607843137255"/>
<polygon points="45.85665793859157,86.25896714049753 48.01910862465947,117.18345269855207 -2.856657938591571,120.74103285950247 -5.019108624659463,89.81654730144793" id="21" fill="rgb(187,177,159)" fill-opacity="0.5019607843137255"/>
<polygon points="95.02697471602696,84.22220851085848 69.37546396660176,13.745261951915374 137.97302528397304,-11.222208510858486 163.62453603339824,59.254738048084626" id="22" fill="rgb(86,98,54)" fill-opacity="0.5019607843137255"/>
<polygon points="195.0,62.0 253.0,62.0 253.0,130.0 195.0,130.0" id="23" fill="rgb(0,0,17)" fill-opacity="0.5019607843137255"/>
<polygon points="171.10774419484775,64.53868703365127 196.91394413752212,67.7072899621851 192.89225580515225,100.46131296634873 167.08605586247788,97.2927100378149" id="24" fill="rgb(194,186,168)" fill-opacity="0.5019607843137255"/>
<polygon points="6.643069868547201,324.6737176669105 -10.251852355797752,218.00337688263562 101.3569301314528,200.32628233308952 118.25185235579775,306.9966231173644" id="25" fill="rgb(168,166,165)" fill-opacity="0.5019607843137255"/>
<polygon points="229.20237612862394,120.60374853129117 219.9727426912503,178.8773606264043 153.79762387137606,168.3962514687088 163.0272573087497,110.12263937359569" id="26" fill="rgb(0,1,19)" fill-opacity="0.5019607843137255"/>
<polygon points="269.91967787411886,108.96104622358783 256.33490543010896,97.1519837017587 272.08032212588114,79.03895377641217 285.66509456989104,90.8480162982413" id="27" fill="rgb(207,199,197)" fill-opacity="0.5019607843137255"/>
<polygon points="68.0,51.0 0.0,51.0 0.0,3.552713678800501e-15 68.0,-3.552713678800501e-15" id="28" fill="rgb(70,63,34)" fill-opacity="0.5019607843137255"/>
<polygon points="183.9844345744529,267.20555294843047 159.53074455610778,262.00776067798654 167.0155654255471,226.7944470515695 191.46925544389222,231.9922393220135" id="29" fill="rgb(194,189,177)" fill-opacity="0.5019607843137255"/>
<polygon points="13.145199831708563,39.74698837733449 50.23255401438006,24.762724640697996 52.85480016829143,31.253011622665507 15.767445985619947,46.237275359302004" id="30" fill="rgb(234,133,147)" fill-opacity="0.5019607843137255"/>
<polygon points="101.85498794734065,194.1288531526691 73.96153640077176,191.6884923557347 78.14501205265935,143.8711468473309 106.03846359922824,146.3115076442653" id="31" fill="rgb(0,0,6)" fill-opacity="0.5019607843137255"/>
<polygon points="114.17625511173236,43.729143546704236 145.0342779370084,62.27051424346619 137.82374488826764,74.27085645329576 106.9657220629916,55.72948575653381" id="32" fill="rgb(42,30,41)" fill-opacity="0.5019607843137255"/>
<polygon points="112.3983232785103,268.615517774461 109.47395957204006,281.2823286166691 66.6016767214897,271.384482225539 69.52604042795994,258.7176713833309" id="33" fill="rgb(68,58,58)" fill-opacity="0.5019607843137255"/>
<polygon points="143.9839575366703,191.73809815483088 152.2264203762122,213.2104479642665 113.01604246332971,228.26190184516912 104.77357962378781,206.7895520357335" id="34" fill="rgb(0,0,0)" fill-opacity="0.5019607843137255"/>
<polygon points="242.3432157175556,-0.32862577785801506 280.33742813349846,0.3345656667587562 279.6567842824444,39.328625777858015 241.66257186650154,38.665434333241244" id="35" fill="rgb(170,170,169)" fill-opacity="0.5019607843137255"/>
<polygon points="207.0047638612184,18.97133238000857 155.6477119812801,35.65825007625573 146.9952361387816,9.028667619991433 198.3522880187199,-7.658250076255733" id="36" fill="rgb(172,171,157)" fill-opacity="0.5019607843137255"/>
<polygon points="298.0247509969241,177.4636522794878 278.57431662407225,197.60516668897003 233.97524900307585,154.5363477205122 253.42568337592778,134.39483331102997" id="37" fill="rgb(175,174,173)" fill-opacity="0.5019607843137255"/>
<polygon points="218.590218714125,274.88164929197654 262.32120407109477,250.6411682796597 291.409781285875,303.11835070802346 247.6787959289052,327.3588317203403" id="38" fill="rgb(149,151,152)" fill-opacity="0.5019607843137255"/>
<polygon points="155.72760086198753,106.73976820029574 200.661680638254,212.59782634732636 147.27239913801247,235.26023179970426 102.33831936174599,129.40217365267364" id="39" fill="rgb(0,0,17)" fill-opacity="0.5019607843137255"/>
<polygon points="131.25099148230382,87.2433013185457 174.12327433285415,97.14114770967576 170.74900851769618,111.7566986814543 127.87672566714583,101.85885229032424" id="40" fill="rgb(186,182,176)" fill-opacity="0.5019607843137255"/>
<polygon points="0.0,105.0 48.0,105.0 48.0,241.0 0.0,241.0" id="41" fill="rgb(180,176,173)" fill-opacity="0.5019607843137255"/>
<polygon points="280.8314991124035,310.9074220499975 280.1342531704222,318.87697963473147 271.1685008875965,318.0925779500025 271.8657468295778,310.12302036526853" id="42" fill="rgb(223,224,214)" fill-opacity="0.5019607843137255"/>
<polygon points="155.97243186433545,254.80865704891008 142.47243186433545,278.1913429510899 113.02756813566455,261.19134295108995 126.52756813566454,237.80865704891008" id="43" fill="rgb(167,166,164)" fill-opacity="0.5019607843137255"/>
<polygon points="91.29333440361683,53.521780035804284 107.50992860426848,77.56386963990049 101.70666559638317,81.47821996419572 85.49007139573152,57.43613036009951" id="44" fill="rgb(114,103,119)" fill-opacity="0.5019607843137255"/>
<polygon points="70.43645215786425,199.23923578426127 81.13489880571149,186.02775443949278 100.56354784213575,201.76076421573873 89.86510119428851,214.97224556050722" id="45" fill="rgb(211,214,215)" fill-opacity="0.5019607843137255"/>
<polygon points="159.5210839896575,278.31093880177497 161.0839175886599,287.1742085788848 135.4789160103425,291.68906119822503 133.9160824113401,282.8257914211152" id="46" fill="rgb(50,44,47)" fill-opacity="0.5019607843137255"/>
<polygon points="266.3841614584996,103.76360173252932 272.32932006231874,109.11664658340018 259.6158385415004,123.23639826747068 253.67067993768126,117.88335341659982" id="47" fill="rgb(221,215,198)" fill-opacity="0.5019607843137255"/>
<polygon points="63.84843143766814,31.773072513769065 83.3573635602131,55.86459731893516 63.15156856233186,72.22692748623093 43.6426364397869,48.13540268106484" id="48" fill="rgb(2,0,13)" fill-opacity="0.5019607843137255"/>
<polygon points="209.13070301461346,198.78711992312097 221.0412568343093,197.3246878022592 222.86929698538654,212.21288007687903 210.9587431656907,213.6753121977408" id="49" fill="rgb(218,223,227)" fill-opacity="0.5019607843137255"/>
<polygon points="140.27647979151783,207.62389927474428 168.26206696467986,225.11123499444005 158.72352020848217,240.37610072525572 130.73793303532014,222.88876500555995" id="50" fill="rgb(0,0,0)" fill-opacity="0.5019607843137255"/>
<polygon points="194.4387123191065,159.80028192869858 214.81587098512134,142.0866881459549 230.5612876808935,160.19971807130142 210.18412901487866,177.9133118540451" id="51" fill="rgb(0,0,0)" fill-opacity="0.5019607843137255"/>
<polygon points="49.32592880090452,35.25825945004514 50.63432770697812,60.22399781890949 21.67407119909548,61.74174054995486 20.36567229302188,36.77600218109051" id="52" fill="rgb(123,57,65)" fill-opacity="0.5019607843137255"/>
<polygon points="224.90860009619823,284.41960466337144 218.84457826822427,305.5673619740145 163.09139990380177,289.58039533662856 169.15542173177573,268.4326380259855" id="53" fill="rgb(126,126,124)" fill-opacity="0.5019607843137255"/>
<polygon points="260.68996068787624,92.34853564551007 259.3292258255597,66.38416774189115 266.3196325688417,66.01781604819054 267.6803674311583,91.98218395180946" id="54" fill="rgb(189,187,180)" fill-opacity="0.5019607843137255"/>
<polygon points="59.01510919981296,-24.561498363860252 124.41185384182364,34.32199499571927 98.98489080018703,62.56149836386025 33.58814615817635,3.6780050042807275" id="55" fill="rgb(84,108,60)" fill-opacity="0.5019607843137255"/>
<polygon points="143.54333843881557,66.60997418079879 140.7275180680914,48.831584050086306 162.45666156118443,45.39002581920122 165.2724819319086,63.168415949913694" id="56" fill="rgb(58,43,50)" fill-opacity="0.5019607843137255"/>
<polygon points="146.0524188314426,59.25946048141595 156.87017190618386,23.876184510783638 198.9475811685574,36.74053951858405 188.12982809381614,72.12381548921635" id="57" fill="rgb(100,93,77)" fill-opacity="0.5019607843137255"/>
<polygon points="161.1298333031084,36.5006605658157 128.44693564120558,45.87233066359369 116.87016669689159,5.4993394341843 149.55306435879442,-3.8723306635936865" id="58" fill="rgb(128,138,102)" fill-opacity="0.5019607843137255"/>
<polygon points="118.2954883238082,230.27330324250602 108.76168782927773,248.98444025046174 84.7045116761918,236.72669675749398 94.23831217072227,218.01555974953826" id="59" fill="rgb(189,178,179)" fill-opacity="0.5019607843137255"/>
<polygon points="227.915787337712,62.18032572121606 206.3813778534831,39.88079191071788 225.084212662288,21.819674278783943 246.6186221465169,44.11920808928212" id="60" fill="rgb(125,122,115)" fill-opacity="0.5019607843137255"/>
<polygon points="12.346271585545779,109.11977167264624 0.8368347801273615,98.00523774530228 37.65372841445422,59.88022832735377 49.16316521987264,70.99476225469772" id="61" fill="rgb(107,96,80)" fill-opacity="0.5019607843137255"/>
<polygon points="288.64678520070134,201.1118103920726 285.24494804491,266.0227301511199 206.35321479929866,261.88818960792736 209.75505195509,196.97726984888007" id="62" fill="rgb(174,173,172)" fill-opacity="0.5019607843137255"/>
<polygon points="159.91517484531133,85.2800000272146 191.91030109031584,84.72152302122149 192.08482515468867,94.7199999727854 160.08969890968416,95.27847697877851" id="63" fill="rgb(197,193,182)" fill-opacity="0.5019607843137255"/>
<polygon points="6.760760536204089,146.0917385679243 15.7089666838717,125.99373849978709 31.23923946379591,132.9082614320757 22.2910333161283,153.0062615002129" id="64" fill="rgb(133,132,130)" fill-opacity="0.5019607843137255"/>
<polygon points="209.9696632698921,148.20370979931764 206.31358296773766,118.42732525007797 244.0303367301079,113.79629020068236 247.68641703226234,143.57267474992204" id="65" fill="rgb(1,9,21)" fill-opacity="0.5019607843137255"/>
<polygon points="249.07290075826057,213.51301540904302 212.50521567730203,179.4130974059181 260.9270992417394,127.48698459095698 297.49478432269797,161.5869025940819" id="66" fill="rgb(167,164,164)" fill-opacity="0.5019607843137255"/>
<polygon points="50.83951363466968,132.95947492313798 52.83464173518933,133.09898787062625 51.16048636533032,157.04052507686202 49.16535826481067,156.90101212937375" id="67" fill="rgb(0,0,0)" fill-opacity="0.5019607843137255"/>
<polygon points="192.46411082709793,97.7938869891428 214.76535335842942,138.026393517555 167.53588917290207,164.2061130108572 145.23464664157058,123.973606482445" id="68" fill="rgb(20,27,42)" fill-opacity="0.5019607843137255"/>
<polygon points="156.76216685866828,270.54134644343907 156.23859466554978,240.54591558874733 161.23783314133172,240.45865355656093 161.76140533445022,270.45408441125267" id="69" fill="rgb(56,49,53)" fill-opacity="0.5019607843137255"/>
<polygon points="111.85422198885139,275.1892106667534 114.01667267491929,306.11369622480794 61.14577801114861,309.8107893332466 58.98332732508071,278.88630377519206" id="70" fill="rgb(157,161,164)" fill-opacity="0.5019607843137255"/>
<polygon points="105.6475352638909,207.7376074858337 90.61843703625446,180.62439656451244 127.3524647361091,160.2623925141663 142.38156296374552,187.37560343548756" id="71" fill="rgb(0,0,3)" fill-opacity="0.5019607843137255"/>
<polygon points="248.41898033407105,94.28659436778634 231.42933627474642,93.69330292384382 232.58101966592895,60.713405632213664 249.57066372525358,61.306697076156176" id="72" fill="rgb(0,8,24)" fill-opacity="0.5019607843137255"/>
<polygon points="190.4781267470703,247.4197230871226 178.26516216302605,232.86487866786203 190.5218732529297,222.5802769128774 202.73483783697395,237.13512133213797" id="73" fill="rgb(214,206,192)" fill-opacity="0.5019607843137255"/>
<polygon points="36.337049096097736,186.01471862576145 54.014718625761425,168.33704909609776 88.66295090390227,202.98528137423855 70.98528137423858,220.66295090390224" id="74" fill="rgb(193,194,191)" fill-opacity="0.5019607843137255"/>
<polygon points="118.17186505452018,70.5343742594213 168.3970604581428,61.6783171984078 170.82813494547983,75.4656257405787 120.60293954185721,84.3216828015922" id="75" fill="rgb(138,127,107)" fill-opacity="0.5019607843137255"/>
<polygon points="109.32114191017536,267.24485917985095 103.71965935119213,265.09465148257914 112.67885808982464,241.75514082014908 118.28034064880787,243.9053485174209" id="76" fill="rgb(52,36,32)" fill-opacity="0.5019607843137255"/>
<polygon points="165.0,247.0 191.0,247.0 191.0,276.0 165.0,276.0" id="77" fill="rgb(152,154,149)" fill-opacity="0.5019607843137255"/>
<polygon points="178.07430089640368,226.88393401229547 168.08650990213366,207.2817904801514 193.92569910359632,194.11606598770453 203.91349009786634,213.7182095198486" id="78" fill="rgb(1,1,3)" fill-opacity="0.5019607843137255"/>
<polygon points="51.12435565298214,274.33974596215563 41.124355652982146,291.66025403784437 16.87564434701786,277.66025403784437 26.875644347017854,260.33974596215563" id="79" fill="rgb(198,199,199)" fill-opacity="0.5019607843137255"/>
<polygon points="169.70101012677668,40.721825406947985 181.72182540694797,28.701010126776673 209.29898987322332,56.278174593052015 197.27817459305203,68.29898987322332" id="80" fill="rgb(127,122,106)" fill-opacity="0.5019607843137255"/>
<polygon points="251.60284932690797,121.27633629730622 234.58351496612028,115.41610951707739 242.39715067309203,92.72366370269378 259.4164850338797,98.58389048292261" id="81" fill="rgb(0,9,23)" fill-opacity="0.5019607843137255"/>
<polygon points="126.40957076520098,230.7702644942362 131.8259059735694,223.58254490381057 152.59042923479902,239.2297355057638 147.1740940264306,246.41745509618943" id="82" fill="rgb(202,198,188)" fill-opacity="0.5019607843137255"/>
<polygon points="119.16682905800333,100.12073123756396 165.30739046304262,113.35132431677992 154.83317094199668,149.87926876243603 108.69260953695736,136.6486756832201" id="83" fill="rgb(25,33,49)" fill-opacity="0.5019607843137255"/>
<polygon points="256.911706185258,79.22242489806052 256.1266668416139,64.24298187674192 284.088293814742,62.777575101939476 284.8733331583861,77.75701812325808" id="84" fill="rgb(183,180,171)" fill-opacity="0.5019607843137255"/>
<polygon points="196.3680937362322,244.04108303295925 187.66939585356704,253.70196576416538 164.6319062637678,232.95891696704075 173.33060414643296,223.29803423583462" id="85" fill="rgb(189,184,176)" fill-opacity="0.5019607843137255"/>
<polygon points="81.06061555397795,166.53814660795285 70.14864179297798,178.23980583385958 48.93938444602204,158.46185339204715 59.85135820702202,146.76019416614042" id="86" fill="rgb(0,0,12)" fill-opacity="0.5019607843137255"/>
<polygon points="119.80162296614003,78.23201002866651 77.73273925864277,47.667176909457915 84.19837703385997,38.76798997133349 126.26726074135723,69.33282309054209" id="87" fill="rgb(84,68,88)" fill-opacity="0.5019607843137255"/>
<polygon points="28.359350907700392,310.5871997141335 27.661360973650357,290.59938317375156 61.64064909229961,289.4128002858665 62.33863902634964,309.40061682624844" id="88" fill="rgb(149,149,143)" fill-opacity="0.5019607843137255"/>
<polygon points="27.242353727155056,38.22901355149521 26.753686346911117,66.22474901587417 0.7576462728449442,65.7709864485048 1.2463136530888832,37.77525098412583" id="89" fill="rgb(93,89,82)" fill-opacity="0.5019607843137255"/>
<polygon points="7.207380412892021,300.97245828300714 19.02754171699285,310.207380412892 9.792619587107978,322.02754171699286 -2.0275417169928502,312.792619587108" id="90" fill="rgb(200,203,204)" fill-opacity="0.5019607843137255"/>
<polygon points="163.9901572432694,150.3002451374884 214.36226261362145,158.27840285454016 207.0098427567306,204.6997548625116 156.63773738637855,196.72159714545984" id="91" fill="rgb(2,4,13)" fill-opacity="0.5019607843137255"/>
<polygon points="212.7104950065411,97.08322027876213 193.85211812535596,94.76770275406432 196.2895049934589,74.91677972123787 215.14788187464404,77.23229724593568" id="92" fill="rgb(0,0,10)" fill-opacity="0.5019607843137255"/>
<polygon points="179.91316158936218,82.58020453629719 124.33057709744813,89.40488776698545 124.20870775404299,88.41234161534413 179.791292245957,81.58765838465587" id="93" fill="rgb(35,29,26)" fill-opacity="0.5019607843137255"/>
<polygon points="40.0,225.0 40.0,241.0 6.0,241.0 6.0,225.0" id="94" fill="rgb(199,201,201)" fill-opacity="0.5019607843137255"/>
<polygon points="252.5459625124116,178.15929145558118 256.200144342982,176.532344883278 259.4540374875884,183.84070854441882 255.79985565701799,185.467655116722" id="95" fill="rgb(54,45,47)" fill-opacity="0.5019607843137255"/>
<polygon points="64.45265020625047,33.61047159790546 41.04933175443701,55.434419119905414 33.54734979374953,47.38952840209454 56.95066824556299,25.565580880094586" id="96" fill="rgb(55,22,37)" fill-opacity="0.5019607843137255"/>
<polygon points="110.56569555687787,130.9158192760196 106.48908548943939,92.12946535665694 116.43430444312213,91.08418072398041 120.51091451056061,129.87053464334306" id="97" fill="rgb(19,27,45)" fill-opacity="0.5019607843137255"/>
<polygon points="90.91079511198168,141.71176798022054 162.04416061141728,162.10893231067848 149.08920488801832,207.28823201977946 77.95583938858272,186.89106768932152" id="98" fill="rgb(2,7,17)" fill-opacity="0.5019607843137255"/>
<polygon points="259.6548518121876,38.34283394076985 203.07972116863223,31.396281366676426 207.3451481878124,-3.3428339407698466 263.92027883136774,3.6037186333235756" id="99" fill="rgb(157,157,153)" fill-opacity="0.5019607843137255"/>
<polygon points="74.52967450001138,181.08518757987332 68.71195905705534,191.5806240655461 49.470325499988625,180.91481242012668 55.28804094294467,170.4193759344539" id="100" fill="rgb(180,181,179)" fill-opacity="0.5019607843137255"/>
<polygon points="45.02545779712837,61.01680939939036 73.8092961947267,57.48259844064106 81.97454220287163,123.98319060060965 53.190703805273294,127.51740155935894" id="101" fill="rgb(0,4,13)" fill-opacity="0.5019607843137255"/>
<polygon points="158.982095520173,89.47422738849124 177.52577261150876,81.982095520173 185.017904479827,100.52577261150876 166.47422738849124,108.017904479827" id="102" fill="rgb(172,167,160)" fill-opacity="0.5019607843137255"/>
<polygon points="49.522562427003535,278.5544430232828 30.6149872373964,244.44427444484634 59.477437572996465,228.44555697671723 78.3850127626036,262.5557255551537" id="103" fill="rgb(161,162,160)" fill-opacity="0.5019607843137255"/>
<polygon points="-4.755134732761842,172.92819627744473 4.957288788686354,167.76400908679994 15.755134732761842,188.07180372255527 6.042711211313646,193.23599091320006" id="104" fill="rgb(193,189,185)" fill-opacity="0.5019607843137255"/>
<polygon points="146.84180529404767,88.99380555760565 141.6327148227332,104.12210276719472 115.15819470595231,95.00619444239435 120.36728517726681,79.87789723280528" id="105" fill="rgb(173,172,160)" fill-opacity="0.5019607843137255"/>
<polygon points="46.23537902963791,88.97176527495536 43.23583594416874,89.0241224942672 42.76462097036209,62.02823472504464 45.76416405583126,61.9758775057328" id="106" fill="rgb(147,139,132)" fill-opacity="0.5019607843137255"/>
<polygon points="4.1038575414048,267.96615949262633 3.9468496726759668,264.9702708883626 40.8961424585952,263.03384050737367 41.05315032732403,266.0297291116374" id="107" fill="rgb(109,107,107)" fill-opacity="0.5019607843137255"/>
<polygon points="200.72218767837234,225.39675711338094 228.91296630194958,215.1361528136109 243.27781232162766,254.60324288661906 215.08703369805042,264.8638471863891" id="108" fill="rgb(158,156,155)" fill-opacity="0.5019607843137255"/>
<polygon points="42.7570480413377,249.04713478350374 41.818104915765915,247.28123959778588 61.2429519586623,236.95286521649626 62.181895084234085,238.71876040221412" id="109" fill="rgb(80,78,73)" fill-opacity="0.5019607843137255"/>
<polygon points="150.2721291994187,290.82085899031887 130.18972932419496,296.9606647894963 128.7278708005813,292.17914100968113 148.81027067580504,286.0393352105037" id="110" fill="rgb(81,77,78)" fill-opacity="0.5019607843137255"/>
<polygon points="126.03706441438247,16.986827425068313 116.3341071516225,14.567608469071637 119.96293558561753,0.013172574931688885 129.6658928483775,2.4323915309283635" id="111" fill="rgb(63,86,39)" fill-opacity="0.5019607843137255"/>
<polygon points="100.33597319627712,268.4122004910225 89.06865568941575,247.22145826240822 99.66402680372288,241.58779950897753 110.93134431058425,262.77854173759175" id="112" fill="rgb(172,167,164)" fill-opacity="0.5019607843137255"/>
<polygon points="115.0,217.0 121.0,217.0 121.0,240.0 115.0,240.0" id="113" fill="rgb(17,7,5)" fill-opacity="0.5019607843137255"/>
<polygon points="282.3343938406323,299.9878878625604 277.0121121374396,321.3343938406323 255.66560615936768,316.0121121374396 260.9878878625604,294.6656061593677" id="114" fill="rgb(164,164,164)" fill-opacity="0.5019607843137255"/>
<polygon points="49.20139020651252,296.6771600027217 48.14155167804611,294.98106381040884 66.79860979348749,283.3228399972783 67.85844832195389,285.01893618959116" id="115" fill="rgb(80,76,75)" fill-opacity="0.5019607843137255"/>
<polygon points="246.55956579315074,54.80000728410779 251.15583245186463,50.94328162598856 261.44043420684926,63.19999271589221 256.8441675481354,67.05671837401144" id="116" fill="rgb(102,93,69)" fill-opacity="0.5019607843137255"/>
<polygon points="177.2467338019734,317.4223837538618 117.32896171669898,320.56254112843845 116.7532661980266,309.5776162461382 176.67103828330102,306.43745887156155" id="117" fill="rgb(176,180,186)" fill-opacity="0.5019607843137255"/>
<polygon points="240.04105682683618,80.8273609839764 260.84246549002114,87.98986038203385 255.95894317316382,102.1726390160236 235.15753450997883,95.01013961796615" id="118" fill="rgb(0,1,18)" fill-opacity="0.5019607843137255"/>
<polygon points="152.20110067033386,242.24952928900075 152.7944824892015,276.24435092431804 123.79889932966614,276.75047071099925 123.20551751079851,242.75564907568196" id="119" fill="rgb(159,156,153)" fill-opacity="0.5019607843137255"/>
<polygon points="270.4970387100517,287.55650477827527 270.6015671733194,286.561982882907 288.5029612899483,288.44349522172473 288.3984328266806,289.438017117093" id="120" fill="rgb(43,45,47)" fill-opacity="0.5019607843137255"/>
<polygon points="17.46539030917349,202.0836477965032 -8.034609690826528,157.91635220349684 33.534609690826514,133.9163522034968 59.03460969082653,178.08364779650316" id="121" fill="rgb(173,171,170)" fill-opacity="0.5019607843137255"/>
<polygon points="51.307308657655646,26.013560134533215 52.685495436740645,30.81986861422481 27.692691342344354,37.986439865466785 26.314504563259355,33.18013138577519" id="122" fill="rgb(255,151,161)" fill-opacity="0.5019607843137255"/>
<polygon points="258.5311656687638,105.64119907264013 259.2257583794315,109.58043008468897 243.4688343312362,112.35880092735987 242.7742416205685,108.41956991531103" id="123" fill="rgb(6,9,21)" fill-opacity="0.5019607843137255"/>
<polygon points="127.9256212289426,272.5229629737441 67.93475951955912,271.4758185875071 68.00456914530827,267.47642780688153 127.99543085469173,268.52357219311847" id="124" fill="rgb(60,51,54)" fill-opacity="0.5019607843137255"/>
<polygon points="171.07303145626088,291.0221583624257 189.93071207170732,279.6913207144045 206.92696854373912,307.9778416375743 188.06928792829268,319.3086792855955" id="125" fill="rgb(143,143,140)" fill-opacity="0.5019607843137255"/>
<polygon points="93.51313972081441,36.986860279185585 99.01313972081441,46.513139720814415 89.48686027918559,52.013139720814415 83.98686027918559,42.486860279185585" id="126" fill="rgb(137,130,122)" fill-opacity="0.5019607843137255"/>
<polygon points="180.91135254669726,108.42623104073738 183.05712675265795,149.37004196567491 160.08864745330274,150.57376895926262 157.94287324734205,109.62995803432509" id="127" fill="rgb(25,30,44)" fill-opacity="0.5019607843137255"/>
<polygon points="246.0516892572034,196.9791367839128 243.44696659219946,211.7512530790959 210.9483107427966,206.0208632160872 213.55303340780054,191.2487469209041" id="128" fill="rgb(192,196,202)" fill-opacity="0.5019607843137255"/>
<polygon points="107.78697395150873,187.80571470293955 88.05342891500464,194.9881377127786 81.21302604849127,176.19428529706045 100.94657108499536,169.0118622872214" id="129" fill="rgb(2,2,4)" fill-opacity="0.5019607843137255"/>
<polygon points="141.02154212087024,44.02613768534643 123.56890644946083,67.18656747671791 117.97845787912978,62.97386231465357 135.43109355053917,39.81343252328209" id="130" fill="rgb(53,45,47)" fill-opacity="0.5019607843137255"/>
<polygon points="52.34008199601375,123.25601347310727 32.13428699813252,139.61834364040305 17.65991800398625,121.74398652689273 37.86571300186748,105.38165635959695" id="131" fill="rgb(168,162,156)" fill-opacity="0.5019607843137255"/>
<polygon points="18.0,214.0 81.0,214.0 81.0,222.0 18.0,222.0" id="132" fill="rgb(202,195,181)" fill-opacity="0.5019607843137255"/>
<polygon points="94.93261433262457,281.3628986420449 75.21776641647598,293.2087743649762 70.06738566737543,284.6371013579551 89.78223358352402,272.7912256350238" id="133" fill="rgb(188,188,185)" fill-opacity="0.5019607843137255"/>
<polygon points="105.07147408042908,317.5311843457135 102.80734533976077,315.56300725874195 115.92852591957092,300.4688156542865 118.19265466023923,302.43699274125805" id="134" fill="rgb(72,74,79)" fill-opacity="0.5019607843137255"/>
<polygon points="56.222945281886986,40.60973802520457 49.60298002721446,31.824747414684346 64.77705471811302,20.39026197479543 71.39701997278554,29.175252585315654" id="135" fill="rgb(25,36,39)" fill-opacity="0.5019607843137255"/>
<polygon points="266.67442935245515,60.27871047031849 267.021725707789,62.248325976342905 247.32557064754485,65.72128952968151 246.97827429221098,63.751674023657095" id="136" fill="rgb(85,76,66)" fill-opacity="0.5019607843137255"/>
<polygon points="104.04518994728352,210.4484814013523 117.21091443973037,236.28767060281496 102.95481005271648,243.5515185986477 89.78908556026963,217.71232939718504" id="137" fill="rgb(171,169,169)" fill-opacity="0.5019607843137255"/>
<polygon points="119.0,282.0 119.0,279.0 140.0,279.0 140.0,282.0" id="138" fill="rgb(44,32,37)" fill-opacity="0.5019607843137255"/>
<polygon points="232.11403613635238,252.42938309201452 208.63849371874105,247.43950251238832 209.26222879119433,244.50505971018688 232.73777120880567,249.49494028981312" id="139" fill="rgb(119,118,120)" fill-opacity="0.5019607843137255"/>
<polygon points="263.0,161.0 280.0,161.0 280.0,175.0 263.0,175.0" id="140" fill="rgb(194,198,198)" fill-opacity="0.5019607843137255"/>
<polygon points="175.6709080728057,219.0141503798536 151.5793832676396,238.52308250239855 133.3290919271943,215.9858496201464 157.4206167323604,196.47691749760145" id="141" fill="rgb(1,4,8)" fill-opacity="0.5019607843137255"/>
<polygon points="231.72024807890145,151.85769092472802 234.17770421176843,153.57842023378115 223.27975192109855,169.14230907527198 220.82229578823157,167.42157976621885" id="142" fill="rgb(0,0,9)" fill-opacity="0.5019607843137255"/>
<polygon points="49.9625181270661,152.5753371350554 66.08907585660458,110.56421794268132 123.03748187293391,132.4246628649446 106.91092414339542,174.43578205731868" id="143" fill="rgb(9,19,36)" fill-opacity="0.5019607843137255"/>
<polygon points="78.43958179633267,295.61227965873917 124.18758898327324,300.4205889690512 123.87400359347029,303.40415465515605 78.12599640652971,298.59584534484395" id="144" fill="rgb(91,94,96)" fill-opacity="0.5019607843137255"/>
<polygon points="10.192260998326153,270.5889208091981 9.647621963311126,269.7502502412527 34.807739001673845,253.41107919080187 35.352378036688876,254.2497497587473" id="145" fill="rgb(67,64,63)" fill-opacity="0.5019607843137255"/>
<polygon points="39.882243342596055,11.67035815614884 68.02081940459996,18.686093128539202 65.11775665740394,30.32964184385116 36.979180595400045,23.313906871460798" id="146" fill="rgb(49,73,42)" fill-opacity="0.5019607843137255"/>
<polygon points="5.870190034475414,102.53192038604207 13.584695740794423,97.89657771185159 15.129809965524586,100.46807961395793 7.415304259205577,105.10342228814841" id="147" fill="rgb(34,25,25)" fill-opacity="0.5019607843137255"/>
<polygon points="187.90550497010742,10.87799310078651 151.20032357112282,20.71311681468231 148.09449502989258,9.12200689921349 184.79967642887718,-0.7131168146823086" id="148" fill="rgb(170,171,165)" fill-opacity="0.5019607843137255"/>
<polygon points="196.1934156953656,69.22827199144919 231.00168203325515,72.88676820581706 228.8065843046344,93.77172800855081 193.99831796674485,90.11323179418294" id="149" fill="rgb(6,15,27)" fill-opacity="0.5019607843137255"/>
<polygon points="196.14370239507397,245.95567419383448 202.0039291753028,262.9750085546222 169.85629760492603,274.0443258061655 163.9960708246972,257.0249914453778" id="150" fill="rgb(154,155,151)" fill-opacity="0.5019607843137255"/>
<polygon points="240.5981525237608,37.15504172831333 241.80776200175913,42.00652035969331 222.4018474762392,46.84495827168667 221.19223799824087,41.99347964030669" id="151" fill="rgb(68,64,59)" fill-opacity="0.5019607843137255"/>
<polygon points="137.81629792213326,-9.920124063237502 163.41367747880423,13.949818538949945 153.18370207786674,24.920124063237502 127.58632252119577,1.0501814610500562" id="152" fill="rgb(142,149,130)" fill-opacity="0.5019607843137255"/>
<polygon points="290.626749033372,247.76000503888153 279.4458518927099,256.1854153630102 255.37325096662798,224.23999496111847 266.5541481072901,215.81458463698982" id="153" fill="rgb(187,192,191)" fill-opacity="0.5019607843137255"/>
<polygon points="108.62408641665316,215.20544444067187 122.00069327524625,203.16109352621243 133.37591358334683,215.79455555932813 119.99930672475375,227.83890647378757" id="154" fill="rgb(3,3,7)" fill-opacity="0.5019607843137255"/>
<polygon points="258.50049244615934,200.9867774325898 259.0740688825104,201.80592947687882 234.49950755384066,219.0132225674102 233.9259311174896,218.19407052312118" id="155" fill="rgb(95,96,94)" fill-opacity="0.5019607843137255"/>
<polygon points="110.51687725457083,34.65858217102993 127.56264957105255,58.1200750079034 102.48312274542917,76.34141782897007 85.43735042894745,52.8799249920966" id="156" fill="rgb(65,60,59)" fill-opacity="0.5019607843137255"/>
<polygon points="32.69286914885797,197.03445300724712 8.784196394656078,194.94271518130333 9.307130851142027,188.96554699275288 33.21580360534392,191.05728481869667" id="157" fill="rgb(212,209,194)" fill-opacity="0.5019607843137255"/>
<polygon points="191.4908520130038,226.02909264596266 211.6291045265986,201.1604218793396 217.0691262567974,205.56566461668848 196.9308737432026,230.43433538331152" id="158" fill="rgb(194,193,192)" fill-opacity="0.5019607843137255"/>
<polygon points="84.92195883735252,122.46336161518425 96.55064371042523,90.51381250846336 135.07804116264748,104.53663838481575 123.44935628957477,136.48618749153664" id="159" fill="rgb(18,27,42)" fill-opacity="0.5019607843137255"/>
<polygon points="130.4804957632848,281.9799187691296 122.66587319349932,263.5698217000808 147.5195042367152,253.0200812308704 155.33412680650068,271.4301782999192" id="160" fill="rgb(141,138,136)" fill-opacity="0.5019607843137255"/>
<polygon points="169.62218584775908,281.97329817531727 143.84804995109076,292.9137697730169 141.11293205166584,286.47023579884984 166.88706794833416,275.52976420115016" id="161" fill="rgb(70,66,67)" fill-opacity="0.5019607843137255"/>
<polygon points="113.93328511956958,49.448263883989426 50.02094256394871,3.013228952884054 67.06671488043042,-20.448263883989426 130.97905743605128,25.986771047115944" id="162" fill="rgb(91,115,59)" fill-opacity="0.5019607843137255"/>
<polygon points="56.01046191861691,44.62042238905421 54.2569773314606,48.215598574250876 29.98953808138309,36.37957761094579 31.743022668539403,32.784401425749124" id="163" fill="rgb(118,28,38)" fill-opacity="0.5019607843137255"/>
<polygon points="144.33953973041017,128.98330619097146 165.58990790876967,123.289287198716 167.66046026958983,131.01669380902854 146.41009209123033,136.710712801284" id="164" fill="rgb(62,57,59)" fill-opacity="0.5019607843137255"/>
<polygon points="262.53777085203245,179.14063434801656 263.16150592448577,176.20619154581516 294.46222914796755,182.85936565198344 293.83849407551423,185.79380845418484" id="165" fill="rgb(96,94,95)" fill-opacity="0.5019607843137255"/>
<polygon points="127.17372310116345,32.126217221092226 129.33684206178808,38.7836128351583 119.82627689883655,41.873782778907774 117.66315793821192,35.2163871648417" id="166" fill="rgb(177,172,125)" fill-opacity="0.5019607843137255"/>
<polygon points="0.20529282161953688,306.1091561295075 -11.537758151266154,288.69936710585165 20.794707178380463,266.8908438704925 32.537758151266154,284.30063289414835" id="167" fill="rgb(186,185,180)" fill-opacity="0.5019607843137255"/>
<polygon points="68.05891700366608,228.2771827094077 103.68718985172751,212.4144536294515 105.31413642403072,216.0686354600219 69.68586357596928,231.9313645399781" id="168" fill="rgb(124,121,113)" fill-opacity="0.5019607843137255"/>
<polygon points="146.70366423197677,235.18838449823212 145.0697471269317,237.7043962020684 128.29633576802323,226.81161550176788 129.9302528730683,224.2956037979316" id="169" fill="rgb(184,184,177)" fill-opacity="0.5019607843137255"/>
<polygon points="40.989339472834175,100.61074119229377 6.010660527165825,99.38925880770623 6.010660527165825,99.38925880770623 40.989339472834175,100.61074119229377" id="170" fill="rgb(48,38,35)" fill-opacity="0.5019607843137255"/>
<polygon points="86.90819950843628,66.49978276696822 106.98211769920202,88.79412753129004 95.09180049156372,99.50021723303178 75.01788230079798,77.20587246870996" id="171" fill="rgb(12,25,45)" fill-opacity="0.5019607843137255"/>
<polygon points="253.8670682544659,325.2768900849138 213.7231099150862,309.8670682544659 229.1329317455341,269.7231099150862 269.2768900849138,285.1329317455341" id="172" fill="rgb(150,150,153)" fill-opacity="0.5019607843137255"/>
<polygon points="164.57637107577548,69.87035385666243 182.84034329860353,64.63324409613944 186.42362892422452,77.12964614333757 168.15965670139647,82.36675590386056" id="173" fill="rgb(173,165,147)" fill-opacity="0.5019607843137255"/>
<polygon points="200.99489505362106,76.25959240328703 163.27953382272813,53.597917107244655 171.00510494637894,40.74040759671297 208.72046617727187,63.402082892755345" id="174" fill="rgb(94,87,78)" fill-opacity="0.5019607843137255"/>
<polygon points="33.91212874843915,41.06904810153109 25.91334718718802,40.92942885003282 26.087871251560852,30.930951898468912 34.086652812811984,31.070571149967176" id="175" fill="rgb(222,115,119)" fill-opacity="0.5019607843137255"/>
<polygon points="106.13603896932108,254.60050506338834 122.39949493661166,270.8639610306789 118.86396103067892,274.3994949366117 102.60050506338834,258.1360389693211" id="176" fill="rgb(77,70,72)" fill-opacity="0.5019607843137255"/>
<polygon points="255.92802114081516,256.93852424660855 255.14584881561402,252.00008254363286 261.0719788591848,251.06147575339145 261.854151184386,255.99991745636714" id="177" fill="rgb(108,103,103)" fill-opacity="0.5019607843137255"/>
<polygon points="166.04014949147148,264.2166272707746 177.2431146094379,259.916211876231 177.95985050852852,261.7833727292254 166.7568853905621,266.083788123769" id="178" fill="rgb(91,92,84)" fill-opacity="0.5019607843137255"/>
<polygon points="34.14377463444693,43.89639910359455 26.632229629872683,58.02356058933738 9.856225365553069,49.10360089640545 17.367770370127317,34.97643941066262" id="179" fill="rgb(96,99,93)" fill-opacity="0.5019607843137255"/>
<polygon points="160.134604981648,67.633266649547 150.08560494757938,72.1073697233808 148.865395018352,69.366733350453 158.91439505242062,64.8926302766192" id="180" fill="rgb(210,200,185)" fill-opacity="0.5019607843137255"/>
<polygon points="30.144230888481182,99.64184581814324 36.099507798329114,100.37306187857412 35.85576911151882,102.35815418185676 29.900492201670886,101.62693812142588" id="181" fill="rgb(14,10,11)" fill-opacity="0.5019607843137255"/>
<polygon points="257.93009128567115,117.16822801743402 263.66397847839596,102.23094119347878 286.06990871432885,110.83177198256598 280.33602152160404,125.76905880652122" id="182" fill="rgb(185,181,167)" fill-opacity="0.5019607843137255"/>
<polygon points="157.436679236736,250.70081340985615 156.46638351046002,250.9427353054558 153.563320763264,239.29918659014385 154.53361648953998,239.0572646945442" id="183" fill="rgb(20,11,11)" fill-opacity="0.5019607843137255"/>
<polygon points="149.8749569511543,261.20457269789034 123.80992960847846,248.49180944100712 125.1250430488457,245.79542730210963 151.19007039152154,258.50819055899285" id="184" fill="rgb(186,193,190)" fill-opacity="0.5019607843137255"/>
<polygon points="142.20211902628085,47.775524079927386 156.12542556143669,46.31212559418024 157.79788097371915,62.224475920072614 143.87457443856331,63.68787440581976" id="185" fill="rgb(47,42,43)" fill-opacity="0.5019607843137255"/>
<polygon points="154.3303997275219,25.653566136367942 123.80135938414345,20.2704726286931 124.6696002724781,15.346433863632058 155.19864061585656,20.7295273713069" id="186" fill="rgb(90,91,73)" fill-opacity="0.5019607843137255"/>
<polygon points="194.0,8.0 194.0,13.0 183.0,13.0 183.0,8.0" id="187" fill="rgb(105,106,92)" fill-opacity="0.5019607843137255"/>
<polygon points="65.86584330362807,205.43299576398843 55.87805230935804,185.83085223184432 70.13415669637193,178.56700423601157 80.12194769064196,198.16914776815568" id="188" fill="rgb(186,187,185)" fill-opacity="0.5019607843137255"/>
<polygon points="98.55902378334429,62.16687953246155 117.1438281972866,66.11720165799898 114.44097621665571,78.83312046753845 95.8561718027134,74.88279834200102" id="189" fill="rgb(101,94,94)" fill-opacity="0.5019607843137255"/>
<polygon points="3.8280100813910813,189.25000417981755 1.5912384675080915,185.9338538895974 18.17198991860892,174.74999582018245 20.40876153249191,178.0661461104026" id="190" fill="rgb(115,114,111)" fill-opacity="0.5019607843137255"/>
<polygon points="-1.821890187551693,115.21235874020584 16.0439405419921,113.01871055891317 19.821890187551695,143.78764125979416 1.956059458007898,145.98128944108683" id="191" fill="rgb(153,147,138)" fill-opacity="0.5019607843137255"/>
<polygon points="-4.1245063864687275,11.127510439253523 26.73351643880731,-7.413860257508439 40.124506386468724,14.872489560746477 9.26648356119269,33.41386025750844" id="192" fill="rgb(66,88,58)" fill-opacity="0.5019607843137255"/>
<polygon points="284.77878743224863,32.101850284329345 263.1658571541728,39.968313580819725 252.22121256775137,9.898149715670659 273.8341428458272,2.031686419180275" id="193" fill="rgb(140,139,136)" fill-opacity="0.5019607843137255"/>
<polygon points="138.02832296966557,86.21297981939432 137.40258510950463,82.26222645701377 171.97167703033443,76.78702018060568 172.59741489049537,80.73777354298623" id="194" fill="rgb(202,196,187)" fill-opacity="0.5019607843137255"/>
<polygon points="206.15113117166266,211.80300778412786 214.3229601669745,227.8411252195185 201.84886882833734,234.19699221587214 193.6770398330255,218.1588747804815" id="195" fill="rgb(172,168,165)" fill-opacity="0.5019607843137255"/>
<polygon points="43.6832414328207,124.64514389044737 36.666320519475015,101.69382974733452 44.3167585671793,99.35485610955263 51.333679480524985,122.30617025266548" id="196" fill="rgb(188,184,173)" fill-opacity="0.5019607843137255"/>
<polygon points="199.92157944583332,35.414777245458296 222.4990046651296,31.026170351797767 227.07842055416668,54.585222754541704 204.5009953348704,58.97382964820223" id="197" fill="rgb(142,135,125)" fill-opacity="0.5019607843137255"/>
<polygon points="122.50125798472541,275.72178841834204 127.7383677452484,257.457816195514 158.4987420152746,266.27821158165796 153.26163225475162,284.542183804486" id="198" fill="rgb(132,128,127)" fill-opacity="0.5019607843137255"/>
<polygon points="264.03459235974833,59.421075143018896 255.0838953014339,58.480318973610025 256.02465147084274,49.529621915295564 264.97534852915726,50.470378084704436" id="199" fill="rgb(188,179,153)" fill-opacity="0.5019607843137255"/>
<polygon points="258.0,123.0 280.0,123.0 280.0,158.0 258.0,158.0" id="200" fill="rgb(160,158,152)" fill-opacity="0.5019607843137255"/>
</svg>