<?xml version="1.0" encoding="UTF-8" standalone="no"?>
<!DOCTYPE svg PUBLIC "-//W3C//DTD SVG 1.1//EN" "http://www.w3.org/Graphics/SVG/1.1/DTD/svg11.dtd">
<svg xmlns:xlink="http://www.w3.org/1999/xlink" version="1.1" xmlns="http://www.w3.org/2000/svg"  width="1123" height="1280" viewBox="0 0 281 320">
<rect x="0.0" y="0.0" width="281.0" height="320.0" id="0" fill="rgb(109,109,108)" fill-opacity="1.0" />
<polygon points="236.66185155729593,143.00675694559428 181.3935548492135,242.7134035594854 21.338148442704068,153.99324305440572 76.6064451507865,54.2865964405146" id="1" fill="rgb(0,0,0)" fill-opacity="0.5019607843137255"/>
<polygon points="166.38354820249629,140.46267892735275 207.80013785308483,51.644515797761066 267.6164517975037,79.53732107264725 226.19986214691517,168.35548420223893" id="2" fill="rgb(0,0,0)" fill-opacity="0.5019607843137255"/>
<polygon points="161.65211410927424,229.68721005392123 262.06411348539297,198.98818105803394 293.34788589072576,301.31278994607874 192.93588651460703,332.01181894196606" id="3" fill="rgb(217,217,215)" fill-opacity="0.5019607843137255"/>
<polygon points="118.92839560734377,169.2828002981101 56.273516199142556,175.86809348397227 40.071604392656226,21.71719970188991 102.72648380085744,15.131906516027726" id="4" fill="rgb(0,0,4)" fill-opacity="0.5019607843137255"/>
<polygon points="1.4487678328191436,168.42370018420144 0.5586951045176818,117.43146773122547 49.551232167180856,116.57629981579858 50.44130489548232,167.56853226877453" id="5" fill="rgb(247,239,235)" fill-opacity="0.5019607843137255"/>
<polygon points="49.38057703734077,164.55355220585037 121.65515145283906,223.08034857348525 43.61942296265923,319.44644779414966 -28.655151452839064,260.91965142651475" id="6" fill="rgb(231,227,224)" fill-opacity="0.5019607843137255"/>
<polygon points="184.5793214438338,126.50898671813842 209.13854464054367,206.83858621903337 115.42067855616621,235.49101328186157 90.86145535945631,155.16141378096663" id="7" fill="rgb(0,0,0)" fill-opacity="0.5019607843137255"/>
<polygon points="152.44967320028763,92.95577136594005 143.44967320028763,108.54422863405995 97.55032679971237,82.04422863405995 106.55032679971237,66.45577136594005" id="8" fill="rgb(235,229,210)" fill-opacity="0.5019607843137255"/>
<polygon points="287.53508741004947,232.69156781363478 226.88993616455352,245.58209264433586 210.46491258995053,168.30843218636522 271.11006383544645,155.41790735566414" id="9" fill="rgb(211,210,211)" fill-opacity="0.5019607843137255"/>
<polygon points="159.00299444863208,64.38802934181774 178.25132852285358,100.58888064903374 149.99700555136792,115.61197065818226 130.74867147714642,79.41111935096626" id="10" fill="rgb(204,196,181)" fill-opacity="0.5019607843137255"/>
<polygon points="256.07759923214684,178.24664719195957 232.86454720060567,162.58924589477866 275.92240076785316,98.75335280804043 299.13545279939433,114.41075410522134" id="11" fill="rgb(213,211,204)" fill-opacity="0.5019607843137255"/>
<polygon points="185.0,319.0 0.0,319.0 0.0,286.0 185.0,286.0" id="12" fill="rgb(191,194,197)" fill-opacity="0.5019607843137255"/>
<polygon points="302.428547763285,47.022428249958516 269.0745670376436,88.21116420717797 204.571452236715,35.977571750041484 237.92543296235638,-5.21116420717798" id="13" fill="rgb(183,179,166)" fill-opacity="0.5019607843137255"/>
<polygon points="155.9308361010311,242.7454531067061 137.46099184126135,219.10513049850442 150.0691638989689,209.2545468932939 168.53900815873865,232.89486950149558" id="14" fill="rgb(0,0,0)" fill-opacity="0.5019607843137255"/>
<polygon points="24.785351204387663,149.92439355914513 47.14714548571186,166.77521420740248 3.2146487956123373,225.07560644085487 -19.14714548571186,208.22478579259752" id="15" fill="rgb(226,219,217)" fill-opacity="0.5019607843137255"/>
<polygon points="169.17658786737258,113.61127912617448 223.38072649049406,74.22966722257877 259.8234121326274,124.38872087382552 205.61927350950594,163.77033277742123" id="16" fill="rgb(0,0,4)" fill-opacity="0.5019607843137255"/>
<polygon points="177.51634526571522,48.906307263654085 191.68826168937872,-12.479006817815737 237.48365473428478,-1.9063072636540852 223.31173831062128,59.47900681781574" id="17" fill="rgb(166,162,148)" fill-opacity="0.5019607843137255"/>
<polygon points="113.47803643808572,250.8298082779287 130.36184652355155,224.83102067162054 155.52196356191428,241.1701917220713 138.63815347644845,267.16897932837946" id="18" fill="rgb(220,215,209)" fill-opacity="0.5019607843137255"/>
<polygon points="38.469018234048306,68.20044762320751 74.94667142647012,43.595959870494625 113.5309817659517,100.79955237679249 77.05332857352988,125.40404012950538" id="19" fill="rgb(0,0,15)" fill-opacity="0.5019607843137255"/>
<polygon points="218.58591933696405,179.82144228768547 286.8942668557007,213.13764944365533 265.414080663036,257.17855771231456 197.10573314429925,223.86235055634467" id="20" fill="rgb(182,183,183)" fill-opacity="0.5019607843137255"/>
<polygon points="45.85665793859157,86.25896714049753 48.01910862465947,117.18345269855207 -2.856657938591571,120.74103285950247 -5.019108624659463,89.81654730144793" id="21" fill="rgb(187,177,159)" fill-opacity="0.5019607843137255"/>
<polygon points="95.02697471602696,84.22220851085848 69.37546396660176,13.745261951915374 137.97302528397304,-11.222208510858486 163.62453603339824,59.254738048084626" id="22" fill="rgb(86,98,54)" fill-opacity="0.5019607843137255"/>
<polygon points="195.0,62.0 253.0,62.0 253.0,130.0 195.0,130.0" id="23" fill="rgb(0,0,17)" fill-opacity="0.5019607843137255"/>
<polygon points="171.10774419484775,64.53868703365127 196.91394413752212,67.7072899621851 192.89225580515225,100.46131296634873 167.08605586247788,97.2927100378149" id="24" fill="rgb(194,186,168)" fill-opacity="0.5019607843137255"/>
<polygon points="6.643069868547201,324.6737176669105 -10.251852355797752,218.00337688263562 101.3569301314528,200.32628233308952 118.25185235579775,306.9966231173644" id="25" fill="rgb(168,166,165)" fill-opacity="0.5019607843137255"/>
<polygon points="229.20237612862394,120.60374853129117 219.9727426912503,178.8773606264043 153.79762387137606,168.3962514687088 163.0272573087497,110.12263937359569" id="26" fill="rgb(0,1,19)" fill-opacity="0.5019607843137255"/>
<polygon points="269.91967787411886,108.96104622358783 256.33490543010896,97.1519837017587 272.08032212588114,79.03895377641217 285.66509456989104,90.8480162982413" id="27" fill="rgb(207,199,197)" fill-opacity="0.5019607843137255"/>
<polygon points="68.0,51.0 0.0,51.0 0.0,3.552713678800501e-15 68.0,-3.552713678800501e-15" id="28" fill="rgb(70,63,34)" fill-opacity="0.5019607843137255"/>
<polygon points="183.9844345744529,267.20555294843047 159.53074455610778,262.00776067798654 167.0155654255471,226.7944470515695 191.46925544389222,231.9922393220135" id="29" fill="rgb(194,189,177)" fill-opacity="0.5019607843137255"/>
<polygon points="13.145199831708563,39.74698837733449 50.23255401438006,24.762724640697996 52.85480016829143,31.253011622665507 15.767445985619947,46.237275359302004" id="30" fill="rgb(234,133,147)" fill-opacity="0.5019607843137255"/>
<polygon points="101.85498794734065,194.1288531526691 73.96153640077176,191.6884923557347 78.14501205265935,143.8711468473309 106.03846359922824,146.3115076442653" id="31" fill="rgb(0,0,6)" fill-opacity="0.5019607843137255"/>
<polygon points="114.17625511173236,43.729143546704236 145.0342779370084,62.27051424346619 137.82374488826764,74.27085645329576 106.9657220629916,55.72948575653381" id="32" fill="rgb(42,30,41)" fill-opacity="0.5019607843137255"/>
<polygon points="112.3983232785103,268.615517774461 109.47395957204006,281.2823286166691 66.6016767214897,271.384482225539 69.52604042795994,258.7176713833309" id="33" fill="rgb(68,58,58)" fill-opacity="0.5019607843137255"/>
<polygon points="143.9839575366703,191.73809815483088 152.2264203762122,213.2104479642665 113.01604246332971,228.26190184516912 104.77357962378781,206.7895520357335" id="34" fill="rgb(0,0,0)" fill-opacity="0.5019607843137255"/>
<polygon points="242.3432157175556,-0.32862577785801506 280.33742813349846,0.3345656667587562 279.6567842824444,39.328625777858015 241.66257186650154,38.665434333241244" id="35" fill="rgb(170,170,169)" fill-opacity="0.5019607843137255"/>
<polygon points="207.0047638612184,18.97133238000857 155.6477119812801,35.65825007625573 146.9952361387816,9.028667619991433 198.3522880187199,-7.658250076255733" id="36" fill="rgb(172,171,157)" fill-opacity="0.5019607843137255"/>
<polygon points="298.0247509969241,177.4636522794878 278.57431662407225,197.60516668897003 233.97524900307585,154.5363477205122 253.42568337592778,134.39483331102997" id="37" fill="rgb(175,174,173)" fill-opacity="0.5019607843137255"/>
<polygon points="218.590218714125,274.88164929197654 262.32120407109477,250.6411682796597 291.409781285875,303.11835070802346 247.6787959289052,327.3588317203403" id="38" fill="rgb(149,151,152)" fill-opacity="0.5019607843137255"/>
<polygon points="155.72760086198753,106.73976820029574 200.661680638254,212.59782634732636 147.27239913801247,235.26023179970426 102.33831936174599,129.40217365267364" id="39" fill="rgb(0,0,17)" fill-opacity="0.5019607843137255"/>
<polygon points="131.25099148230382,87.2433013185457 174.12327433285415,97.14114770967576 170.74900851769618,111.7566986814543 127.87672566714583,101.85885229032424" id="40" fill="rgb(186,182,176)" fill-opacity="0.5019607843137255"/>
<polygon points="0.0,105.0 48.0,105.0 48.0,241.0 0.0,241.0" id="41" fill="rgb(180,176,173)" fill-opacity="0.5019607843137255"/>
<polygon points="280.8314991124035,310.9074220499975 280.1342531704222,318.87697963473147 271.1685008875965,318.0925779500025 271.8657468295778,310.12302036526853" id="42" fill="rgb(223,224,214)" fill-opacity="0.5019607843137255"/>
<polygon points="155.97243186433545,254.80865704891008 142.47243186433545,278.1913429510899 113.02756813566455,261.19134295108995 126.52756813566454,237.80865704891008" id="43" fill="rgb(167,166,164)" fill-opacity="0.5019607843137255"/>
<polygon points="91.29333440361683,53.521780035804284 107.50992860426848,77.56386963990049 101.70666559638317,81.47821996419572 85.49007139573152,57.43613036009951" id="44" fill="rgb(114,103,119)" fill-opacity="0.5019607843137255"/>
<polygon points="70.43645215786425,199.23923578426127 81.13489880571149,186.02775443949278 100.56354784213575,201.76076421573873 89.86510119428851,214.97224556050722" id="45" fill="rgb(211,214,215)" fill-opacity="0.5019607843137255"/>
<polygon points="159.5210839896575,278.31093880177497 161.0839175886599,287.1742085788848 135.4789160103425,291.68906119822503 133.9160824113401,282.8257914211152" id="46" fill="rgb(50,44,47)" fill-opacity="0.5019607843137255"/>
<polygon points="266.3841614584996,103.76360173252932 272.32932006231874,109.11664658340018 259.6158385415004,123.23639826747068 253.67067993768126,117.88335341659982" id="47" fill="rgb(221,215,198)" fill-opacity="0.5019607843137255"/>
<polygon points="63.84843143766814,31.773072513769065 83.3573635602131,55.86459731893516 63.15156856233186,72.22692748623093 43.6426364397869,48.13540268106484" id="48" fill="rgb(2,0,13)" fill-opacity="0.5019607843137255"/>
<polygon points="209.13070301461346,198.78711992312097 221.0412568343093,197.3246878022592 222.86929698538654,212.21288007687903 210.9587431656907,213.6753121977408" id="49" fill="rgb(218,223,227)" fill-opacity="0.5019607843137255"/>
<polygon points="140.27647979151783,207.62389927474428 168.26206696467986,225.11123499444005 158.72352020848217,240.37610072525572 130.73793303532014,222.88876500555995" id="50" fill="rgb(0,0,0)" fill-opacity="0.5019607843137255"/>
</svg>