<?xml version="1.0" encoding="UTF-8" standalone="no"?>
<!DOCTYPE svg PUBLIC "-//W3C//DTD SVG 1.1//EN" "http://www.w3.org/Graphics/SVG/1.1/DTD/svg11.dtd">
<svg xmlns:xlink="http://www.w3.org/1999/xlink" version="1.1" xmlns="http://www.w3.org/2000/svg"  width="1123" height="1280" viewBox="0 0 281 320">
<rect x="0.0" y="0.0" width="281.0" height="320.0" id="0" fill="rgb(109,109,108)" fill-opacity="1.0" />
<ellipse cx="143.0" cy="149.0" rx="94.0" ry="64.0" id="1" fill="rgb(0,0,0)" fill-opacity="0.5019607843137255"/>
<g transform="translate(82.0 65.0) rotate(92.0) scale(121.0 34.0)"><ellipse cx="0" cy="0" rx="1" ry="1" id="2" fill="rgb(0,0,0)" fill-opacity="0.5019607843137255" /></g>
<ellipse cx="225.0" cy="102.0" rx="34.0" ry="49.0" id="3" fill="rgb(0,0,0)" fill-opacity="0.5019607843137255"/>
<circle cx="256.0" cy="270.0" r="87.0" id="4" fill="rgb(214,213,213)" fill-opacity="0.5019607843137255"/>
<circle cx="47.0" cy="236.0" r="63.0" id="5" fill="rgb(233,229,226)" fill-opacity="0.5019607843137255"/>
<circle cx="158.0" cy="182.0" r="53.0" id="6" fill="rgb(0,0,0)" fill-opacity="0.5019607843137255"/>
<ellipse cx="253.0" cy="166.0" rx="28.0" ry="24.0" id="7" fill="rgb(217,215,214)" fill-opacity="0.5019607843137255"/>
<g transform="translate(157.0 90.0) rotate(270.0) scale(18.0 37.0)"><ellipse cx="0" cy="0" rx="1" ry="1" id="8" fill="rgb(242,233,216)" fill-opacity="0.5019607843137255" /></g>
<g transform="translate(240.0 27.0) rotate(25.0) scale(145.0 36.0)"><ellipse cx="0" cy="0" rx="1" ry="1" id="9" fill="rgb(181,178,164)" fill-opacity="0.5019607843137255" /></g>
<circle cx="73.0" cy="319.0" r="112.0" id="10" fill="rgb(170,169,169)" fill-opacity="0.5019607843137255"/>
<circle cx="15.0" cy="143.0" r="35.0" id="11" fill="rgb(228,219,215)" fill-opacity="0.5019607843137255"/>
<g transform="translate(269.0 126.0) rotate(187.0) scale(14.0 59.0)"><ellipse cx="0" cy="0" rx="1" ry="1" id="12" fill="rgb(199,196,189)" fill-opacity="0.5019607843137255" /></g>
<circle cx="179.0" cy="241.0" r="18.0" id="13" fill="rgb(211,206,191)" fill-opacity="0.5019607843137255"/>
<circle cx="71.0" cy="80.0" r="26.0" id="14" fill="rgb(0,0,0)" fill-opacity="0.5019607843137255"/>
<circle cx="218.0" cy="117.0" r="37.0" id="15" fill="rgb(0,0,10)" fill-opacity="0.5019607843137255"/>
<circle cx="97.0" cy="166.0" r="29.0" id="16" fill="rgb(0,0,3)" fill-opacity="0.5019607843137255"/>
<g transform="translate(228.0 199.0) rotate(355.0) scale(15.0 32.0)"><ellipse cx="0" cy="0" rx="1" ry="1" id="17" fill="rgb(200,201,202)" fill-opacity="0.5019607843137255" /></g>
<ellipse cx="47.0" cy="11.0" rx="92.0" ry="42.0" id="18" fill="rgb(88,96,50)" fill-opacity="0.5019607843137255"/>
<rect x="197.0" y="61.0" width="55.0" height="60.0" id="19" fill="rgb(0,0,17)" fill-opacity="0.5019607843137255" />
<circle cx="123.0" cy="212.0" r="16.0" id="20" fill="rgb(0,0,0)" fill-opacity="0.5019607843137255"/>
<circle cx="113.0" cy="81.0" r="10.0" id="21" fill="rgb(203,196,173)" fill-opacity="0.5019607843137255"/>
<g transform="translate(133.0 277.0) rotate(279.0) scale(9.0 85.0)"><ellipse cx="0" cy="0" rx="1" ry="1" id="22" fill="rgb(85,80,80)" fill-opacity="0.5019607843137255" /></g>
<ellipse cx="167.0" cy="212.0" rx="33.0" ry="13.0" id="23" fill="rgb(0,0,0)" fill-opacity="0.5019607843137255"/>
<circle cx="21.0" cy="113.0" r="28.0" id="24" fill="rgb(173,165,153)" fill-opacity="0.5019607843137255"/>
<g transform="translate(129.0 50.0) rotate(96.0) scale(33.0 48.0)"><ellipse cx="0" cy="0" rx="1" ry="1" id="25" fill="rgb(98,98,73)" fill-opacity="0.5019607843137255" /></g>
<ellipse cx="11.0" cy="295.0" rx="110.0" ry="27.0" id="26" fill="rgb(179,182,182)" fill-opacity="0.5019607843137255"/>
<circle cx="87.0" cy="0.0" r="29.0" id="27" fill="rgb(104,142,73)" fill-opacity="0.5019607843137255"/>
<ellipse cx="208.0" cy="141.0" rx="28.0" ry="31.0" id="28" fill="rgb(0,0,9)" fill-opacity="0.5019607843137255"/>
<circle cx="30.0" cy="185.0" r="31.0" id="29" fill="rgb(190,186,183)" fill-opacity="0.5019607843137255"/>
<circle cx="152.0" cy="186.0" r="44.0" id="30" fill="rgb(0,0,11)" fill-opacity="0.5019607843137255"/>
<ellipse cx="143.0" cy="319.0" rx="34.0" ry="18.0" id="31" fill="rgb(185,192,198)" fill-opacity="0.5019607843137255"/>
<circle cx="88.0" cy="119.0" r="37.0" id="32" fill="rgb(0,10,33)" fill-opacity="0.5019607843137255"/>
<ellipse cx="15.0" cy="29.0" rx="57.0" ry="35.0" id="33" fill="rgb(80,62,58)" fill-opacity="0.5019607843137255"/>
<circle cx="57.0" cy="51.0" r="20.0" id="34" fill="rgb(14,0,12)" fill-opacity="0.5019607843137255"/>
<circle cx="24.0" cy="48.0" r="27.0" id="35" fill="rgb(128,90,91)" fill-opacity="0.5019607843137255"/>
<ellipse cx="119.0" cy="225.0" rx="6.0" ry="16.0" id="36" fill="rgb(0,0,0)" fill-opacity="0.5019607843137255"/>
<g transform="translate(269.0 237.0) rotate(281.0) scale(29.0 33.0)"><ellipse cx="0" cy="0" rx="1" ry="1" id="37" fill="rgb(191,193,190)" fill-opacity="0.5019607843137255" /></g>
<polygon points="100.08141571295792,82.1602540378444 90.08141571295792,64.83974596215563 129.91858428704208,41.839745962155604 139.91858428704208,59.160254037844375" id="38" fill="rgb(64,57,62)" fill-opacity="0.5019607843137255"/>
<circle cx="267.0" cy="163.0" r="36.0" id="39" fill="rgb(163,161,161)" fill-opacity="0.5019607843137255"/>
<rect x="147.0" y="65.0" width="45.0" height="33.0" id="40" fill="rgb(167,159,147)" fill-opacity="0.5019607843137255" />
<polygon points="134.69078176317532,175.04249890306826 102.06072357091546,133.277928961912 138.30921823682468,104.95750109693174 170.93927642908454,146.722071038088" id="41" fill="rgb(7,16,36)" fill-opacity="0.5019607843137255"/>
<g transform="translate(72.0 201.0) rotate(180.0) scale(29.0 8.0)"><ellipse cx="0" cy="0" rx="1" ry="1" id="42" fill="rgb(211,215,213)" fill-opacity="0.5019607843137255" /></g>
<rect x="70.0" y="267.0" width="38.0" height="7.0" id="43" fill="rgb(52,43,43)" fill-opacity="0.5019607843137255" />
<g transform="translate(188.0 127.0) rotate(80.0) scale(20.0 66.0)"><ellipse cx="0" cy="0" rx="1" ry="1" id="44" fill="rgb(9,17,35)" fill-opacity="0.5019607843137255" /></g>
<g transform="translate(72.0 100.0) rotate(2.0) scale(24.0 32.0)"><ellipse cx="0" cy="0" rx="1" ry="1" id="45" fill="rgb(0,2,15)" fill-opacity="0.5019607843137255" /></g>
<rect x="85.0" y="156.0" width="27.0" height="34.0" id="46" fill="rgb(0,0,6)" fill-opacity="0.5019607843137255" />
<g transform="translate(209.0 296.0) rotate(165.0) scale(82.0 22.0)"><ellipse cx="0" cy="0" rx="1" ry="1" id="47" fill="rgb(146,149,150)" fill-opacity="0.5019607843137255" /></g>
<ellipse cx="177.0" cy="245.0" rx="16.0" ry="21.0" id="48" fill="rgb(173,170,162)" fill-opacity="0.5019607843137255"/>
<rect x="126.0" y="230.0" width="19.0" height="29.0" id="49" fill="rgb(198,194,187)" fill-opacity="0.5019607843137255" />
<circle cx="30.0" cy="36.0" r="7.0" id="50" fill="rgb(239,111,122)" fill-opacity="0.5019607843137255"/>
</svg>