<?xml version="1.0" encoding="UTF-8" standalone="no"?>
<!DOCTYPE svg PUBLIC "-//W3C//DTD SVG 1.1//EN" "http://www.w3.org/Graphics/SVG/1.1/DTD/svg11.dtd">
<svg xmlns:xlink="http://www.w3.org/1999/xlink" version="1.1" xmlns="http://www.w3.org/2000/svg"  width="1123" height="1280" viewBox="0 0 281 320">
<rect x="0.0" y="0.0" width="281.0" height="320.0" id="0" fill="rgb(109,109,108)" fill-opacity="1.0" />
<g transform="translate(132.0 155.0) rotate(212.0) scale(93.0 61.0)"><ellipse cx="0" cy="0" rx="1" ry="1" id="1" fill="rgb(0,0,0)" fill-opacity="0.5019607843137255" /></g>
<g transform="translate(215.0 115.0) rotate(24.0) scale(38.0 61.0)"><ellipse cx="0" cy="0" rx="1" ry="1" id="2" fill="rgb(0,0,0)" fill-opacity="0.5019607843137255" /></g>
<g transform="translate(96.0 124.0) rotate(240.0) scale(131.0 33.0)"><ellipse cx="0" cy="0" rx="1" ry="1" id="3" fill="rgb(0,0,0)" fill-opacity="0.5019607843137255" /></g>
<g transform="translate(232.0 258.0) rotate(300.0) scale(280.0 52.0)"><ellipse cx="0" cy="0" rx="1" ry="1" id="4" fill="rgb(215,214,214)" fill-opacity="0.5019607843137255" /></g>
<g transform="translate(26.0 240.0) rotate(226.0) scale(155.0 76.0)"><ellipse cx="0" cy="0" rx="1" ry="1" id="5" fill="rgb(219,215,214)" fill-opacity="0.5019607843137255" /></g>
<g transform="translate(149.0 91.0) rotate(99.0) scale(16.0 42.0)"><ellipse cx="0" cy="0" rx="1" ry="1" id="6" fill="rgb(227,220,202)" fill-opacity="0.5019607843137255" /></g>
<g transform="translate(23.0 128.0) rotate(182.0) scale(28.0 41.0)"><ellipse cx="0" cy="0" rx="1" ry="1" id="7" fill="rgb(200,192,183)" fill-opacity="0.5019607843137255" /></g>
<g transform="translate(217.0 119.0) rotate(169.0) scale(40.0 35.0)"><ellipse cx="0" cy="0" rx="1" ry="1" id="8" fill="rgb(0,0,4)" fill-opacity="0.5019607843137255" /></g>
<g transform="translate(239.0 18.0) rotate(295.0) scale(43.0 156.0)"><ellipse cx="0" cy="0" rx="1" ry="1" id="9" fill="rgb(181,178,164)" fill-opacity="0.5019607843137255" /></g>
<g transform="translate(130.0 275.0) rotate(84.0) scale(42.0 61.0)"><ellipse cx="0" cy="0" rx="1" ry="1" id="10" fill="rgb(130,129,129)" fill-opacity="0.5019607843137255" /></g>
<g transform="translate(151.0 178.0) rotate(150.0) scale(55.0 52.0)"><ellipse cx="0" cy="0" rx="1" ry="1" id="11" fill="rgb(0,0,5)" fill-opacity="0.5019607843137255" /></g>
<g transform="translate(116.0 58.0) rotate(118.0) scale(20.0 24.0)"><ellipse cx="0" cy="0" rx="1" ry="1" id="12" fill="rgb(52,47,32)" fill-opacity="0.5019607843137255" /></g>
<g transform="translate(187.0 247.0) rotate(219.0) scale(26.0 23.0)"><ellipse cx="0" cy="0" rx="1" ry="1" id="13" fill="rgb(195,191,181)" fill-opacity="0.5019607843137255" /></g>
<g transform="translate(68.0 78.0) rotate(183.0) scale(20.0 62.0)"><ellipse cx="0" cy="0" rx="1" ry="1" id="14" fill="rgb(0,0,8)" fill-opacity="0.5019607843137255" /></g>
<g transform="translate(73.0 151.0) rotate(43.0) scale(23.0 25.0)"><ellipse cx="0" cy="0" rx="1" ry="1" id="15" fill="rgb(0,0,12)" fill-opacity="0.5019607843137255" /></g>
<g transform="translate(46.0 14.0) rotate(266.0) scale(35.0 94.0)"><ellipse cx="0" cy="0" rx="1" ry="1" id="16" fill="rgb(82,92,43)" fill-opacity="0.5019607843137255" /></g>
<g transform="translate(39.0 43.0) rotate(96.0) scale(20.0 16.0)"><ellipse cx="0" cy="0" rx="1" ry="1" id="17" fill="rgb(167,77,98)" fill-opacity="0.5019607843137255" /></g>
<g transform="translate(235.0 93.0) rotate(272.0) scale(33.0 25.0)"><ellipse cx="0" cy="0" rx="1" ry="1" id="18" fill="rgb(0,0,17)" fill-opacity="0.5019607843137255" /></g>
<g transform="translate(245.0 302.0) rotate(85.0) scale(35.0 75.0)"><ellipse cx="0" cy="0" rx="1" ry="1" id="19" fill="rgb(148,149,151)" fill-opacity="0.5019607843137255" /></g>
<g transform="translate(113.0 250.0) rotate(110.0) scale(35.0 4.0)"><ellipse cx="0" cy="0" rx="1" ry="1" id="20" fill="rgb(32,19,15)" fill-opacity="0.5019607843137255" /></g>
<g transform="translate(76.0 210.0) rotate(178.0) scale(30.0 17.0)"><ellipse cx="0" cy="0" rx="1" ry="1" id="21" fill="rgb(204,205,199)" fill-opacity="0.5019607843137255" /></g>
<g transform="translate(273.0 85.0) rotate(289.0) scale(43.0 10.0)"><ellipse cx="0" cy="0" rx="1" ry="1" id="22" fill="rgb(188,182,172)" fill-opacity="0.5019607843137255" /></g>
<g transform="translate(22.0 82.0) rotate(27.0) scale(27.0 27.0)"><ellipse cx="0" cy="0" rx="1" ry="1" id="23" fill="rgb(124,113,98)" fill-opacity="0.5019607843137255" /></g>
<g transform="translate(140.0 241.0) rotate(47.0) scale(19.0 10.0)"><ellipse cx="0" cy="0" rx="1" ry="1" id="24" fill="rgb(224,218,208)" fill-opacity="0.5019607843137255" /></g>
<g transform="translate(181.0 80.0) rotate(58.0) scale(19.0 9.0)"><ellipse cx="0" cy="0" rx="1" ry="1" id="25" fill="rgb(197,189,169)" fill-opacity="0.5019607843137255" /></g>
<g transform="translate(207.0 145.0) rotate(68.0) scale(29.0 26.0)"><ellipse cx="0" cy="0" rx="1" ry="1" id="26" fill="rgb(0,0,9)" fill-opacity="0.5019607843137255" /></g>
<g transform="translate(145.0 55.0) rotate(350.0) scale(32.0 10.0)"><ellipse cx="0" cy="0" rx="1" ry="1" id="27" fill="rgb(53,46,38)" fill-opacity="0.5019607843137255" /></g>
<g transform="translate(98.0 185.0) rotate(120.0) scale(9.0 55.0)"><ellipse cx="0" cy="0" rx="1" ry="1" id="28" fill="rgb(0,0,0)" fill-opacity="0.5019607843137255" /></g>
<g transform="translate(127.0 280.0) rotate(101.0) scale(6.0 62.0)"><ellipse cx="0" cy="0" rx="1" ry="1" id="29" fill="rgb(72,67,70)" fill-opacity="0.5019607843137255" /></g>
<g transform="translate(243.0 218.0) rotate(120.0) scale(25.0 39.0)"><ellipse cx="0" cy="0" rx="1" ry="1" id="30" fill="rgb(194,196,198)" fill-opacity="0.5019607843137255" /></g>
<g transform="translate(15.0 235.0) rotate(10.0) scale(46.0 88.0)"><ellipse cx="0" cy="0" rx="1" ry="1" id="31" fill="rgb(184,182,179)" fill-opacity="0.5019607843137255" /></g>
<g transform="translate(199.0 201.0) rotate(114.0) scale(18.0 8.0)"><ellipse cx="0" cy="0" rx="1" ry="1" id="32" fill="rgb(0,0,0)" fill-opacity="0.5019607843137255" /></g>
<g transform="translate(57.0 51.0) rotate(70.0) scale(21.0 17.0)"><ellipse cx="0" cy="0" rx="1" ry="1" id="33" fill="rgb(14,0,16)" fill-opacity="0.5019607843137255" /></g>
<g transform="translate(218.0 78.0) rotate(243.0) scale(13.0 27.0)"><ellipse cx="0" cy="0" rx="1" ry="1" id="34" fill="rgb(0,0,18)" fill-opacity="0.5019607843137255" /></g>
<g transform="translate(280.0 308.0) rotate(299.0) scale(21.0 17.0)"><ellipse cx="0" cy="0" rx="1" ry="1" id="35" fill="rgb(184,186,183)" fill-opacity="0.5019607843137255" /></g>
<g transform="translate(190.0 281.0) rotate(166.0) scale(27.0 31.0)"><ellipse cx="0" cy="0" rx="1" ry="1" id="36" fill="rgb(140,142,140)" fill-opacity="0.5019607843137255" /></g>
<g transform="translate(95.0 62.0) rotate(56.0) scale(44.0 6.0)"><ellipse cx="0" cy="0" rx="1" ry="1" id="37" fill="rgb(115,110,108)" fill-opacity="0.5019607843137255" /></g>
<g transform="translate(20.0 147.0) rotate(282.0) scale(45.0 29.0)"><ellipse cx="0" cy="0" rx="1" ry="1" id="38" fill="rgb(172,167,166)" fill-opacity="0.5019607843137255" /></g>
<g transform="translate(173.0 183.0) rotate(97.0) scale(43.0 38.0)"><ellipse cx="0" cy="0" rx="1" ry="1" id="39" fill="rgb(0,1,14)" fill-opacity="0.5019607843137255" /></g>
<g transform="translate(146.0 101.0) rotate(14.0) scale(23.0 6.0)"><ellipse cx="0" cy="0" rx="1" ry="1" id="40" fill="rgb(197,193,188)" fill-opacity="0.5019607843137255" /></g>
<g transform="translate(134.0 248.0) rotate(6.0) scale(15.0 20.0)"><ellipse cx="0" cy="0" rx="1" ry="1" id="41" fill="rgb(179,176,172)" fill-opacity="0.5019607843137255" /></g>
<g transform="translate(155.0 230.0) rotate(166.0) scale(6.0 22.0)"><ellipse cx="0" cy="0" rx="1" ry="1" id="42" fill="rgb(0,0,0)" fill-opacity="0.5019607843137255" /></g>
<g transform="translate(130.0 132.0) rotate(83.0) scale(21.0 81.0)"><ellipse cx="0" cy="0" rx="1" ry="1" id="43" fill="rgb(14,25,47)" fill-opacity="0.5019607843137255" /></g>
<g transform="translate(77.0 88.0) rotate(247.0) scale(43.0 21.0)"><ellipse cx="0" cy="0" rx="1" ry="1" id="44" fill="rgb(0,4,20)" fill-opacity="0.5019607843137255" /></g>
<g transform="translate(127.0 78.0) rotate(358.0) scale(28.0 11.0)"><ellipse cx="0" cy="0" rx="1" ry="1" id="45" fill="rgb(145,139,123)" fill-opacity="0.5019607843137255" /></g>
<g transform="translate(154.0 280.0) rotate(360.0) scale(31.0 5.0)"><ellipse cx="0" cy="0" rx="1" ry="1" id="46" fill="rgb(82,77,77)" fill-opacity="0.5019607843137255" /></g>
<g transform="translate(172.0 75.0) rotate(98.0) scale(10.0 23.0)"><ellipse cx="0" cy="0" rx="1" ry="1" id="47" fill="rgb(160,150,135)" fill-opacity="0.5019607843137255" /></g>
<g transform="translate(119.0 222.0) rotate(43.0) scale(8.0 8.0)"><ellipse cx="0" cy="0" rx="1" ry="1" id="48" fill="rgb(0,0,0)" fill-opacity="0.5019607843137255" /></g>
<g transform="translate(87.0 208.0) rotate(180.0) scale(16.0 14.0)"><ellipse cx="0" cy="0" rx="1" ry="1" id="49" fill="rgb(186,187,188)" fill-opacity="0.5019607843137255" /></g>
<g transform="translate(87.0 234.0) rotate(270.0) scale(25.0 28.0)"><ellipse cx="0" cy="0" rx="1" ry="1" id="50" fill="rgb(175,170,167)" fill-opacity="0.5019607843137255" /></g>
</svg>