<?xml version="1.0" encoding="UTF-8" standalone="no"?>
<!DOCTYPE svg PUBLIC "-//W3C//DTD SVG 1.1//EN" "http://www.w3.org/Graphics/SVG/1.1/DTD/svg11.dtd">
<svg xmlns:xlink="http://www.w3.org/1999/xlink" version="1.1" xmlns="http://www.w3.org/2000/svg"  width="1123" height="1280" viewBox="0 0 281 320">
<rect x="0.0" y="0.0" width="281.0" height="320.0" id="0" fill="rgb(109,109,108)" fill-opacity="1.0" />
<circle cx="145.0" cy="127.0" r="97.0" id="1" fill="rgb(0,0,0)" fill-opacity="0.5019607843137255"/>
<circle cx="158.0" cy="77.0" r="36.0" id="2" fill="rgb(209,200,184)" fill-opacity="0.5019607843137255"/>
<circle cx="43.0" cy="248.0" r="74.0" id="3" fill="rgb(226,223,221)" fill-opacity="0.5019607843137255"/>
<circle cx="251.0" cy="206.0" r="48.0" id="4" fill="rgb(232,231,232)" fill-opacity="0.5019607843137255"/>
<circle cx="224.0" cy="101.0" r="39.0" id="5" fill="rgb(0,0,0)" fill-opacity="0.5019607843137255"/>
<circle cx="50.0" cy="35.0" r="55.0" id="6" fill="rgb(47,45,22)" fill-opacity="0.5019607843137255"/>
<circle cx="0.0" cy="143.0" r="51.0" id="7" fill="rgb(217,208,203)" fill-opacity="0.5019607843137255"/>
<circle cx="224.0" cy="276.0" r="66.0" id="8" fill="rgb(197,197,196)" fill-opacity="0.5019607843137255"/>
<circle cx="159.0" cy="180.0" r="53.0" id="9" fill="rgb(0,0,0)" fill-opacity="0.5019607843137255"/>
<circle cx="278.0" cy="131.0" r="29.0" id="10" fill="rgb(215,210,201)" fill-opacity="0.5019607843137255"/>
<circle cx="214.0" cy="7.0" r="56.0" id="11" fill="rgb(179,175,162)" fill-opacity="0.5019607843137255"/>
<circle cx="76.0" cy="96.0" r="30.0" id="12" fill="rgb(0,0,0)" fill-opacity="0.5019607843137255"/>
<circle cx="125.0" cy="313.0" r="31.0" id="13" fill="rgb(191,195,201)" fill-opacity="0.5019607843137255"/>
<circle cx="134.0" cy="52.0" r="47.0" id="14" fill="rgb(122,124,98)" fill-opacity="0.5019607843137255"/>
<circle cx="99.0" cy="158.0" r="36.0" id="15" fill="rgb(0,0,1)" fill-opacity="0.5019607843137255"/>
<circle cx="134.0" cy="250.0" r="20.0" id="16" fill="rgb(208,203,197)" fill-opacity="0.5019607843137255"/>
<circle cx="205.0" cy="144.0" r="30.0" id="17" fill="rgb(0,0,3)" fill-opacity="0.5019607843137255"/>
<circle cx="100.0" cy="261.0" r="20.0" id="18" fill="rgb(93,86,84)" fill-opacity="0.5019607843137255"/>
<circle cx="63.0" cy="59.0" r="20.0" id="19" fill="rgb(0,0,0)" fill-opacity="0.5019607843137255"/>
<circle cx="255.0" cy="162.0" r="24.0" id="20" fill="rgb(178,177,175)" fill-opacity="0.5019607843137255"/>
<circle cx="280.0" cy="45.0" r="36.0" id="21" fill="rgb(183,180,166)" fill-opacity="0.5019607843137255"/>
<circle cx="72.0" cy="149.0" r="25.0" id="22" fill="rgb(0,0,18)" fill-opacity="0.5019607843137255"/>
<circle cx="231.0" cy="87.0" r="28.0" id="23" fill="rgb(0,0,17)" fill-opacity="0.5019607843137255"/>
<circle cx="21.0" cy="82.0" r="27.0" id="24" fill="rgb(136,124,113)" fill-opacity="0.5019607843137255"/>
<circle cx="164.0" cy="77.0" r="32.0" id="25" fill="rgb(148,141,136)" fill-opacity="0.5019607843137255"/>
<circle cx="189.0" cy="245.0" r="27.0" id="26" fill="rgb(187,184,175)" fill-opacity="0.5019607843137255"/>
<circle cx="151.0" cy="47.0" r="31.0" id="27" fill="rgb(91,88,73)" fill-opacity="0.5019607843137255"/>
<circle cx="154.0" cy="221.0" r="15.0" id="28" fill="rgb(0,0,0)" fill-opacity="0.5019607843137255"/>
<circle cx="166.0" cy="139.0" r="32.0" id="29" fill="rgb(0,8,31)" fill-opacity="0.5019607843137255"/>
<circle cx="280.0" cy="92.0" r="23.0" id="30" fill="rgb(197,191,185)" fill-opacity="0.5019607843137255"/>
<circle cx="120.0" cy="220.0" r="10.0" id="31" fill="rgb(0,0,0)" fill-opacity="0.5019607843137255"/>
<circle cx="159.0" cy="86.0" r="23.0" id="32" fill="rgb(185,179,169)" fill-opacity="0.5019607843137255"/>
<circle cx="126.0" cy="83.0" r="16.0" id="33" fill="rgb(179,175,164)" fill-opacity="0.5019607843137255"/>
<circle cx="179.0" cy="206.0" r="19.0" id="34" fill="rgb(0,0,0)" fill-opacity="0.5019607843137255"/>
<circle cx="73.0" cy="314.0" r="31.0" id="35" fill="rgb(152,158,163)" fill-opacity="0.5019607843137255"/>
<circle cx="45.0" cy="198.0" r="30.0" id="36" fill="rgb(190,188,181)" fill-opacity="0.5019607843137255"/>
<circle cx="98.0" cy="0.0" r="40.0" id="37" fill="rgb(84,119,48)" fill-opacity="0.5019607843137255"/>
<circle cx="155.0" cy="278.0" r="18.0" id="38" fill="rgb(99,96,97)" fill-opacity="0.5019607843137255"/>
<circle cx="153.0" cy="314.0" r="24.0" id="39" fill="rgb(172,175,179)" fill-opacity="0.5019607843137255"/>
<circle cx="16.0" cy="47.0" r="34.0" id="40" fill="rgb(122,90,92)" fill-opacity="0.5019607843137255"/>
<circle cx="133.0" cy="131.0" r="27.0" id="41" fill="rgb(15,23,43)" fill-opacity="0.5019607843137255"/>
<circle cx="131.0" cy="59.0" r="18.0" id="42" fill="rgb(56,50,50)" fill-opacity="0.5019607843137255"/>
<circle cx="221.0" cy="117.0" r="34.0" id="43" fill="rgb(0,4,23)" fill-opacity="0.5019607843137255"/>
<circle cx="69.0" cy="78.0" r="24.0" id="44" fill="rgb(0,0,18)" fill-opacity="0.5019607843137255"/>
<circle cx="132.0" cy="189.0" r="34.0" id="45" fill="rgb(0,0,10)" fill-opacity="0.5019607843137255"/>
<circle cx="143.0" cy="20.0" r="24.0" id="46" fill="rgb(135,143,113)" fill-opacity="0.5019607843137255"/>
<circle cx="1.0" cy="319.0" r="16.0" id="47" fill="rgb(216,221,223)" fill-opacity="0.5019607843137255"/>
<circle cx="89.0" cy="203.0" r="10.0" id="48" fill="rgb(232,237,238)" fill-opacity="0.5019607843137255"/>
<circle cx="93.0" cy="245.0" r="16.0" id="49" fill="rgb(191,185,186)" fill-opacity="0.5019607843137255"/>
<circle cx="86.0" cy="116.0" r="35.0" id="50" fill="rgb(0,12,31)" fill-opacity="0.5019607843137255"/>
<circle cx="173.0" cy="236.0" r="11.0" id="51" fill="rgb(211,205,193)" fill-opacity="0.5019607843137255"/>
<circle cx="21.0" cy="123.0" r="30.0" id="52" fill="rgb(166,162,155)" fill-opacity="0.5019607843137255"/>
<circle cx="78.0" cy="268.0" r="9.0" id="53" fill="rgb(72,65,64)" fill-opacity="0.5019607843137255"/>
<circle cx="186.0" cy="174.0" r="31.0" id="54" fill="rgb(0,3,15)" fill-opacity="0.5019607843137255"/>
<circle cx="58.0" cy="43.0" r="15.0" id="55" fill="rgb(17,0,18)" fill-opacity="0.5019607843137255"/>
<circle cx="250.0" cy="222.0" r="48.0" id="56" fill="rgb(170,170,169)" fill-opacity="0.5019607843137255"/>
<circle cx="257.0" cy="169.0" r="29.0" id="57" fill="rgb(165,163,162)" fill-opacity="0.5019607843137255"/>
<circle cx="27.0" cy="160.0" r="23.0" id="58" fill="rgb(176,173,176)" fill-opacity="0.5019607843137255"/>
<circle cx="185.0" cy="50.0" r="23.0" id="59" fill="rgb(112,106,94)" fill-opacity="0.5019607843137255"/>
<circle cx="98.0" cy="163.0" r="29.0" id="60" fill="rgb(1,7,17)" fill-opacity="0.5019607843137255"/>
<circle cx="5.0" cy="74.0" r="32.0" id="61" fill="rgb(107,106,95)" fill-opacity="0.5019607843137255"/>
<circle cx="136.0" cy="262.0" r="17.0" id="62" fill="rgb(155,154,154)" fill-opacity="0.5019607843137255"/>
<circle cx="152.0" cy="54.0" r="12.0" id="63" fill="rgb(50,44,45)" fill-opacity="0.5019607843137255"/>
<circle cx="173.0" cy="85.0" r="21.0" id="64" fill="rgb(165,161,151)" fill-opacity="0.5019607843137255"/>
<circle cx="96.0" cy="312.0" r="33.0" id="65" fill="rgb(158,161,164)" fill-opacity="0.5019607843137255"/>
<circle cx="36.0" cy="36.0" r="10.0" id="66" fill="rgb(200,84,98)" fill-opacity="0.5019607843137255"/>
<circle cx="10.0" cy="227.0" r="28.0" id="67" fill="rgb(192,187,187)" fill-opacity="0.5019607843137255"/>
<circle cx="119.0" cy="241.0" r="8.0" id="68" fill="rgb(77,64,59)" fill-opacity="0.5019607843137255"/>
<circle cx="189.0" cy="118.0" r="18.0" id="69" fill="rgb(11,16,33)" fill-opacity="0.5019607843137255"/>
<circle cx="156.0" cy="229.0" r="11.0" id="70" fill="rgb(0,0,1)" fill-opacity="0.5019607843137255"/>
<circle cx="99.0" cy="271.0" r="9.0" id="71" fill="rgb(77,66,66)" fill-opacity="0.5019607843137255"/>
<circle cx="250.0" cy="8.0" r="31.0" id="72" fill="rgb(157,158,158)" fill-opacity="0.5019607843137255"/>
<circle cx="214.0" cy="62.0" r="6.0" id="73" fill="rgb(4,0,6)" fill-opacity="0.5019607843137255"/>
<circle cx="46.0" cy="28.0" r="4.0" id="74" fill="rgb(255,196,207)" fill-opacity="0.5019607843137255"/>
<circle cx="42.0" cy="10.0" r="17.0" id="75" fill="rgb(69,105,47)" fill-opacity="0.5019607843137255"/>
<circle cx="132.0" cy="240.0" r="11.0" id="76" fill="rgb(191,185,180)" fill-opacity="0.5019607843137255"/>
<circle cx="40.0" cy="45.0" r="11.0" id="77" fill="rgb(95,34,43)" fill-opacity="0.5019607843137255"/>
<circle cx="32.0" cy="284.0" r="18.0" id="78" fill="rgb(193,194,191)" fill-opacity="0.5019607843137255"/>
<circle cx="132.0" cy="91.0" r="11.0" id="79" fill="rgb(183,182,173)" fill-opacity="0.5019607843137255"/>
<circle cx="273.0" cy="63.0" r="23.0" id="80" fill="rgb(156,152,136)" fill-opacity="0.5019607843137255"/>
<circle cx="147.0" cy="126.0" r="19.0" id="81" fill="rgb(37,39,48)" fill-opacity="0.5019607843137255"/>
<circle cx="95.0" cy="205.0" r="8.0" id="82" fill="rgb(202,205,206)" fill-opacity="0.5019607843137255"/>
<circle cx="208.0" cy="142.0" r="28.0" id="83" fill="rgb(2,5,15)" fill-opacity="0.5019607843137255"/>
<circle cx="109.0" cy="83.0" r="6.0" id="84" fill="rgb(192,186,171)" fill-opacity="0.5019607843137255"/>
<circle cx="108.0" cy="8.0" r="30.0" id="85" fill="rgb(91,109,65)" fill-opacity="0.5019607843137255"/>
<circle cx="118.0" cy="216.0" r="9.0" id="86" fill="rgb(0,0,0)" fill-opacity="0.5019607843137255"/>
<circle cx="137.0" cy="283.0" r="12.0" id="87" fill="rgb(87,82,83)" fill-opacity="0.5019607843137255"/>
<circle cx="21.0" cy="9.0" r="25.0" id="88" fill="rgb(71,89,61)" fill-opacity="0.5019607843137255"/>
<circle cx="38.0" cy="99.0" r="10.0" id="89" fill="rgb(173,168,157)" fill-opacity="0.5019607843137255"/>
<circle cx="168.0" cy="232.0" r="4.0" id="90" fill="rgb(222,222,212)" fill-opacity="0.5019607843137255"/>
<circle cx="255.0" cy="173.0" r="29.0" id="91" fill="rgb(166,164,163)" fill-opacity="0.5019607843137255"/>
<circle cx="83.0" cy="203.0" r="10.0" id="92" fill="rgb(204,206,205)" fill-opacity="0.5019607843137255"/>
<circle cx="224.0" cy="201.0" r="14.0" id="93" fill="rgb(195,201,205)" fill-opacity="0.5019607843137255"/>
<circle cx="229.0" cy="91.0" r="31.0" id="94" fill="rgb(5,13,28)" fill-opacity="0.5019607843137255"/>
<circle cx="24.0" cy="183.0" r="32.0" id="95" fill="rgb(178,174,171)" fill-opacity="0.5019607843137255"/>
<circle cx="172.0" cy="0.0" r="29.0" id="96" fill="rgb(151,151,146)" fill-opacity="0.5019607843137255"/>
<circle cx="240.0" cy="41.0" r="4.0" id="97" fill="rgb(41,38,39)" fill-opacity="0.5019607843137255"/>
<circle cx="111.0" cy="268.0" r="7.0" id="98" fill="rgb(60,56,59)" fill-opacity="0.5019607843137255"/>
<circle cx="280.0" cy="318.0" r="7.0" id="99" fill="rgb(217,218,211)" fill-opacity="0.5019607843137255"/>
<circle cx="64.0" cy="98.0" r="18.0" id="100" fill="rgb(2,3,9)" fill-opacity="0.5019607843137255"/>
<circle cx="67.0" cy="181.0" r="5.0" id="101" fill="rgb(190,193,194)" fill-opacity="0.5019607843137255"/>
<circle cx="119.0" cy="214.0" r="11.0" id="102" fill="rgb(16,15,16)" fill-opacity="0.5019607843137255"/>
<circle cx="139.0" cy="75.0" r="9.0" id="103" fill="rgb(149,143,121)" fill-opacity="0.5019607843137255"/>
<circle cx="37.0" cy="121.0" r="14.0" id="104" fill="rgb(178,171,166)" fill-opacity="0.5019607843137255"/>
<circle cx="176.0" cy="57.0" r="18.0" id="105" fill="rgb(104,98,89)" fill-opacity="0.5019607843137255"/>
<circle cx="216.0" cy="257.0" r="25.0" id="106" fill="rgb(161,162,164)" fill-opacity="0.5019607843137255"/>
<circle cx="89.0" cy="248.0" r="18.0" id="107" fill="rgb(168,164,163)" fill-opacity="0.5019607843137255"/>
<circle cx="176.0" cy="190.0" r="33.0" id="108" fill="rgb(5,7,18)" fill-opacity="0.5019607843137255"/>
<circle cx="191.0" cy="310.0" r="35.0" id="109" fill="rgb(145,146,147)" fill-opacity="0.5019607843137255"/>
<circle cx="25.0" cy="34.0" r="4.0" id="110" fill="rgb(226,180,168)" fill-opacity="0.5019607843137255"/>
<circle cx="74.0" cy="135.0" r="25.0" id="111" fill="rgb(15,22,34)" fill-opacity="0.5019607843137255"/>
<circle cx="261.0" cy="75.0" r="6.0" id="112" fill="rgb(182,179,174)" fill-opacity="0.5019607843137255"/>
<circle cx="161.0" cy="279.0" r="8.0" id="113" fill="rgb(59,56,56)" fill-opacity="0.5019607843137255"/>
<circle cx="33.0" cy="147.0" r="16.0" id="114" fill="rgb(162,161,162)" fill-opacity="0.5019607843137255"/>
<circle cx="98.0" cy="311.0" r="16.0" id="115" fill="rgb(139,142,146)" fill-opacity="0.5019607843137255"/>
<circle cx="220.0" cy="88.0" r="28.0" id="116" fill="rgb(10,16,28)" fill-opacity="0.5019607843137255"/>
<circle cx="107.0" cy="53.0" r="15.0" id="117" fill="rgb(57,53,54)" fill-opacity="0.5019607843137255"/>
<circle cx="274.0" cy="98.0" r="16.0" id="118" fill="rgb(173,169,165)" fill-opacity="0.5019607843137255"/>
<circle cx="180.0" cy="267.0" r="16.0" id="119" fill="rgb(142,144,142)" fill-opacity="0.5019607843137255"/>
<circle cx="24.0" cy="318.0" r="32.0" id="120" fill="rgb(163,164,159)" fill-opacity="0.5019607843137255"/>
<circle cx="276.0" cy="261.0" r="7.0" id="121" fill="rgb(209,203,190)" fill-opacity="0.5019607843137255"/>
<circle cx="264.0" cy="223.0" r="20.0" id="122" fill="rgb(189,191,192)" fill-opacity="0.5019607843137255"/>
<circle cx="112.0" cy="252.0" r="5.0" id="123" fill="rgb(58,46,44)" fill-opacity="0.5019607843137255"/>
<circle cx="231.0" cy="41.0" r="6.0" id="124" fill="rgb(79,77,72)" fill-opacity="0.5019607843137255"/>
<circle cx="60.0" cy="161.0" r="9.0" id="125" fill="rgb(0,0,4)" fill-opacity="0.5019607843137255"/>
<circle cx="261.0" cy="184.0" r="10.0" id="126" fill="rgb(136,130,132)" fill-opacity="0.5019607843137255"/>
<circle cx="189.0" cy="92.0" r="4.0" id="127" fill="rgb(209,208,196)" fill-opacity="0.5019607843137255"/>
<circle cx="254.0" cy="50.0" r="16.0" id="128" fill="rgb(138,133,120)" fill-opacity="0.5019607843137255"/>
<circle cx="18.0" cy="102.0" r="4.0" id="129" fill="rgb(77,63,55)" fill-opacity="0.5019607843137255"/>
<circle cx="103.0" cy="120.0" r="29.0" id="130" fill="rgb(17,23,38)" fill-opacity="0.5019607843137255"/>
<circle cx="160.0" cy="316.0" r="12.0" id="131" fill="rgb(174,178,184)" fill-opacity="0.5019607843137255"/>
<circle cx="89.0" cy="269.0" r="3.0" id="132" fill="rgb(26,12,13)" fill-opacity="0.5019607843137255"/>
<circle cx="138.0" cy="245.0" r="15.0" id="133" fill="rgb(178,177,170)" fill-opacity="0.5019607843137255"/>
<circle cx="125.0" cy="36.0" r="6.0" id="134" fill="rgb(175,179,121)" fill-opacity="0.5019607843137255"/>
<circle cx="222.0" cy="185.0" r="10.0" id="135" fill="rgb(171,168,165)" fill-opacity="0.5019607843137255"/>
<circle cx="72.0" cy="201.0" r="10.0" id="136" fill="rgb(208,212,213)" fill-opacity="0.5019607843137255"/>
<circle cx="155.0" cy="226.0" r="11.0" id="137" fill="rgb(0,0,7)" fill-opacity="0.5019607843137255"/>
<circle cx="83.0" cy="317.0" r="14.0" id="138" fill="rgb(167,170,177)" fill-opacity="0.5019607843137255"/>
<circle cx="67.0" cy="70.0" r="21.0" id="139" fill="rgb(1,8,20)" fill-opacity="0.5019607843137255"/>
<circle cx="98.0" cy="263.0" r="5.0" id="140" fill="rgb(195,183,169)" fill-opacity="0.5019607843137255"/>
<circle cx="132.0" cy="260.0" r="18.0" id="141" fill="rgb(149,148,146)" fill-opacity="0.5019607843137255"/>
<circle cx="179.0" cy="284.0" r="9.0" id="142" fill="rgb(119,119,117)" fill-opacity="0.5019607843137255"/>
<circle cx="226.0" cy="316.0" r="21.0" id="143" fill="rgb(170,168,173)" fill-opacity="0.5019607843137255"/>
<circle cx="172.0" cy="75.0" r="12.0" id="144" fill="rgb(154,147,133)" fill-opacity="0.5019607843137255"/>
<circle cx="82.0" cy="80.0" r="15.0" id="145" fill="rgb(11,19,33)" fill-opacity="0.5019607843137255"/>
<circle cx="58.0" cy="256.0" r="18.0" id="146" fill="rgb(154,155,153)" fill-opacity="0.5019607843137255"/>
<circle cx="210.0" cy="5.0" r="27.0" id="147" fill="rgb(157,155,145)" fill-opacity="0.5019607843137255"/>
<circle cx="143.0" cy="97.0" r="9.0" id="148" fill="rgb(189,187,178)" fill-opacity="0.5019607843137255"/>
<circle cx="70.0" cy="110.0" r="22.0" id="149" fill="rgb(5,9,19)" fill-opacity="0.5019607843137255"/>
<circle cx="193.0" cy="240.0" r="19.0" id="150" fill="rgb(180,175,167)" fill-opacity="0.5019607843137255"/>
<circle cx="255.0" cy="124.0" r="3.0" id="151" fill="rgb(11,2,8)" fill-opacity="0.5019607843137255"/>
<circle cx="107.0" cy="279.0" r="8.0" id="152" fill="rgb(145,147,151)" fill-opacity="0.5019607843137255"/>
<circle cx="122.0" cy="256.0" r="9.0" id="153" fill="rgb(169,169,166)" fill-opacity="0.5019607843137255"/>
<circle cx="18.0" cy="136.0" r="6.0" id="154" fill="rgb(122,118,119)" fill-opacity="0.5019607843137255"/>
<circle cx="32.0" cy="190.0" r="31.0" id="155" fill="rgb(176,174,170)" fill-opacity="0.5019607843137255"/>
<circle cx="71.0" cy="270.0" r="4.0" id="156" fill="rgb(56,51,54)" fill-opacity="0.5019607843137255"/>
<circle cx="98.0" cy="0.0" r="12.0" id="157" fill="rgb(122,147,86)" fill-opacity="0.5019607843137255"/>
<circle cx="133.0" cy="229.0" r="5.0" id="158" fill="rgb(197,194,195)" fill-opacity="0.5019607843137255"/>
<circle cx="122.0" cy="276.0" r="9.0" id="159" fill="rgb(95,87,93)" fill-opacity="0.5019607843137255"/>
<circle cx="120.0" cy="302.0" r="5.0" id="160" fill="rgb(111,113,111)" fill-opacity="0.5019607843137255"/>
<circle cx="87.0" cy="44.0" r="9.0" id="161" fill="rgb(116,111,112)" fill-opacity="0.5019607843137255"/>
<circle cx="209.0" cy="62.0" r="5.0" id="162" fill="rgb(41,31,32)" fill-opacity="0.5019607843137255"/>
<circle cx="113.0" cy="177.0" r="26.0" id="163" fill="rgb(3,6,13)" fill-opacity="0.5019607843137255"/>
<circle cx="71.0" cy="152.0" r="23.0" id="164" fill="rgb(14,19,27)" fill-opacity="0.5019607843137255"/>
<circle cx="272.0" cy="13.0" r="17.0" id="165" fill="rgb(140,139,137)" fill-opacity="0.5019607843137255"/>
<circle cx="87.0" cy="261.0" r="3.0" id="166" fill="rgb(65,56,48)" fill-opacity="0.5019607843137255"/>
<circle cx="167.0" cy="133.0" r="16.0" id="167" fill="rgb(27,32,47)" fill-opacity="0.5019607843137255"/>
<circle cx="150.0" cy="201.0" r="29.0" id="168" fill="rgb(7,10,19)" fill-opacity="0.5019607843137255"/>
<circle cx="0.0" cy="20.0" r="27.0" id="169" fill="rgb(76,83,69)" fill-opacity="0.5019607843137255"/>
<circle cx="46.0" cy="83.0" r="1.0" id="170" fill="rgb(255,255,255)" fill-opacity="0.5019607843137255"/>
<circle cx="47.0" cy="45.0" r="11.0" id="171" fill="rgb(82,37,45)" fill-opacity="0.5019607843137255"/>
<circle cx="4.0" cy="93.0" r="7.0" id="172" fill="rgb(164,159,142)" fill-opacity="0.5019607843137255"/>
<circle cx="66.0" cy="143.0" r="11.0" id="173" fill="rgb(30,38,49)" fill-opacity="0.5019607843137255"/>
<circle cx="92.0" cy="186.0" r="8.0" id="174" fill="rgb(5,3,6)" fill-opacity="0.5019607843137255"/>
<circle cx="182.0" cy="29.0" r="19.0" id="175" fill="rgb(133,131,124)" fill-opacity="0.5019607843137255"/>
<circle cx="149.0" cy="71.0" r="9.0" id="176" fill="rgb(131,120,108)" fill-opacity="0.5019607843137255"/>
<circle cx="39.0" cy="233.0" r="13.0" id="177" fill="rgb(188,189,188)" fill-opacity="0.5019607843137255"/>
<circle cx="153.0" cy="1.0" r="4.0" id="178" fill="rgb(43,45,34)" fill-opacity="0.5019607843137255"/>
<circle cx="27.0" cy="93.0" r="8.0" id="179" fill="rgb(164,156,139)" fill-opacity="0.5019607843137255"/>
<circle cx="110.0" cy="255.0" r="5.0" id="180" fill="rgb(61,53,49)" fill-opacity="0.5019607843137255"/>
<circle cx="111.0" cy="70.0" r="10.0" id="181" fill="rgb(94,85,87)" fill-opacity="0.5019607843137255"/>
<circle cx="42.0" cy="30.0" r="5.0" id="182" fill="rgb(247,169,176)" fill-opacity="0.5019607843137255"/>
<circle cx="244.0" cy="56.0" r="4.0" id="183" fill="rgb(197,196,172)" fill-opacity="0.5019607843137255"/>
<circle cx="44.0" cy="1.0" r="26.0" id="184" fill="rgb(76,96,54)" fill-opacity="0.5019607843137255"/>
<circle cx="40.0" cy="19.0" r="9.0" id="185" fill="rgb(54,58,48)" fill-opacity="0.5019607843137255"/>
<circle cx="269.0" cy="200.0" r="19.0" id="186" fill="rgb(167,164,162)" fill-opacity="0.5019607843137255"/>
<circle cx="214.0" cy="243.0" r="33.0" id="187" fill="rgb(168,167,166)" fill-opacity="0.5019607843137255"/>
<circle cx="79.0" cy="30.0" r="13.0" id="188" fill="rgb(67,73,63)" fill-opacity="0.5019607843137255"/>
<circle cx="45.0" cy="55.0" r="6.0" id="189" fill="rgb(146,53,63)" fill-opacity="0.5019607843137255"/>
<circle cx="218.0" cy="176.0" r="3.0" id="190" fill="rgb(43,41,40)" fill-opacity="0.5019607843137255"/>
<circle cx="77.0" cy="267.0" r="3.0" id="191" fill="rgb(48,36,38)" fill-opacity="0.5019607843137255"/>
<circle cx="125.0" cy="58.0" r="8.0" id="192" fill="rgb(41,39,40)" fill-opacity="0.5019607843137255"/>
<circle cx="162.0" cy="52.0" r="13.0" id="193" fill="rgb(81,76,71)" fill-opacity="0.5019607843137255"/>
<circle cx="5.0" cy="164.0" r="14.0" id="194" fill="rgb(192,184,185)" fill-opacity="0.5019607843137255"/>
<circle cx="175.0" cy="237.0" r="12.0" id="195" fill="rgb(188,184,174)" fill-opacity="0.5019607843137255"/>
<circle cx="156.0" cy="243.0" r="3.0" id="196" fill="rgb(27,17,19)" fill-opacity="0.5019607843137255"/>
<circle cx="157.0" cy="250.0" r="4.0" id="197" fill="rgb(43,31,32)" fill-opacity="0.5019607843137255"/>
<circle cx="52.0" cy="1.0" r="16.0" id="198" fill="rgb(93,119,64)" fill-opacity="0.5019607843137255"/>
<circle cx="71.0" cy="169.0" r="9.0" id="199" fill="rgb(3,3,7)" fill-opacity="0.5019607843137255"/>
<circle cx="203.0" cy="46.0" r="12.0" id="200" fill="rgb(142,136,122)" fill-opacity="0.5019607843137255"/>
</svg>