<?xml version="1.0" encoding="UTF-8" standalone="no"?>
<!DOCTYPE svg PUBLIC "-//W3C//DTD SVG 1.1//EN" "http://www.w3.org/Graphics/SVG/1.1/DTD/svg11.dtd">
<svg xmlns:xlink="http://www.w3.org/1999/xlink" version="1.1" xmlns="http://www.w3.org/2000/svg"  width="1123" height="1280" viewBox="0 0 281 320">
<rect x="0.0" y="0.0" width="281.0" height="320.0" id="0" fill="rgb(109,109,108)" fill-opacity="1.0" />
<polygon points="13.0,73.0 151.0,272.0 253.0,114.0" id="1" fill="rgb(0,0,0)" fill-opacity="0.5019607843137255"/>
<polygon points="197.0,40.0 186.0,236.0 253.0,84.0" id="2" fill="rgb(0,0,0)" fill-opacity="0.5019607843137255"/>
<polygon points="93.0,79.0 155.0,112.0 186.0,81.0" id="3" fill="rgb(223,215,198)" fill-opacity="0.5019607843137255"/>
<polygon points="0.0,103.0 0.0,319.0 74.0,183.0" id="4" fill="rgb(236,231,227)" fill-opacity="0.5019607843137255"/>
<polygon points="0.0,9.0 164.0,257.0 77.0,60.0" id="5" fill="rgb(0,0,0)" fill-opacity="0.5019607843137255"/>
<polygon points="100.0,212.0 239.0,49.0 253.0,118.0" id="6" fill="rgb(0,0,4)" fill-opacity="0.5019607843137255"/>
<polygon points="280.0,118.0 280.0,319.0 162.0,237.0" id="7" fill="rgb(219,218,217)" fill-opacity="0.5019607843137255"/>
<polygon points="128.0,218.0 96.0,319.0 149.0,247.0" id="8" fill="rgb(202,199,198)" fill-opacity="0.5019607843137255"/>
<polygon points="45.0,1.0 216.0,232.0 52.0,170.0" id="9" fill="rgb(0,0,1)" fill-opacity="0.5019607843137255"/>
<polygon points="0.0,142.0 280.0,319.0 29.0,304.0" id="10" fill="rgb(188,186,185)" fill-opacity="0.5019607843137255"/>
<polygon points="68.0,147.0 260.0,127.0 122.0,240.0" id="11" fill="rgb(0,0,11)" fill-opacity="0.5019607843137255"/>
<polygon points="98.0,251.0 115.0,284.0 146.0,282.0" id="12" fill="rgb(53,46,50)" fill-opacity="0.5019607843137255"/>
<polygon points="15.0,70.0 23.0,319.0 53.0,98.0" id="13" fill="rgb(185,180,174)" fill-opacity="0.5019607843137255"/>
<polygon points="280.0,56.0 231.0,181.0 276.0,110.0" id="14" fill="rgb(209,203,196)" fill-opacity="0.5019607843137255"/>
<polygon points="0.0,0.0 199.0,59.0 115.0,65.0" id="15" fill="rgb(52,57,29)" fill-opacity="0.5019607843137255"/>
<polygon points="43.0,156.0 121.0,216.0 110.0,165.0" id="16" fill="rgb(0,0,0)" fill-opacity="0.5019607843137255"/>
<polygon points="72.0,186.0 0.0,319.0 39.0,319.0" id="17" fill="rgb(202,202,199)" fill-opacity="0.5019607843137255"/>
<polygon points="8.0,17.0 42.0,115.0 53.0,29.0" id="18" fill="rgb(151,104,98)" fill-opacity="0.5019607843137255"/>
<polygon points="280.0,0.0 127.0,0.0 224.0,63.0" id="19" fill="rgb(180,178,164)" fill-opacity="0.5019607843137255"/>
<polygon points="166.0,0.0 280.0,94.0 280.0,35.0" id="20" fill="rgb(168,164,152)" fill-opacity="0.5019607843137255"/>
<polygon points="132.0,148.0 244.0,52.0 260.0,94.0" id="21" fill="rgb(0,3,26)" fill-opacity="0.5019607843137255"/>
<polygon points="103.0,92.0 171.0,111.0 195.0,89.0" id="22" fill="rgb(196,191,183)" fill-opacity="0.5019607843137255"/>
<polygon points="147.0,238.0 261.0,84.0 204.0,208.0" id="23" fill="rgb(0,0,2)" fill-opacity="0.5019607843137255"/>
<polygon points="47.0,160.0 97.0,210.0 74.0,227.0" id="24" fill="rgb(205,206,203)" fill-opacity="0.5019607843137255"/>
<polygon points="235.0,179.0 280.0,243.0 174.0,238.0" id="25" fill="rgb(196,196,195)" fill-opacity="0.5019607843137255"/>
<polygon points="14.0,304.0 265.0,319.0 64.0,319.0" id="26" fill="rgb(201,205,212)" fill-opacity="0.5019607843137255"/>
<polygon points="13.0,0.0 252.0,38.0 197.0,69.0" id="27" fill="rgb(105,112,75)" fill-opacity="0.5019607843137255"/>
<polygon points="158.0,268.0 125.0,297.0 175.0,283.0" id="28" fill="rgb(46,42,45)" fill-opacity="0.5019607843137255"/>
<polygon points="57.0,270.0 119.0,283.0 96.0,264.0" id="29" fill="rgb(59,50,52)" fill-opacity="0.5019607843137255"/>
<polygon points="193.0,0.0 150.0,110.0 221.0,45.0" id="30" fill="rgb(149,140,135)" fill-opacity="0.5019607843137255"/>
<polygon points="164.0,223.0 248.0,296.0 166.0,258.0" id="31" fill="rgb(180,181,175)" fill-opacity="0.5019607843137255"/>
<polygon points="41.0,63.0 63.0,180.0 112.0,46.0" id="32" fill="rgb(6,14,30)" fill-opacity="0.5019607843137255"/>
<polygon points="0.0,0.0 139.0,0.0 110.0,37.0" id="33" fill="rgb(71,108,33)" fill-opacity="0.5019607843137255"/>
<polygon points="210.0,54.0 151.0,185.0 264.0,106.0" id="34" fill="rgb(1,9,25)" fill-opacity="0.5019607843137255"/>
<polygon points="65.0,190.0 105.0,212.0 98.0,196.0" id="35" fill="rgb(235,237,237)" fill-opacity="0.5019607843137255"/>
<polygon points="204.0,0.0 252.0,63.0 223.0,57.0" id="36" fill="rgb(149,145,138)" fill-opacity="0.5019607843137255"/>
<polygon points="107.0,213.0 159.0,233.0 187.0,205.0" id="37" fill="rgb(0,0,0)" fill-opacity="0.5019607843137255"/>
<polygon points="126.0,220.0 123.0,254.0 153.0,240.0" id="38" fill="rgb(200,194,183)" fill-opacity="0.5019607843137255"/>
<polygon points="164.0,227.0 164.0,257.0 176.0,226.0" id="39" fill="rgb(213,209,196)" fill-opacity="0.5019607843137255"/>
<polygon points="225.0,2.0 280.0,133.0 279.0,22.0" id="40" fill="rgb(166,164,157)" fill-opacity="0.5019607843137255"/>
<polygon points="106.0,216.0 163.0,233.0 180.0,203.0" id="41" fill="rgb(0,0,7)" fill-opacity="0.5019607843137255"/>
<polygon points="64.0,26.0 112.0,97.0 111.0,68.0" id="42" fill="rgb(113,105,99)" fill-opacity="0.5019607843137255"/>
<polygon points="97.0,37.0 147.0,65.0 109.0,71.0" id="43" fill="rgb(55,46,47)" fill-opacity="0.5019607843137255"/>
<polygon points="145.0,148.0 122.0,239.0 107.0,257.0" id="44" fill="rgb(21,15,14)" fill-opacity="0.5019607843137255"/>
<polygon points="102.0,147.0 251.0,64.0 258.0,131.0" id="45" fill="rgb(12,19,33)" fill-opacity="0.5019607843137255"/>
<polygon points="148.0,56.0 167.0,110.0 193.0,89.0" id="46" fill="rgb(175,167,154)" fill-opacity="0.5019607843137255"/>
<polygon points="38.0,35.0 118.0,235.0 73.0,35.0" id="47" fill="rgb(7,6,19)" fill-opacity="0.5019607843137255"/>
<polygon points="51.0,212.0 122.0,232.0 88.0,253.0" id="48" fill="rgb(195,185,181)" fill-opacity="0.5019607843137255"/>
<polygon points="211.0,114.0 218.0,172.0 235.0,154.0" id="49" fill="rgb(0,1,12)" fill-opacity="0.5019607843137255"/>
<polygon points="20.0,126.0 44.0,93.0 52.0,130.0" id="50" fill="rgb(203,198,189)" fill-opacity="0.5019607843137255"/>
</svg>