<?xml version="1.0" encoding="UTF-8" standalone="no"?>
<!DOCTYPE svg PUBLIC "-//W3C//DTD SVG 1.1//EN" "http://www.w3.org/Graphics/SVG/1.1/DTD/svg11.dtd">
<svg xmlns:xlink="http://www.w3.org/1999/xlink" version="1.1" xmlns="http://www.w3.org/2000/svg"  width="1123" height="1280" viewBox="0 0 281 320">
<rect x="0.0" y="0.0" width="281.0" height="320.0" id="0" fill="rgb(109,109,108)" fill-opacity="1.0" />
<g transform="translate(132.0 155.0) rotate(212.0) scale(93.0 61.0)"><ellipse cx="0" cy="0" rx="1" ry="1" id="1" fill="rgb(0,0,0)" fill-opacity="0.5019607843137255" /></g>
<g transform="translate(215.0 115.0) rotate(24.0) scale(38.0 61.0)"><ellipse cx="0" cy="0" rx="1" ry="1" id="2" fill="rgb(0,0,0)" fill-opacity="0.5019607843137255" /></g>
<g transform="translate(96.0 124.0) rotate(240.0) scale(131.0 33.0)"><ellipse cx="0" cy="0" rx="1" ry="1" id="3" fill="rgb(0,0,0)" fill-opacity="0.5019607843137255" /></g>
<g transform="translate(232.0 258.0) rotate(300.0) scale(280.0 52.0)"><ellipse cx="0" cy="0" rx="1" ry="1" id="4" fill="rgb(215,214,214)" fill-opacity="0.5019607843137255" /></g>
<g transform="translate(26.0 240.0) rotate(226.0) scale(155.0 76.0)"><ellipse cx="0" cy="0" rx="1" ry="1" id="5" fill="rgb(219,215,214)" fill-opacity="0.5019607843137255" /></g>
<g transform="translate(149.0 91.0) rotate(99.0) scale(16.0 42.0)"><ellipse cx="0" cy="0" rx="1" ry="1" id="6" fill="rgb(227,220,202)" fill-opacity="0.5019607843137255" /></g>
<g transform="translate(23.0 128.0) rotate(182.0) scale(28.0 41.0)"><ellipse cx="0" cy="0" rx="1" ry="1" id="7" fill="rgb(200,192,183)" fill-opacity="0.5019607843137255" /></g>
<g transform="translate(217.0 119.0) rotate(169.0) scale(40.0 35.0)"><ellipse cx="0" cy="0" rx="1" ry="1" id="8" fill="rgb(0,0,4)" fill-opacity="0.5019607843137255" /></g>
<g transform="translate(239.0 18.0) rotate(295.0) scale(43.0 156.0)"><ellipse cx="0" cy="0" rx="1" ry="1" id="9" fill="rgb(181,178,164)" fill-opacity="0.5019607843137255" /></g>
<g transform="translate(130.0 275.0) rotate(84.0) scale(42.0 61.0)"><ellipse cx="0" cy="0" rx="1" ry="1" id="10" fill="rgb(130,129,129)" fill-opacity="0.5019607843137255" /></g>
<g transform="translate(151.0 178.0) rotate(150.0) scale(55.0 52.0)"><ellipse cx="0" cy="0" rx="1" ry="1" id="11" fill="rgb(0,0,5)" fill-opacity="0.5019607843137255" /></g>
<g transform="translate(116.0 58.0) rotate(118.0) scale(20.0 24.0)"><ellipse cx="0" cy="0" rx="1" ry="1" id="12" fill="rgb(52,47,32)" fill-opacity="0.5019607843137255" /></g>
<g transform="translate(187.0 247.0) rotate(219.0) scale(26.0 23.0)"><ellipse cx="0" cy="0" rx="1" ry="1" id="13" fill="rgb(195,191,181)" fill-opacity="0.5019607843137255" /></g>
<g transform="translate(68.0 78.0) rotate(183.0) scale(20.0 62.0)"><ellipse cx="0" cy="0" rx="1" ry="1" id="14" fill="rgb(0,0,8)" fill-opacity="0.5019607843137255" /></g>
<g transform="translate(73.0 151.0) rotate(43.0) scale(23.0 25.0)"><ellipse cx="0" cy="0" rx="1" ry="1" id="15" fill="rgb(0,0,12)" fill-opacity="0.5019607843137255" /></g>
<g transform="translate(46.0 14.0) rotate(266.0) scale(35.0 94.0)"><ellipse cx="0" cy="0" rx="1" ry="1" id="16" fill="rgb(82,92,43)" fill-opacity="0.5019607843137255" /></g>
<g transform="translate(39.0 43.0) rotate(96.0) scale(20.0 16.0)"><ellipse cx="0" cy="0" rx="1" ry="1" id="17" fill="rgb(167,77,98)" fill-opacity="0.5019607843137255" /></g>
<g transform="translate(235.0 93.0) rotate(272.0) scale(33.0 25.0)"><ellipse cx="0" cy="0" rx="1" ry="1" id="18" fill="rgb(0,0,17)" fill-opacity="0.5019607843137255" /></g>
<g transform="translate(245.0 302.0) rotate(85.0) scale(35.0 75.0)"><ellipse cx="0" cy="0" rx="1" ry="1" id="19" fill="rgb(148,149,151)" fill-opacity="0.5019607843137255" /></g>
<g transform="translate(113.0 250.0) rotate(110.0) scale(35.0 4.0)"><ellipse cx="0" cy="0" rx="1" ry="1" id="20" fill="rgb(32,19,15)" fill-opacity="0.5019607843137255" /></g>
<g transform="translate(76.0 210.0) rotate(178.0) scale(30.0 17.0)"><ellipse cx="0" cy="0" rx="1" ry="1" id="21" fill="rgb(204,205,199)" fill-opacity="0.5019607843137255" /></g>
<g transform="translate(273.0 85.0) rotate(289.0) scale(43.0 10.0)"><ellipse cx="0" cy="0" rx="1" ry="1" id="22" fill="rgb(188,182,172)" fill-opacity="0.5019607843137255" /></g>
<g transform="translate(22.0 82.0) rotate(27.0) scale(27.0 27.0)"><ellipse cx="0" cy="0" rx="1" ry="1" id="23" fill="rgb(124,113,98)" fill-opacity="0.5019607843137255" /></g>
<g transform="translate(140.0 241.0) rotate(47.0) scale(19.0 10.0)"><ellipse cx="0" cy="0" rx="1" ry="1" id="24" fill="rgb(224,218,208)" fill-opacity="0.5019607843137255" /></g>
<g transform="translate(181.0 80.0) rotate(58.0) scale(19.0 9.0)"><ellipse cx="0" cy="0" rx="1" ry="1" id="25" fill="rgb(197,189,169)" fill-opacity="0.5019607843137255" /></g>
<g transform="translate(207.0 145.0) rotate(68.0) scale(29.0 26.0)"><ellipse cx="0" cy="0" rx="1" ry="1" id="26" fill="rgb(0,0,9)" fill-opacity="0.5019607843137255" /></g>
<g transform="translate(145.0 55.0) rotate(350.0) scale(32.0 10.0)"><ellipse cx="0" cy="0" rx="1" ry="1" id="27" fill="rgb(53,46,38)" fill-opacity="0.5019607843137255" /></g>
<g transform="translate(98.0 185.0) rotate(120.0) scale(9.0 55.0)"><ellipse cx="0" cy="0" rx="1" ry="1" id="28" fill="rgb(0,0,0)" fill-opacity="0.5019607843137255" /></g>
<g transform="translate(127.0 280.0) rotate(101.0) scale(6.0 62.0)"><ellipse cx="0" cy="0" rx="1" ry="1" id="29" fill="rgb(72,67,70)" fill-opacity="0.5019607843137255" /></g>
<g transform="translate(243.0 218.0) rotate(120.0) scale(25.0 39.0)"><ellipse cx="0" cy="0" rx="1" ry="1" id="30" fill="rgb(194,196,198)" fill-opacity="0.5019607843137255" /></g>
<g transform="translate(15.0 235.0) rotate(10.0) scale(46.0 88.0)"><ellipse cx="0" cy="0" rx="1" ry="1" id="31" fill="rgb(184,182,179)" fill-opacity="0.5019607843137255" /></g>
<g transform="translate(199.0 201.0) rotate(114.0) scale(18.0 8.0)"><ellipse cx="0" cy="0" rx="1" ry="1" id="32" fill="rgb(0,0,0)" fill-opacity="0.5019607843137255" /></g>
<g transform="translate(57.0 51.0) rotate(70.0) scale(21.0 17.0)"><ellipse cx="0" cy="0" rx="1" ry="1" id="33" fill="rgb(14,0,16)" fill-opacity="0.5019607843137255" /></g>
<g transform="translate(218.0 78.0) rotate(243.0) scale(13.0 27.0)"><ellipse cx="0" cy="0" rx="1" ry="1" id="34" fill="rgb(0,0,18)" fill-opacity="0.5019607843137255" /></g>
<g transform="translate(280.0 308.0) rotate(299.0) scale(21.0 17.0)"><ellipse cx="0" cy="0" rx="1" ry="1" id="35" fill="rgb(184,186,183)" fill-opacity="0.5019607843137255" /></g>
<g transform="translate(190.0 281.0) rotate(166.0) scale(27.0 31.0)"><ellipse cx="0" cy="0" rx="1" ry="1" id="36" fill="rgb(140,142,140)" fill-opacity="0.5019607843137255" /></g>
<g transform="translate(95.0 62.0) rotate(56.0) scale(44.0 6.0)"><ellipse cx="0" cy="0" rx="1" ry="1" id="37" fill="rgb(115,110,108)" fill-opacity="0.5019607843137255" /></g>
<g transform="translate(20.0 147.0) rotate(282.0) scale(45.0 29.0)"><ellipse cx="0" cy="0" rx="1" ry="1" id="38" fill="rgb(172,167,166)" fill-opacity="0.5019607843137255" /></g>
<g transform="translate(173.0 183.0) rotate(97.0) scale(43.0 38.0)"><ellipse cx="0" cy="0" rx="1" ry="1" id="39" fill="rgb(0,1,14)" fill-opacity="0.5019607843137255" /></g>
<g transform="translate(146.0 101.0) rotate(14.0) scale(23.0 6.0)"><ellipse cx="0" cy="0" rx="1" ry="1" id="40" fill="rgb(197,193,188)" fill-opacity="0.5019607843137255" /></g>
<g transform="translate(134.0 248.0) rotate(6.0) scale(15.0 20.0)"><ellipse cx="0" cy="0" rx="1" ry="1" id="41" fill="rgb(179,176,172)" fill-opacity="0.5019607843137255" /></g>
<g transform="translate(155.0 230.0) rotate(166.0) scale(6.0 22.0)"><ellipse cx="0" cy="0" rx="1" ry="1" id="42" fill="rgb(0,0,0)" fill-opacity="0.5019607843137255" /></g>
<g transform="translate(130.0 132.0) rotate(83.0) scale(21.0 81.0)"><ellipse cx="0" cy="0" rx="1" ry="1" id="43" fill="rgb(14,25,47)" fill-opacity="0.5019607843137255" /></g>
<g transform="translate(77.0 88.0) rotate(247.0) scale(43.0 21.0)"><ellipse cx="0" cy="0" rx="1" ry="1" id="44" fill="rgb(0,4,20)" fill-opacity="0.5019607843137255" /></g>
<g transform="translate(127.0 78.0) rotate(358.0) scale(28.0 11.0)"><ellipse cx="0" cy="0" rx="1" ry="1" id="45" fill="rgb(145,139,123)" fill-opacity="0.5019607843137255" /></g>
<g transform="translate(154.0 280.0) rotate(360.0) scale(31.0 5.0)"><ellipse cx="0" cy="0" rx="1" ry="1" id="46" fill="rgb(82,77,77)" fill-opacity="0.5019607843137255" /></g>
<g transform="translate(172.0 75.0) rotate(98.0) scale(10.0 23.0)"><ellipse cx="0" cy="0" rx="1" ry="1" id="47" fill="rgb(160,150,135)" fill-opacity="0.5019607843137255" /></g>
<g transform="translate(119.0 222.0) rotate(43.0) scale(8.0 8.0)"><ellipse cx="0" cy="0" rx="1" ry="1" id="48" fill="rgb(0,0,0)" fill-opacity="0.5019607843137255" /></g>
<g transform="translate(87.0 208.0) rotate(180.0) scale(16.0 14.0)"><ellipse cx="0" cy="0" rx="1" ry="1" id="49" fill="rgb(186,187,188)" fill-opacity="0.5019607843137255" /></g>
<g transform="translate(87.0 234.0) rotate(270.0) scale(25.0 28.0)"><ellipse cx="0" cy="0" rx="1" ry="1" id="50" fill="rgb(175,170,167)" fill-opacity="0.5019607843137255" /></g>
<g transform="translate(179.0 47.0) rotate(231.0) scale(20.0 24.0)"><ellipse cx="0" cy="0" rx="1" ry="1" id="51" fill="rgb(111,104,88)" fill-opacity="0.5019607843137255" /></g>
<g transform="translate(97.0 290.0) rotate(271.0) scale(14.0 27.0)"><ellipse cx="0" cy="0" rx="1" ry="1" id="52" fill="rgb(170,175,179)" fill-opacity="0.5019607843137255" /></g>
<g transform="translate(22.0 0.0) rotate(199.0) scale(34.0 29.0)"><ellipse cx="0" cy="0" rx="1" ry="1" id="53" fill="rgb(63,84,55)" fill-opacity="0.5019607843137255" /></g>
<g transform="translate(186.0 238.0) rotate(167.0) scale(23.0 12.0)"><ellipse cx="0" cy="0" rx="1" ry="1" id="54" fill="rgb(197,191,180)" fill-opacity="0.5019607843137255" /></g>
<g transform="translate(28.0 54.0) rotate(273.0) scale(35.0 20.0)"><ellipse cx="0" cy="0" rx="1" ry="1" id="55" fill="rgb(118,91,89)" fill-opacity="0.5019607843137255" /></g>
<g transform="translate(78.0 227.0) rotate(329.0) scale(44.0 1.0)"><ellipse cx="0" cy="0" rx="1" ry="1" id="56" fill="rgb(77,77,72)" fill-opacity="0.5019607843137255" /></g>
<g transform="translate(159.0 90.0) rotate(194.0) scale(31.0 12.0)"><ellipse cx="0" cy="0" rx="1" ry="1" id="57" fill="rgb(164,161,152)" fill-opacity="0.5019607843137255" /></g>
<g transform="translate(41.0 94.0) rotate(182.0) scale(6.0 20.0)"><ellipse cx="0" cy="0" rx="1" ry="1" id="58" fill="rgb(165,162,150)" fill-opacity="0.5019607843137255" /></g>
<g transform="translate(112.0 115.0) rotate(270.0) scale(21.0 19.0)"><ellipse cx="0" cy="0" rx="1" ry="1" id="59" fill="rgb(21,29,46)" fill-opacity="0.5019607843137255" /></g>
<g transform="translate(140.0 312.0) rotate(270.0) scale(11.0 26.0)"><ellipse cx="0" cy="0" rx="1" ry="1" id="60" fill="rgb(173,180,186)" fill-opacity="0.5019607843137255" /></g>
<g transform="translate(230.0 105.0) rotate(90.0) scale(13.0 31.0)"><ellipse cx="0" cy="0" rx="1" ry="1" id="61" fill="rgb(0,10,27)" fill-opacity="0.5019607843137255" /></g>
<g transform="translate(17.0 266.0) rotate(147.0) scale(40.0 1.0)"><ellipse cx="0" cy="0" rx="1" ry="1" id="62" fill="rgb(63,61,58)" fill-opacity="0.5019607843137255" /></g>
<g transform="translate(107.0 17.0) rotate(199.0) scale(48.0 21.0)"><ellipse cx="0" cy="0" rx="1" ry="1" id="63" fill="rgb(96,123,63)" fill-opacity="0.5019607843137255" /></g>
<g transform="translate(212.0 82.0) rotate(267.0) scale(25.0 14.0)"><ellipse cx="0" cy="0" rx="1" ry="1" id="64" fill="rgb(6,11,21)" fill-opacity="0.5019607843137255" /></g>
<g transform="translate(217.0 45.0) rotate(6.0) scale(32.0 15.0)"><ellipse cx="0" cy="0" rx="1" ry="1" id="65" fill="rgb(135,130,119)" fill-opacity="0.5019607843137255" /></g>
<g transform="translate(144.0 268.0) rotate(27.0) scale(8.0 14.0)"><ellipse cx="0" cy="0" rx="1" ry="1" id="66" fill="rgb(159,156,155)" fill-opacity="0.5019607843137255" /></g>
<g transform="translate(280.0 83.0) rotate(123.0) scale(15.0 29.0)"><ellipse cx="0" cy="0" rx="1" ry="1" id="67" fill="rgb(170,166,162)" fill-opacity="0.5019607843137255" /></g>
<g transform="translate(81.0 174.0) rotate(92.0) scale(15.0 8.0)"><ellipse cx="0" cy="0" rx="1" ry="1" id="68" fill="rgb(0,0,4)" fill-opacity="0.5019607843137255" /></g>
<g transform="translate(242.0 22.0) rotate(192.0) scale(48.0 15.0)"><ellipse cx="0" cy="0" rx="1" ry="1" id="69" fill="rgb(160,159,157)" fill-opacity="0.5019607843137255" /></g>
<g transform="translate(30.0 38.0) rotate(340.0) scale(3.0 8.0)"><ellipse cx="0" cy="0" rx="1" ry="1" id="70" fill="rgb(237,120,128)" fill-opacity="0.5019607843137255" /></g>
<g transform="translate(111.0 273.0) rotate(275.0) scale(8.0 31.0)"><ellipse cx="0" cy="0" rx="1" ry="1" id="71" fill="rgb(97,89,90)" fill-opacity="0.5019607843137255" /></g>
<g transform="translate(127.0 193.0) rotate(238.0) scale(29.0 27.0)"><ellipse cx="0" cy="0" rx="1" ry="1" id="72" fill="rgb(7,11,19)" fill-opacity="0.5019607843137255" /></g>
<g transform="translate(190.0 259.0) rotate(106.0) scale(27.0 28.0)"><ellipse cx="0" cy="0" rx="1" ry="1" id="73" fill="rgb(162,162,160)" fill-opacity="0.5019607843137255" /></g>
<g transform="translate(217.0 141.0) rotate(264.0) scale(27.0 15.0)"><ellipse cx="0" cy="0" rx="1" ry="1" id="74" fill="rgb(0,1,13)" fill-opacity="0.5019607843137255" /></g>
<g transform="translate(94.0 41.0) rotate(155.0) scale(16.0 41.0)"><ellipse cx="0" cy="0" rx="1" ry="1" id="75" fill="rgb(76,83,64)" fill-opacity="0.5019607843137255" /></g>
<g transform="translate(3.0 37.0) rotate(267.0) scale(27.0 19.0)"><ellipse cx="0" cy="0" rx="1" ry="1" id="76" fill="rgb(78,69,72)" fill-opacity="0.5019607843137255" /></g>
<g transform="translate(44.0 30.0) rotate(76.0) scale(2.0 12.0)"><ellipse cx="0" cy="0" rx="1" ry="1" id="77" fill="rgb(255,219,230)" fill-opacity="0.5019607843137255" /></g>
<g transform="translate(10.0 101.0) rotate(178.0) scale(13.0 2.0)"><ellipse cx="0" cy="0" rx="1" ry="1" id="78" fill="rgb(60,51,47)" fill-opacity="0.5019607843137255" /></g>
<g transform="translate(105.0 169.0) rotate(277.0) scale(26.0 33.0)"><ellipse cx="0" cy="0" rx="1" ry="1" id="79" fill="rgb(1,5,15)" fill-opacity="0.5019607843137255" /></g>
<g transform="translate(103.0 216.0) rotate(65.0) scale(24.0 4.0)"><ellipse cx="0" cy="0" rx="1" ry="1" id="80" fill="rgb(192,194,196)" fill-opacity="0.5019607843137255" /></g>
<g transform="translate(235.0 41.0) rotate(0.0) scale(12.0 4.0)"><ellipse cx="0" cy="0" rx="1" ry="1" id="81" fill="rgb(73,70,71)" fill-opacity="0.5019607843137255" /></g>
<g transform="translate(13.0 229.0) rotate(298.0) scale(8.0 30.0)"><ellipse cx="0" cy="0" rx="1" ry="1" id="82" fill="rgb(196,193,193)" fill-opacity="0.5019607843137255" /></g>
<g transform="translate(156.0 253.0) rotate(286.0) scale(1.0 24.0)"><ellipse cx="0" cy="0" rx="1" ry="1" id="83" fill="rgb(94,92,91)" fill-opacity="0.5019607843137255" /></g>
<g transform="translate(270.0 168.0) rotate(27.0) scale(40.0 7.0)"><ellipse cx="0" cy="0" rx="1" ry="1" id="84" fill="rgb(187,189,187)" fill-opacity="0.5019607843137255" /></g>
<g transform="translate(147.0 0.0) rotate(15.0) scale(17.0 2.0)"><ellipse cx="0" cy="0" rx="1" ry="1" id="85" fill="rgb(55,60,43)" fill-opacity="0.5019607843137255" /></g>
<g transform="translate(36.0 283.0) rotate(283.0) scale(8.0 22.0)"><ellipse cx="0" cy="0" rx="1" ry="1" id="86" fill="rgb(198,200,202)" fill-opacity="0.5019607843137255" /></g>
<g transform="translate(135.0 85.0) rotate(91.0) scale(9.0 30.0)"><ellipse cx="0" cy="0" rx="1" ry="1" id="87" fill="rgb(166,164,148)" fill-opacity="0.5019607843137255" /></g>
<g transform="translate(175.0 240.0) rotate(347.0) scale(10.0 15.0)"><ellipse cx="0" cy="0" rx="1" ry="1" id="88" fill="rgb(197,192,181)" fill-opacity="0.5019607843137255" /></g>
<g transform="translate(162.0 272.0) rotate(65.0) scale(17.0 3.0)"><ellipse cx="0" cy="0" rx="1" ry="1" id="89" fill="rgb(69,66,67)" fill-opacity="0.5019607843137255" /></g>
<g transform="translate(182.0 130.0) rotate(11.0) scale(19.0 27.0)"><ellipse cx="0" cy="0" rx="1" ry="1" id="90" fill="rgb(14,19,35)" fill-opacity="0.5019607843137255" /></g>
<g transform="translate(126.0 211.0) rotate(246.0) scale(12.0 18.0)"><ellipse cx="0" cy="0" rx="1" ry="1" id="91" fill="rgb(13,12,14)" fill-opacity="0.5019607843137255" /></g>
<g transform="translate(91.0 317.0) rotate(306.0) scale(19.0 45.0)"><ellipse cx="0" cy="0" rx="1" ry="1" id="92" fill="rgb(145,151,156)" fill-opacity="0.5019607843137255" /></g>
<g transform="translate(221.0 179.0) rotate(222.0) scale(7.0 10.0)"><ellipse cx="0" cy="0" rx="1" ry="1" id="93" fill="rgb(159,155,153)" fill-opacity="0.5019607843137255" /></g>
<g transform="translate(37.0 187.0) rotate(261.0) scale(7.0 37.0)"><ellipse cx="0" cy="0" rx="1" ry="1" id="94" fill="rgb(199,200,195)" fill-opacity="0.5019607843137255" /></g>
<g transform="translate(20.0 143.0) rotate(334.0) scale(13.0 10.0)"><ellipse cx="0" cy="0" rx="1" ry="1" id="95" fill="rgb(140,141,141)" fill-opacity="0.5019607843137255" /></g>
<g transform="translate(266.0 55.0) rotate(105.0) scale(10.0 31.0)"><ellipse cx="0" cy="0" rx="1" ry="1" id="96" fill="rgb(145,141,121)" fill-opacity="0.5019607843137255" /></g>
<g transform="translate(18.0 62.0) rotate(230.0) scale(33.0 23.0)"><ellipse cx="0" cy="0" rx="1" ry="1" id="97" fill="rgb(103,97,88)" fill-opacity="0.5019607843137255" /></g>
<g transform="translate(152.0 74.0) rotate(360.0) scale(18.0 4.0)"><ellipse cx="0" cy="0" rx="1" ry="1" id="98" fill="rgb(116,103,90)" fill-opacity="0.5019607843137255" /></g>
<g transform="translate(54.0 23.0) rotate(202.0) scale(39.0 6.0)"><ellipse cx="0" cy="0" rx="1" ry="1" id="99" fill="rgb(58,72,51)" fill-opacity="0.5019607843137255" /></g>
<g transform="translate(225.0 78.0) rotate(241.0) scale(8.0 32.0)"><ellipse cx="0" cy="0" rx="1" ry="1" id="100" fill="rgb(13,21,33)" fill-opacity="0.5019607843137255" /></g>
<g transform="translate(154.0 127.0) rotate(258.0) scale(12.0 11.0)"><ellipse cx="0" cy="0" rx="1" ry="1" id="101" fill="rgb(43,43,51)" fill-opacity="0.5019607843137255" /></g>
<g transform="translate(263.0 139.0) rotate(198.0) scale(16.0 7.0)"><ellipse cx="0" cy="0" rx="1" ry="1" id="102" fill="rgb(163,156,153)" fill-opacity="0.5019607843137255" /></g>
<g transform="translate(225.0 97.0) rotate(191.0) scale(32.0 36.0)"><ellipse cx="0" cy="0" rx="1" ry="1" id="103" fill="rgb(6,13,27)" fill-opacity="0.5019607843137255" /></g>
<g transform="translate(176.0 263.0) rotate(124.0) scale(10.0 15.0)"><ellipse cx="0" cy="0" rx="1" ry="1" id="104" fill="rgb(154,155,151)" fill-opacity="0.5019607843137255" /></g>
<g transform="translate(135.0 37.0) rotate(121.0) scale(1.0 10.0)"><ellipse cx="0" cy="0" rx="1" ry="1" id="105" fill="rgb(194,190,152)" fill-opacity="0.5019607843137255" /></g>
<g transform="translate(178.0 298.0) rotate(193.0) scale(28.0 5.0)"><ellipse cx="0" cy="0" rx="1" ry="1" id="106" fill="rgb(165,165,165)" fill-opacity="0.5019607843137255" /></g>
<g transform="translate(4.0 93.0) rotate(152.0) scale(8.0 8.0)"><ellipse cx="0" cy="0" rx="1" ry="1" id="107" fill="rgb(163,159,142)" fill-opacity="0.5019607843137255" /></g>
<g transform="translate(50.0 2.0) rotate(344.0) scale(28.0 17.0)"><ellipse cx="0" cy="0" rx="1" ry="1" id="108" fill="rgb(81,110,52)" fill-opacity="0.5019607843137255" /></g>
<g transform="translate(145.0 44.0) rotate(217.0) scale(2.0 22.0)"><ellipse cx="0" cy="0" rx="1" ry="1" id="109" fill="rgb(142,139,107)" fill-opacity="0.5019607843137255" /></g>
<g transform="translate(97.0 260.0) rotate(308.0) scale(3.0 10.0)"><ellipse cx="0" cy="0" rx="1" ry="1" id="110" fill="rgb(196,189,182)" fill-opacity="0.5019607843137255" /></g>
<g transform="translate(84.0 284.0) rotate(193.0) scale(46.0 7.0)"><ellipse cx="0" cy="0" rx="1" ry="1" id="111" fill="rgb(179,181,181)" fill-opacity="0.5019607843137255" /></g>
<g transform="translate(33.0 119.0) rotate(45.0) scale(7.0 20.0)"><ellipse cx="0" cy="0" rx="1" ry="1" id="112" fill="rgb(184,177,171)" fill-opacity="0.5019607843137255" /></g>
<g transform="translate(43.0 49.0) rotate(343.0) scale(7.0 14.0)"><ellipse cx="0" cy="0" rx="1" ry="1" id="113" fill="rgb(107,30,38)" fill-opacity="0.5019607843137255" /></g>
<g transform="translate(277.0 258.0) rotate(246.0) scale(6.0 15.0)"><ellipse cx="0" cy="0" rx="1" ry="1" id="114" fill="rgb(210,204,189)" fill-opacity="0.5019607843137255" /></g>
<g transform="translate(130.0 253.0) rotate(360.0) scale(15.0 4.0)"><ellipse cx="0" cy="0" rx="1" ry="1" id="115" fill="rgb(184,189,187)" fill-opacity="0.5019607843137255" /></g>
<g transform="translate(266.0 224.0) rotate(255.0) scale(13.0 36.0)"><ellipse cx="0" cy="0" rx="1" ry="1" id="116" fill="rgb(188,191,190)" fill-opacity="0.5019607843137255" /></g>
<g transform="translate(82.0 214.0) rotate(189.0) scale(34.0 1.0)"><ellipse cx="0" cy="0" rx="1" ry="1" id="117" fill="rgb(89,89,88)" fill-opacity="0.5019607843137255" /></g>
<g transform="translate(124.0 276.0) rotate(320.0) scale(2.0 22.0)"><ellipse cx="0" cy="0" rx="1" ry="1" id="118" fill="rgb(70,66,70)" fill-opacity="0.5019607843137255" /></g>
<g transform="translate(233.0 220.0) rotate(239.0) scale(1.0 17.0)"><ellipse cx="0" cy="0" rx="1" ry="1" id="119" fill="rgb(97,92,87)" fill-opacity="0.5019607843137255" /></g>
<g transform="translate(171.0 72.0) rotate(281.0) scale(2.0 25.0)"><ellipse cx="0" cy="0" rx="1" ry="1" id="120" fill="rgb(181,173,155)" fill-opacity="0.5019607843137255" /></g>
<g transform="translate(268.0 196.0) rotate(330.0) scale(20.0 20.0)"><ellipse cx="0" cy="0" rx="1" ry="1" id="121" fill="rgb(158,153,153)" fill-opacity="0.5019607843137255" /></g>
<g transform="translate(25.0 135.0) rotate(70.0) scale(2.0 14.0)"><ellipse cx="0" cy="0" rx="1" ry="1" id="122" fill="rgb(105,100,100)" fill-opacity="0.5019607843137255" /></g>
<g transform="translate(123.0 274.0) rotate(264.0) scale(5.0 23.0)"><ellipse cx="0" cy="0" rx="1" ry="1" id="123" fill="rgb(144,143,144)" fill-opacity="0.5019607843137255" /></g>
<g transform="translate(180.0 87.0) rotate(258.0) scale(14.0 14.0)"><ellipse cx="0" cy="0" rx="1" ry="1" id="124" fill="rgb(163,160,154)" fill-opacity="0.5019607843137255" /></g>
<g transform="translate(223.0 14.0) rotate(250.0) scale(27.0 32.0)"><ellipse cx="0" cy="0" rx="1" ry="1" id="125" fill="rgb(151,150,144)" fill-opacity="0.5019607843137255" /></g>
<g transform="translate(119.0 59.0) rotate(21.0) scale(19.0 5.0)"><ellipse cx="0" cy="0" rx="1" ry="1" id="126" fill="rgb(42,35,47)" fill-opacity="0.5019607843137255" /></g>
<g transform="translate(248.0 66.0) rotate(74.0) scale(2.0 22.0)"><ellipse cx="0" cy="0" rx="1" ry="1" id="127" fill="rgb(53,49,51)" fill-opacity="0.5019607843137255" /></g>
<g transform="translate(54.0 292.0) rotate(249.0) scale(2.0 11.0)"><ellipse cx="0" cy="0" rx="1" ry="1" id="128" fill="rgb(103,100,97)" fill-opacity="0.5019607843137255" /></g>
<g transform="translate(48.0 154.0) rotate(181.0) scale(1.0 9.0)"><ellipse cx="0" cy="0" rx="1" ry="1" id="129" fill="rgb(235,233,234)" fill-opacity="0.5019607843137255" /></g>
<g transform="translate(127.0 25.0) rotate(356.0) scale(13.0 17.0)"><ellipse cx="0" cy="0" rx="1" ry="1" id="130" fill="rgb(120,126,94)" fill-opacity="0.5019607843137255" /></g>
<g transform="translate(15.0 179.0) rotate(270.0) scale(1.0 3.0)"><ellipse cx="0" cy="0" rx="1" ry="1" id="131" fill="rgb(26,23,23)" fill-opacity="0.5019607843137255" /></g>
<g transform="translate(89.0 86.0) rotate(23.0) scale(35.0 5.0)"><ellipse cx="0" cy="0" rx="1" ry="1" id="132" fill="rgb(12,21,36)" fill-opacity="0.5019607843137255" /></g>
<g transform="translate(141.0 110.0) rotate(297.0) scale(2.0 39.0)"><ellipse cx="0" cy="0" rx="1" ry="1" id="133" fill="rgb(31,32,45)" fill-opacity="0.5019607843137255" /></g>
<g transform="translate(142.0 87.0) rotate(261.0) scale(1.0 63.0)"><ellipse cx="0" cy="0" rx="1" ry="1" id="134" fill="rgb(35,34,37)" fill-opacity="0.5019607843137255" /></g>
<g transform="translate(67.0 80.0) rotate(335.0) scale(19.0 28.0)"><ellipse cx="0" cy="0" rx="1" ry="1" id="135" fill="rgb(2,7,13)" fill-opacity="0.5019607843137255" /></g>
<g transform="translate(152.0 203.0) rotate(87.0) scale(32.0 21.0)"><ellipse cx="0" cy="0" rx="1" ry="1" id="136" fill="rgb(4,7,17)" fill-opacity="0.5019607843137255" /></g>
<g transform="translate(60.0 101.0) rotate(270.0) scale(25.0 12.0)"><ellipse cx="0" cy="0" rx="1" ry="1" id="137" fill="rgb(5,9,19)" fill-opacity="0.5019607843137255" /></g>
<g transform="translate(244.0 169.0) rotate(76.0) scale(24.0 7.0)"><ellipse cx="0" cy="0" rx="1" ry="1" id="138" fill="rgb(175,172,172)" fill-opacity="0.5019607843137255" /></g>
<g transform="translate(102.0 319.0) rotate(222.0) scale(2.0 24.0)"><ellipse cx="0" cy="0" rx="1" ry="1" id="139" fill="rgb(78,80,85)" fill-opacity="0.5019607843137255" /></g>
<g transform="translate(136.0 80.0) rotate(351.0) scale(23.0 2.0)"><ellipse cx="0" cy="0" rx="1" ry="1" id="140" fill="rgb(114,114,92)" fill-opacity="0.5019607843137255" /></g>
<g transform="translate(197.0 82.0) rotate(183.0) scale(2.0 10.0)"><ellipse cx="0" cy="0" rx="1" ry="1" id="141" fill="rgb(0,0,0)" fill-opacity="0.5019607843137255" /></g>
<g transform="translate(147.0 239.0) rotate(305.0) scale(2.0 9.0)"><ellipse cx="0" cy="0" rx="1" ry="1" id="142" fill="rgb(213,210,194)" fill-opacity="0.5019607843137255" /></g>
<g transform="translate(276.0 82.0) rotate(2.0) scale(9.0 2.0)"><ellipse cx="0" cy="0" rx="1" ry="1" id="143" fill="rgb(86,80,78)" fill-opacity="0.5019607843137255" /></g>
<g transform="translate(203.0 303.0) rotate(321.0) scale(57.0 4.0)"><ellipse cx="0" cy="0" rx="1" ry="1" id="144" fill="rgb(128,127,125)" fill-opacity="0.5019607843137255" /></g>
<g transform="translate(100.0 272.0) rotate(66.0) scale(2.0 9.0)"><ellipse cx="0" cy="0" rx="1" ry="1" id="145" fill="rgb(25,16,17)" fill-opacity="0.5019607843137255" /></g>
<g transform="translate(186.0 256.0) rotate(228.0) scale(4.0 28.0)"><ellipse cx="0" cy="0" rx="1" ry="1" id="146" fill="rgb(141,140,132)" fill-opacity="0.5019607843137255" /></g>
<g transform="translate(44.0 39.0) rotate(133.0) scale(20.0 1.0)"><ellipse cx="0" cy="0" rx="1" ry="1" id="147" fill="rgb(45,26,31)" fill-opacity="0.5019607843137255" /></g>
<g transform="translate(101.0 299.0) rotate(99.0) scale(1.0 24.0)"><ellipse cx="0" cy="0" rx="1" ry="1" id="148" fill="rgb(57,60,63)" fill-opacity="0.5019607843137255" /></g>
<g transform="translate(63.0 141.0) rotate(262.0) scale(37.0 11.0)"><ellipse cx="0" cy="0" rx="1" ry="1" id="149" fill="rgb(14,20,29)" fill-opacity="0.5019607843137255" /></g>
<g transform="translate(133.0 204.0) rotate(315.0) scale(29.0 12.0)"><ellipse cx="0" cy="0" rx="1" ry="1" id="150" fill="rgb(12,13,20)" fill-opacity="0.5019607843137255" /></g>
<g transform="translate(99.0 222.0) rotate(263.0) scale(14.0 11.0)"><ellipse cx="0" cy="0" rx="1" ry="1" id="151" fill="rgb(169,167,167)" fill-opacity="0.5019607843137255" /></g>
<g transform="translate(276.0 106.0) rotate(162.0) scale(14.0 25.0)"><ellipse cx="0" cy="0" rx="1" ry="1" id="152" fill="rgb(171,167,160)" fill-opacity="0.5019607843137255" /></g>
<g transform="translate(23.0 214.0) rotate(240.0) scale(2.0 48.0)"><ellipse cx="0" cy="0" rx="1" ry="1" id="153" fill="rgb(146,138,132)" fill-opacity="0.5019607843137255" /></g>
<g transform="translate(84.0 282.0) rotate(304.0) scale(12.0 3.0)"><ellipse cx="0" cy="0" rx="1" ry="1" id="154" fill="rgb(182,183,180)" fill-opacity="0.5019607843137255" /></g>
<g transform="translate(180.0 5.0) rotate(170.0) scale(30.0 4.0)"><ellipse cx="0" cy="0" rx="1" ry="1" id="155" fill="rgb(170,171,164)" fill-opacity="0.5019607843137255" /></g>
<g transform="translate(155.0 230.0) rotate(88.0) scale(58.0 1.0)"><ellipse cx="0" cy="0" rx="1" ry="1" id="156" fill="rgb(24,23,29)" fill-opacity="0.5019607843137255" /></g>
<g transform="translate(179.0 213.0) rotate(194.0) scale(11.0 12.0)"><ellipse cx="0" cy="0" rx="1" ry="1" id="157" fill="rgb(0,0,1)" fill-opacity="0.5019607843137255" /></g>
<g transform="translate(262.0 117.0) rotate(360.0) scale(9.0 4.0)"><ellipse cx="0" cy="0" rx="1" ry="1" id="158" fill="rgb(193,188,173)" fill-opacity="0.5019607843137255" /></g>
<g transform="translate(193.0 287.0) rotate(271.0) scale(7.0 29.0)"><ellipse cx="0" cy="0" rx="1" ry="1" id="159" fill="rgb(134,134,131)" fill-opacity="0.5019607843137255" /></g>
<g transform="translate(248.0 32.0) rotate(86.0) scale(5.0 18.0)"><ellipse cx="0" cy="0" rx="1" ry="1" id="160" fill="rgb(179,182,181)" fill-opacity="0.5019607843137255" /></g>
<g transform="translate(87.0 44.0) rotate(321.0) scale(10.0 3.0)"><ellipse cx="0" cy="0" rx="1" ry="1" id="161" fill="rgb(142,135,129)" fill-opacity="0.5019607843137255" /></g>
<g transform="translate(40.0 137.0) rotate(278.0) scale(29.0 10.0)"><ellipse cx="0" cy="0" rx="1" ry="1" id="162" fill="rgb(171,169,167)" fill-opacity="0.5019607843137255" /></g>
<g transform="translate(152.0 301.0) rotate(99.0) scale(1.0 31.0)"><ellipse cx="0" cy="0" rx="1" ry="1" id="163" fill="rgb(93,92,96)" fill-opacity="0.5019607843137255" /></g>
<g transform="translate(141.0 8.0) rotate(40.0) scale(31.0 4.0)"><ellipse cx="0" cy="0" rx="1" ry="1" id="164" fill="rgb(134,145,117)" fill-opacity="0.5019607843137255" /></g>
<g transform="translate(140.0 93.0) rotate(281.0) scale(5.0 33.0)"><ellipse cx="0" cy="0" rx="1" ry="1" id="165" fill="rgb(185,181,171)" fill-opacity="0.5019607843137255" /></g>
<g transform="translate(92.0 19.0) rotate(285.0) scale(4.0 46.0)"><ellipse cx="0" cy="0" rx="1" ry="1" id="166" fill="rgb(70,94,47)" fill-opacity="0.5019607843137255" /></g>
<g transform="translate(65.0 158.0) rotate(139.0) scale(14.0 16.0)"><ellipse cx="0" cy="0" rx="1" ry="1" id="167" fill="rgb(11,14,22)" fill-opacity="0.5019607843137255" /></g>
<g transform="translate(209.0 264.0) rotate(103.0) scale(14.0 24.0)"><ellipse cx="0" cy="0" rx="1" ry="1" id="168" fill="rgb(167,170,172)" fill-opacity="0.5019607843137255" /></g>
<g transform="translate(214.0 204.0) rotate(19.0) scale(6.0 19.0)"><ellipse cx="0" cy="0" rx="1" ry="1" id="169" fill="rgb(192,195,198)" fill-opacity="0.5019607843137255" /></g>
<g transform="translate(245.0 213.0) rotate(317.0) scale(29.0 2.0)"><ellipse cx="0" cy="0" rx="1" ry="1" id="170" fill="rgb(136,134,130)" fill-opacity="0.5019607843137255" /></g>
<g transform="translate(24.0 90.0) rotate(268.0) scale(4.0 24.0)"><ellipse cx="0" cy="0" rx="1" ry="1" id="171" fill="rgb(134,130,107)" fill-opacity="0.5019607843137255" /></g>
<g transform="translate(155.0 276.0) rotate(117.0) scale(10.0 3.0)"><ellipse cx="0" cy="0" rx="1" ry="1" id="172" fill="rgb(132,130,128)" fill-opacity="0.5019607843137255" /></g>
<g transform="translate(20.0 174.0) rotate(150.0) scale(32.0 1.0)"><ellipse cx="0" cy="0" rx="1" ry="1" id="173" fill="rgb(126,121,120)" fill-opacity="0.5019607843137255" /></g>
<g transform="translate(234.0 100.0) rotate(218.0) scale(21.0 31.0)"><ellipse cx="0" cy="0" rx="1" ry="1" id="174" fill="rgb(8,14,27)" fill-opacity="0.5019607843137255" /></g>
<g transform="translate(19.0 265.0) rotate(178.0) scale(20.0 1.0)"><ellipse cx="0" cy="0" rx="1" ry="1" id="175" fill="rgb(108,106,108)" fill-opacity="0.5019607843137255" /></g>
<g transform="translate(243.0 306.0) rotate(98.0) scale(3.0 31.0)"><ellipse cx="0" cy="0" rx="1" ry="1" id="176" fill="rgb(175,172,176)" fill-opacity="0.5019607843137255" /></g>
<g transform="translate(80.0 200.0) rotate(101.0) scale(6.0 23.0)"><ellipse cx="0" cy="0" rx="1" ry="1" id="177" fill="rgb(206,208,208)" fill-opacity="0.5019607843137255" /></g>
<g transform="translate(76.0 276.0) rotate(138.0) scale(28.0 1.0)"><ellipse cx="0" cy="0" rx="1" ry="1" id="178" fill="rgb(96,90,86)" fill-opacity="0.5019607843137255" /></g>
<g transform="translate(254.0 179.0) rotate(29.0) scale(3.0 2.0)"><ellipse cx="0" cy="0" rx="1" ry="1" id="179" fill="rgb(26,16,18)" fill-opacity="0.5019607843137255" /></g>
<g transform="translate(122.0 42.0) rotate(26.0) scale(3.0 4.0)"><ellipse cx="0" cy="0" rx="1" ry="1" id="180" fill="rgb(167,161,129)" fill-opacity="0.5019607843137255" /></g>
<g transform="translate(280.0 200.0) rotate(320.0) scale(15.0 12.0)"><ellipse cx="0" cy="0" rx="1" ry="1" id="181" fill="rgb(184,183,183)" fill-opacity="0.5019607843137255" /></g>
<g transform="translate(37.0 278.0) rotate(0.0) scale(26.0 9.0)"><ellipse cx="0" cy="0" rx="1" ry="1" id="182" fill="rgb(189,189,189)" fill-opacity="0.5019607843137255" /></g>
<g transform="translate(39.0 248.0) rotate(197.0) scale(11.0 1.0)"><ellipse cx="0" cy="0" rx="1" ry="1" id="183" fill="rgb(101,100,99)" fill-opacity="0.5019607843137255" /></g>
<g transform="translate(130.0 283.0) rotate(4.0) scale(21.0 1.0)"><ellipse cx="0" cy="0" rx="1" ry="1" id="184" fill="rgb(41,36,39)" fill-opacity="0.5019607843137255" /></g>
<g transform="translate(239.0 284.0) rotate(70.0) scale(10.0 16.0)"><ellipse cx="0" cy="0" rx="1" ry="1" id="185" fill="rgb(140,141,143)" fill-opacity="0.5019607843137255" /></g>
<g transform="translate(149.0 58.0) rotate(299.0) scale(4.0 10.0)"><ellipse cx="0" cy="0" rx="1" ry="1" id="186" fill="rgb(45,40,34)" fill-opacity="0.5019607843137255" /></g>
<g transform="translate(214.0 131.0) rotate(241.0) scale(23.0 33.0)"><ellipse cx="0" cy="0" rx="1" ry="1" id="187" fill="rgb(4,9,20)" fill-opacity="0.5019607843137255" /></g>
<g transform="translate(7.0 164.0) rotate(134.0) scale(30.0 13.0)"><ellipse cx="0" cy="0" rx="1" ry="1" id="188" fill="rgb(183,177,178)" fill-opacity="0.5019607843137255" /></g>
<g transform="translate(189.0 233.0) rotate(101.0) scale(10.0 9.0)"><ellipse cx="0" cy="0" rx="1" ry="1" id="189" fill="rgb(202,195,184)" fill-opacity="0.5019607843137255" /></g>
<g transform="translate(47.0 23.0) rotate(77.0) scale(2.0 19.0)"><ellipse cx="0" cy="0" rx="1" ry="1" id="190" fill="rgb(40,53,36)" fill-opacity="0.5019607843137255" /></g>
<g transform="translate(162.0 34.0) rotate(18.0) scale(26.0 10.0)"><ellipse cx="0" cy="0" rx="1" ry="1" id="191" fill="rgb(117,115,93)" fill-opacity="0.5019607843137255" /></g>
<g transform="translate(21.0 149.0) rotate(18.0) scale(20.0 3.0)"><ellipse cx="0" cy="0" rx="1" ry="1" id="192" fill="rgb(141,141,138)" fill-opacity="0.5019607843137255" /></g>
<g transform="translate(2.0 93.0) rotate(115.0) scale(2.0 24.0)"><ellipse cx="0" cy="0" rx="1" ry="1" id="193" fill="rgb(86,74,64)" fill-opacity="0.5019607843137255" /></g>
<g transform="translate(96.0 0.0) rotate(359.0) scale(19.0 13.0)"><ellipse cx="0" cy="0" rx="1" ry="1" id="194" fill="rgb(111,139,74)" fill-opacity="0.5019607843137255" /></g>
<g transform="translate(142.0 301.0) rotate(72.0) scale(7.0 17.0)"><ellipse cx="0" cy="0" rx="1" ry="1" id="195" fill="rgb(156,156,157)" fill-opacity="0.5019607843137255" /></g>
<g transform="translate(159.0 130.0) rotate(88.0) scale(4.0 8.0)"><ellipse cx="0" cy="0" rx="1" ry="1" id="196" fill="rgb(75,71,74)" fill-opacity="0.5019607843137255" /></g>
<g transform="translate(215.0 65.0) rotate(116.0) scale(7.0 10.0)"><ellipse cx="0" cy="0" rx="1" ry="1" id="197" fill="rgb(32,28,32)" fill-opacity="0.5019607843137255" /></g>
<g transform="translate(152.0 216.0) rotate(271.0) scale(22.0 8.0)"><ellipse cx="0" cy="0" rx="1" ry="1" id="198" fill="rgb(3,4,9)" fill-opacity="0.5019607843137255" /></g>
<g transform="translate(280.0 18.0) rotate(167.0) scale(17.0 52.0)"><ellipse cx="0" cy="0" rx="1" ry="1" id="199" fill="rgb(141,140,138)" fill-opacity="0.5019607843137255" /></g>
<g transform="translate(23.0 290.0) rotate(281.0) scale(1.0 27.0)"><ellipse cx="0" cy="0" rx="1" ry="1" id="200" fill="rgb(71,69,68)" fill-opacity="0.5019607843137255" /></g>
</svg>