<?xml version="1.0" encoding="UTF-8" standalone="no"?>
<!DOCTYPE svg PUBLIC "-//W3C//DTD SVG 1.1//EN" "http://www.w3.org/Graphics/SVG/1.1/DTD/svg11.dtd">
<svg xmlns:xlink="http://www.w3.org/1999/xlink" version="1.1" xmlns="http://www.w3.org/2000/svg"  width="1123" height="1280" viewBox="0 0 281 320">
<rect x="0.0" y="0.0" width="281.0" height="320.0" id="0" fill="rgb(109,109,108)" fill-opacity="1.0" />
<polygon points="13.0,73.0 151.0,272.0 253.0,114.0" id="1" fill="rgb(0,0,0)" fill-opacity="0.5019607843137255"/>
<polygon points="197.0,40.0 186.0,236.0 253.0,84.0" id="2" fill="rgb(0,0,0)" fill-opacity="0.5019607843137255"/>
<polygon points="93.0,79.0 155.0,112.0 186.0,81.0" id="3" fill="rgb(223,215,198)" fill-opacity="0.5019607843137255"/>
<polygon points="0.0,103.0 0.0,319.0 74.0,183.0" id="4" fill="rgb(236,231,227)" fill-opacity="0.5019607843137255"/>
<polygon points="0.0,9.0 164.0,257.0 77.0,60.0" id="5" fill="rgb(0,0,0)" fill-opacity="0.5019607843137255"/>
<polygon points="100.0,212.0 239.0,49.0 253.0,118.0" id="6" fill="rgb(0,0,4)" fill-opacity="0.5019607843137255"/>
<polygon points="280.0,118.0 280.0,319.0 162.0,237.0" id="7" fill="rgb(219,218,217)" fill-opacity="0.5019607843137255"/>
<polygon points="128.0,218.0 96.0,319.0 149.0,247.0" id="8" fill="rgb(202,199,198)" fill-opacity="0.5019607843137255"/>
<polygon points="45.0,1.0 216.0,232.0 52.0,170.0" id="9" fill="rgb(0,0,1)" fill-opacity="0.5019607843137255"/>
<polygon points="0.0,142.0 280.0,319.0 29.0,304.0" id="10" fill="rgb(188,186,185)" fill-opacity="0.5019607843137255"/>
<polygon points="68.0,147.0 260.0,127.0 122.0,240.0" id="11" fill="rgb(0,0,11)" fill-opacity="0.5019607843137255"/>
<polygon points="98.0,251.0 115.0,284.0 146.0,282.0" id="12" fill="rgb(53,46,50)" fill-opacity="0.5019607843137255"/>
<polygon points="15.0,70.0 23.0,319.0 53.0,98.0" id="13" fill="rgb(185,180,174)" fill-opacity="0.5019607843137255"/>
<polygon points="280.0,56.0 231.0,181.0 276.0,110.0" id="14" fill="rgb(209,203,196)" fill-opacity="0.5019607843137255"/>
<polygon points="0.0,0.0 199.0,59.0 115.0,65.0" id="15" fill="rgb(52,57,29)" fill-opacity="0.5019607843137255"/>
<polygon points="43.0,156.0 121.0,216.0 110.0,165.0" id="16" fill="rgb(0,0,0)" fill-opacity="0.5019607843137255"/>
<polygon points="72.0,186.0 0.0,319.0 39.0,319.0" id="17" fill="rgb(202,202,199)" fill-opacity="0.5019607843137255"/>
<polygon points="8.0,17.0 42.0,115.0 53.0,29.0" id="18" fill="rgb(151,104,98)" fill-opacity="0.5019607843137255"/>
<polygon points="280.0,0.0 127.0,0.0 224.0,63.0" id="19" fill="rgb(180,178,164)" fill-opacity="0.5019607843137255"/>
<polygon points="166.0,0.0 280.0,94.0 280.0,35.0" id="20" fill="rgb(168,164,152)" fill-opacity="0.5019607843137255"/>
<polygon points="132.0,148.0 244.0,52.0 260.0,94.0" id="21" fill="rgb(0,3,26)" fill-opacity="0.5019607843137255"/>
<polygon points="103.0,92.0 171.0,111.0 195.0,89.0" id="22" fill="rgb(196,191,183)" fill-opacity="0.5019607843137255"/>
<polygon points="147.0,238.0 261.0,84.0 204.0,208.0" id="23" fill="rgb(0,0,2)" fill-opacity="0.5019607843137255"/>
<polygon points="47.0,160.0 97.0,210.0 74.0,227.0" id="24" fill="rgb(205,206,203)" fill-opacity="0.5019607843137255"/>
<polygon points="235.0,179.0 280.0,243.0 174.0,238.0" id="25" fill="rgb(196,196,195)" fill-opacity="0.5019607843137255"/>
<polygon points="14.0,304.0 265.0,319.0 64.0,319.0" id="26" fill="rgb(201,205,212)" fill-opacity="0.5019607843137255"/>
<polygon points="13.0,0.0 252.0,38.0 197.0,69.0" id="27" fill="rgb(105,112,75)" fill-opacity="0.5019607843137255"/>
<polygon points="158.0,268.0 125.0,297.0 175.0,283.0" id="28" fill="rgb(46,42,45)" fill-opacity="0.5019607843137255"/>
<polygon points="57.0,270.0 119.0,283.0 96.0,264.0" id="29" fill="rgb(59,50,52)" fill-opacity="0.5019607843137255"/>
<polygon points="193.0,0.0 150.0,110.0 221.0,45.0" id="30" fill="rgb(149,140,135)" fill-opacity="0.5019607843137255"/>
<polygon points="164.0,223.0 248.0,296.0 166.0,258.0" id="31" fill="rgb(180,181,175)" fill-opacity="0.5019607843137255"/>
<polygon points="41.0,63.0 63.0,180.0 112.0,46.0" id="32" fill="rgb(6,14,30)" fill-opacity="0.5019607843137255"/>
<polygon points="0.0,0.0 139.0,0.0 110.0,37.0" id="33" fill="rgb(71,108,33)" fill-opacity="0.5019607843137255"/>
<polygon points="210.0,54.0 151.0,185.0 264.0,106.0" id="34" fill="rgb(1,9,25)" fill-opacity="0.5019607843137255"/>
<polygon points="65.0,190.0 105.0,212.0 98.0,196.0" id="35" fill="rgb(235,237,237)" fill-opacity="0.5019607843137255"/>
<polygon points="204.0,0.0 252.0,63.0 223.0,57.0" id="36" fill="rgb(149,145,138)" fill-opacity="0.5019607843137255"/>
<polygon points="107.0,213.0 159.0,233.0 187.0,205.0" id="37" fill="rgb(0,0,0)" fill-opacity="0.5019607843137255"/>
<polygon points="126.0,220.0 123.0,254.0 153.0,240.0" id="38" fill="rgb(200,194,183)" fill-opacity="0.5019607843137255"/>
<polygon points="164.0,227.0 164.0,257.0 176.0,226.0" id="39" fill="rgb(213,209,196)" fill-opacity="0.5019607843137255"/>
<polygon points="225.0,2.0 280.0,133.0 279.0,22.0" id="40" fill="rgb(166,164,157)" fill-opacity="0.5019607843137255"/>
<polygon points="106.0,216.0 163.0,233.0 180.0,203.0" id="41" fill="rgb(0,0,7)" fill-opacity="0.5019607843137255"/>
<polygon points="64.0,26.0 112.0,97.0 111.0,68.0" id="42" fill="rgb(113,105,99)" fill-opacity="0.5019607843137255"/>
<polygon points="97.0,37.0 147.0,65.0 109.0,71.0" id="43" fill="rgb(55,46,47)" fill-opacity="0.5019607843137255"/>
<polygon points="145.0,148.0 122.0,239.0 107.0,257.0" id="44" fill="rgb(21,15,14)" fill-opacity="0.5019607843137255"/>
<polygon points="102.0,147.0 251.0,64.0 258.0,131.0" id="45" fill="rgb(12,19,33)" fill-opacity="0.5019607843137255"/>
<polygon points="148.0,56.0 167.0,110.0 193.0,89.0" id="46" fill="rgb(175,167,154)" fill-opacity="0.5019607843137255"/>
<polygon points="38.0,35.0 118.0,235.0 73.0,35.0" id="47" fill="rgb(7,6,19)" fill-opacity="0.5019607843137255"/>
<polygon points="51.0,212.0 122.0,232.0 88.0,253.0" id="48" fill="rgb(195,185,181)" fill-opacity="0.5019607843137255"/>
<polygon points="211.0,114.0 218.0,172.0 235.0,154.0" id="49" fill="rgb(0,1,12)" fill-opacity="0.5019607843137255"/>
<polygon points="20.0,126.0 44.0,93.0 52.0,130.0" id="50" fill="rgb(203,198,189)" fill-opacity="0.5019607843137255"/>
<polygon points="46.0,101.0 47.0,90.0 42.0,63.0" id="51" fill="rgb(200,203,189)" fill-opacity="0.5019607843137255"/>
<polygon points="53.0,167.0 182.0,228.0 204.0,201.0" id="52" fill="rgb(1,4,13)" fill-opacity="0.5019607843137255"/>
<polygon points="1.0,103.0 50.0,110.0 23.0,142.0" id="53" fill="rgb(174,166,160)" fill-opacity="0.5019607843137255"/>
<polygon points="91.0,287.0 151.0,238.0 153.0,268.0" id="54" fill="rgb(150,149,147)" fill-opacity="0.5019607843137255"/>
<polygon points="100.0,265.0 115.0,279.0 119.0,244.0" id="55" fill="rgb(89,82,79)" fill-opacity="0.5019607843137255"/>
<polygon points="206.0,177.0 239.0,193.0 280.0,177.0" id="56" fill="rgb(154,146,149)" fill-opacity="0.5019607843137255"/>
<polygon points="156.0,65.0 140.0,107.0 108.0,87.0" id="57" fill="rgb(166,162,145)" fill-opacity="0.5019607843137255"/>
<polygon points="40.0,78.0 0.0,319.0 69.0,319.0" id="58" fill="rgb(170,170,167)" fill-opacity="0.5019607843137255"/>
<polygon points="0.0,0.0 57.0,0.0 14.0,60.0" id="59" fill="rgb(75,83,57)" fill-opacity="0.5019607843137255"/>
<polygon points="247.0,142.0 280.0,123.0 274.0,92.0" id="60" fill="rgb(186,182,174)" fill-opacity="0.5019607843137255"/>
<polygon points="22.0,35.0 31.0,41.0 57.0,25.0" id="61" fill="rgb(255,145,160)" fill-opacity="0.5019607843137255"/>
<polygon points="32.0,33.0 56.0,38.0 46.0,65.0" id="62" fill="rgb(111,33,43)" fill-opacity="0.5019607843137255"/>
<polygon points="130.0,246.0 133.0,247.0 158.0,252.0" id="63" fill="rgb(37,33,29)" fill-opacity="0.5019607843137255"/>
<polygon points="77.0,77.0 174.0,123.0 142.0,153.0" id="64" fill="rgb(22,30,49)" fill-opacity="0.5019607843137255"/>
<polygon points="54.0,107.0 48.0,160.0 69.0,170.0" id="65" fill="rgb(2,4,14)" fill-opacity="0.5019607843137255"/>
<polygon points="176.0,0.0 280.0,44.0 280.0,7.0" id="66" fill="rgb(155,155,153)" fill-opacity="0.5019607843137255"/>
<polygon points="152.0,205.0 155.0,260.0 166.0,284.0" id="67" fill="rgb(31,28,31)" fill-opacity="0.5019607843137255"/>
<polygon points="165.0,69.0 188.0,101.0 193.0,77.0" id="68" fill="rgb(173,168,155)" fill-opacity="0.5019607843137255"/>
<polygon points="234.0,153.0 182.0,255.0 260.0,162.0" id="69" fill="rgb(184,184,183)" fill-opacity="0.5019607843137255"/>
<polygon points="94.0,69.0 196.0,63.0 193.0,43.0" id="70" fill="rgb(79,71,69)" fill-opacity="0.5019607843137255"/>
<polygon points="120.0,231.0 146.0,231.0 124.0,257.0" id="71" fill="rgb(170,164,160)" fill-opacity="0.5019607843137255"/>
<polygon points="18.0,243.0 105.0,264.0 103.0,234.0" id="72" fill="rgb(171,169,167)" fill-opacity="0.5019607843137255"/>
<polygon points="0.0,109.0 26.0,165.0 32.0,137.0" id="73" fill="rgb(144,141,141)" fill-opacity="0.5019607843137255"/>
<polygon points="185.0,62.0 270.0,60.0 250.0,66.0" id="74" fill="rgb(44,36,35)" fill-opacity="0.5019607843137255"/>
<polygon points="49.0,96.0 54.0,163.0 83.0,189.0" id="75" fill="rgb(10,12,21)" fill-opacity="0.5019607843137255"/>
<polygon points="280.0,237.0 159.0,319.0 263.0,309.0" id="76" fill="rgb(152,153,154)" fill-opacity="0.5019607843137255"/>
<polygon points="156.0,143.0 210.0,191.0 201.0,212.0" id="77" fill="rgb(1,3,14)" fill-opacity="0.5019607843137255"/>
<polygon points="55.0,127.0 199.0,103.0 122.0,236.0" id="78" fill="rgb(15,21,33)" fill-opacity="0.5019607843137255"/>
<polygon points="0.0,10.0 15.0,103.0 47.0,74.0" id="79" fill="rgb(97,91,80)" fill-opacity="0.5019607843137255"/>
<polygon points="92.0,193.0 104.0,205.0 108.0,218.0" id="80" fill="rgb(211,211,210)" fill-opacity="0.5019607843137255"/>
<polygon points="168.0,224.0 162.0,244.0 193.0,229.0" id="81" fill="rgb(202,196,183)" fill-opacity="0.5019607843137255"/>
<polygon points="219.0,173.0 260.0,217.0 243.0,149.0" id="82" fill="rgb(167,165,165)" fill-opacity="0.5019607843137255"/>
<polygon points="101.0,251.0 138.0,284.0 129.0,287.0" id="83" fill="rgb(71,66,68)" fill-opacity="0.5019607843137255"/>
<polygon points="247.0,280.0 227.0,283.0 280.0,288.0" id="84" fill="rgb(100,104,107)" fill-opacity="0.5019607843137255"/>
<polygon points="0.0,278.0 93.0,274.0 104.0,295.0" id="85" fill="rgb(186,188,189)" fill-opacity="0.5019607843137255"/>
<polygon points="261.0,88.0 257.0,146.0 280.0,107.0" id="86" fill="rgb(175,173,166)" fill-opacity="0.5019607843137255"/>
<polygon points="156.0,245.0 142.0,229.0 148.0,251.0" id="87" fill="rgb(214,210,196)" fill-opacity="0.5019607843137255"/>
<polygon points="227.0,163.0 249.0,69.0 260.0,86.0" id="88" fill="rgb(0,3,18)" fill-opacity="0.5019607843137255"/>
<polygon points="211.0,247.0 246.0,253.0 216.0,252.0" id="89" fill="rgb(102,99,101)" fill-opacity="0.5019607843137255"/>
<polygon points="156.0,257.0 197.0,276.0 240.0,215.0" id="90" fill="rgb(161,159,154)" fill-opacity="0.5019607843137255"/>
<polygon points="121.0,258.0 137.0,259.0 169.0,272.0" id="91" fill="rgb(98,97,96)" fill-opacity="0.5019607843137255"/>
<polygon points="7.0,273.0 44.0,246.0 68.0,232.0" id="92" fill="rgb(41,39,36)" fill-opacity="0.5019607843137255"/>
<polygon points="94.0,187.0 162.0,148.0 116.0,230.0" id="93" fill="rgb(4,4,6)" fill-opacity="0.5019607843137255"/>
<polygon points="80.0,0.0 91.0,63.0 121.0,41.0" id="94" fill="rgb(93,103,72)" fill-opacity="0.5019607843137255"/>
<polygon points="104.0,12.0 257.0,60.0 206.0,58.0" id="95" fill="rgb(139,136,118)" fill-opacity="0.5019607843137255"/>
<polygon points="153.0,109.0 184.0,147.0 143.0,125.0" id="96" fill="rgb(44,47,58)" fill-opacity="0.5019607843137255"/>
<polygon points="118.0,27.0 118.0,42.0 145.0,42.0" id="97" fill="rgb(149,151,107)" fill-opacity="0.5019607843137255"/>
<polygon points="51.0,163.0 195.0,196.0 155.0,240.0" id="98" fill="rgb(6,7,13)" fill-opacity="0.5019607843137255"/>
<polygon points="51.0,131.0 115.0,95.0 67.0,180.0" id="99" fill="rgb(14,24,38)" fill-opacity="0.5019607843137255"/>
<polygon points="252.0,115.0 280.0,145.0 280.0,103.0" id="100" fill="rgb(173,170,160)" fill-opacity="0.5019607843137255"/>
<polygon points="193.0,78.0 234.0,71.0 194.0,85.0" id="101" fill="rgb(0,0,9)" fill-opacity="0.5019607843137255"/>
<polygon points="52.0,25.0 88.0,60.0 96.0,116.0" id="102" fill="rgb(1,9,25)" fill-opacity="0.5019607843137255"/>
<polygon points="250.0,212.0 280.0,277.0 280.0,219.0" id="103" fill="rgb(188,191,188)" fill-opacity="0.5019607843137255"/>
<polygon points="50.0,11.0 108.0,23.0 52.0,35.0" id="104" fill="rgb(57,73,50)" fill-opacity="0.5019607843137255"/>
<polygon points="17.0,137.0 79.0,190.0 58.0,196.0" id="105" fill="rgb(169,168,166)" fill-opacity="0.5019607843137255"/>
<polygon points="74.0,68.0 114.0,167.0 117.0,95.0" id="106" fill="rgb(15,24,40)" fill-opacity="0.5019607843137255"/>
<polygon points="48.0,104.0 51.0,125.0 60.0,96.0" id="107" fill="rgb(2,2,10)" fill-opacity="0.5019607843137255"/>
<polygon points="8.0,97.0 29.0,100.0 11.0,105.0" id="108" fill="rgb(83,66,54)" fill-opacity="0.5019607843137255"/>
<polygon points="104.0,319.0 146.0,299.0 172.0,319.0" id="109" fill="rgb(174,178,183)" fill-opacity="0.5019607843137255"/>
<polygon points="112.0,78.0 187.0,97.0 198.0,64.0" id="110" fill="rgb(157,152,137)" fill-opacity="0.5019607843137255"/>
<polygon points="74.0,294.0 121.0,304.0 120.0,299.0" id="111" fill="rgb(84,90,96)" fill-opacity="0.5019607843137255"/>
<polygon points="0.0,284.0 35.0,294.0 41.0,292.0" id="112" fill="rgb(92,89,90)" fill-opacity="0.5019607843137255"/>
<polygon points="139.0,56.0 150.0,47.0 161.0,65.0" id="113" fill="rgb(47,37,41)" fill-opacity="0.5019607843137255"/>
<polygon points="150.0,25.0 280.0,58.0 280.0,43.0" id="114" fill="rgb(125,121,114)" fill-opacity="0.5019607843137255"/>
<polygon points="12.0,177.0 30.0,183.0 32.0,167.0" id="115" fill="rgb(126,125,125)" fill-opacity="0.5019607843137255"/>
<polygon points="0.0,0.0 0.0,62.0 12.0,33.0" id="116" fill="rgb(65,61,51)" fill-opacity="0.5019607843137255"/>
<polygon points="240.0,177.0 249.0,183.0 268.0,181.0" id="117" fill="rgb(114,106,107)" fill-opacity="0.5019607843137255"/>
<polygon points="141.0,223.0 183.0,224.0 204.0,210.0" id="118" fill="rgb(4,2,4)" fill-opacity="0.5019607843137255"/>
<polygon points="97.0,301.0 97.0,319.0 114.0,312.0" id="119" fill="rgb(116,121,127)" fill-opacity="0.5019607843137255"/>
<polygon points="92.0,195.0 44.0,202.0 101.0,212.0" id="120" fill="rgb(202,205,205)" fill-opacity="0.5019607843137255"/>
<polygon points="235.0,148.0 258.0,137.0 236.0,155.0" id="121" fill="rgb(198,193,199)" fill-opacity="0.5019607843137255"/>
<polygon points="149.0,247.0 116.0,279.0 156.0,278.0" id="122" fill="rgb(145,142,141)" fill-opacity="0.5019607843137255"/>
<polygon points="195.0,28.0 253.0,69.0 250.0,55.0" id="123" fill="rgb(152,147,134)" fill-opacity="0.5019607843137255"/>
<polygon points="186.0,261.0 240.0,319.0 264.0,288.0" id="124" fill="rgb(152,153,155)" fill-opacity="0.5019607843137255"/>
<polygon points="182.0,222.0 162.0,263.0 210.0,229.0" id="125" fill="rgb(194,187,175)" fill-opacity="0.5019607843137255"/>
<polygon points="0.0,2.0 17.0,11.0 7.0,21.0" id="126" fill="rgb(50,65,34)" fill-opacity="0.5019607843137255"/>
<polygon points="35.0,11.0 48.0,26.0 37.0,26.0" id="127" fill="rgb(38,46,29)" fill-opacity="0.5019607843137255"/>
<polygon points="125.0,107.0 156.0,109.0 185.0,115.0" id="128" fill="rgb(30,27,43)" fill-opacity="0.5019607843137255"/>
<polygon points="0.0,93.0 46.0,100.0 32.0,95.0" id="129" fill="rgb(201,193,183)" fill-opacity="0.5019607843137255"/>
<polygon points="85.0,258.0 95.0,285.0 97.0,267.0" id="130" fill="rgb(90,77,75)" fill-opacity="0.5019607843137255"/>
<polygon points="263.0,123.0 280.0,124.0 278.0,128.0" id="131" fill="rgb(94,92,91)" fill-opacity="0.5019607843137255"/>
<polygon points="25.0,172.0 69.0,189.0 40.0,190.0" id="132" fill="rgb(202,204,204)" fill-opacity="0.5019607843137255"/>
<polygon points="0.0,99.0 47.0,145.0 52.0,185.0" id="133" fill="rgb(174,170,170)" fill-opacity="0.5019607843137255"/>
<polygon points="150.0,108.0 193.0,82.0 176.0,107.0" id="134" fill="rgb(178,175,170)" fill-opacity="0.5019607843137255"/>
<polygon points="253.0,40.0 273.0,59.0 238.0,58.0" id="135" fill="rgb(163,158,135)" fill-opacity="0.5019607843137255"/>
<polygon points="124.0,33.0 141.0,63.0 142.0,51.0" id="136" fill="rgb(134,128,116)" fill-opacity="0.5019607843137255"/>
<polygon points="103.0,88.0 192.0,68.0 223.0,48.0" id="137" fill="rgb(127,119,104)" fill-opacity="0.5019607843137255"/>
<polygon points="0.0,170.0 0.0,250.0 25.0,234.0" id="138" fill="rgb(191,187,186)" fill-opacity="0.5019607843137255"/>
<polygon points="48.0,207.0 50.0,209.0 94.0,216.0" id="139" fill="rgb(74,73,70)" fill-opacity="0.5019607843137255"/>
<polygon points="53.0,256.0 93.0,264.0 83.0,261.0" id="140" fill="rgb(60,55,51)" fill-opacity="0.5019607843137255"/>
<polygon points="218.0,58.0 226.0,61.0 215.0,88.0" id="141" fill="rgb(1,5,21)" fill-opacity="0.5019607843137255"/>
<polygon points="94.0,70.0 133.0,102.0 111.0,92.0" id="142" fill="rgb(157,156,148)" fill-opacity="0.5019607843137255"/>
<polygon points="2.0,267.0 70.0,273.0 52.0,292.0" id="143" fill="rgb(192,192,192)" fill-opacity="0.5019607843137255"/>
<polygon points="249.0,70.0 274.0,84.0 280.0,82.0" id="144" fill="rgb(99,93,88)" fill-opacity="0.5019607843137255"/>
<polygon points="0.0,194.0 4.0,196.0 31.0,200.0" id="145" fill="rgb(78,75,66)" fill-opacity="0.5019607843137255"/>
<polygon points="230.0,240.0 200.0,230.0 243.0,242.0" id="146" fill="rgb(114,111,112)" fill-opacity="0.5019607843137255"/>
<polygon points="104.0,266.0 58.0,270.0 116.0,272.0" id="147" fill="rgb(66,57,57)" fill-opacity="0.5019607843137255"/>
<polygon points="161.0,79.0 186.0,81.0 192.0,86.0" id="148" fill="rgb(107,103,103)" fill-opacity="0.5019607843137255"/>
<polygon points="255.0,93.0 217.0,154.0 248.0,141.0" id="149" fill="rgb(11,17,29)" fill-opacity="0.5019607843137255"/>
<polygon points="6.0,32.0 43.0,99.0 44.0,67.0" id="150" fill="rgb(107,106,97)" fill-opacity="0.5019607843137255"/>
<polygon points="158.0,75.0 162.0,108.0 189.0,86.0" id="151" fill="rgb(169,165,158)" fill-opacity="0.5019607843137255"/>
<polygon points="95.0,84.0 107.0,90.0 143.0,103.0" id="152" fill="rgb(59,59,63)" fill-opacity="0.5019607843137255"/>
<polygon points="99.0,202.0 96.0,269.0 113.0,241.0" id="153" fill="rgb(181,176,176)" fill-opacity="0.5019607843137255"/>
<polygon points="226.0,286.0 167.0,274.0 160.0,290.0" id="154" fill="rgb(117,118,117)" fill-opacity="0.5019607843137255"/>
<polygon points="208.0,177.0 244.0,216.0 259.0,194.0" id="155" fill="rgb(168,170,174)" fill-opacity="0.5019607843137255"/>
<polygon points="209.0,32.0 255.0,66.0 255.0,52.0" id="156" fill="rgb(123,118,106)" fill-opacity="0.5019607843137255"/>
<polygon points="42.0,0.0 108.0,52.0 128.0,26.0" id="157" fill="rgb(82,99,60)" fill-opacity="0.5019607843137255"/>
<polygon points="6.0,227.0 62.0,192.0 46.0,195.0" id="158" fill="rgb(144,138,129)" fill-opacity="0.5019607843137255"/>
<polygon points="47.0,62.0 57.0,153.0 47.0,98.0" id="159" fill="rgb(14,12,17)" fill-opacity="0.5019607843137255"/>
<polygon points="14.0,281.0 116.0,300.0 138.0,286.0" id="160" fill="rgb(170,174,177)" fill-opacity="0.5019607843137255"/>
<polygon points="2.0,301.0 43.0,308.0 41.0,303.0" id="161" fill="rgb(116,110,104)" fill-opacity="0.5019607843137255"/>
<polygon points="115.0,76.0 121.0,79.0 145.0,77.0" id="162" fill="rgb(190,193,155)" fill-opacity="0.5019607843137255"/>
<polygon points="254.0,66.0 273.0,67.0 266.0,97.0" id="163" fill="rgb(180,178,170)" fill-opacity="0.5019607843137255"/>
<polygon points="136.0,298.0 163.0,299.0 188.0,308.0" id="164" fill="rgb(94,94,97)" fill-opacity="0.5019607843137255"/>
<polygon points="66.0,0.0 112.0,0.0 113.0,15.0" id="165" fill="rgb(116,142,74)" fill-opacity="0.5019607843137255"/>
<polygon points="119.0,279.0 138.0,280.0 147.0,290.0" id="166" fill="rgb(58,54,55)" fill-opacity="0.5019607843137255"/>
<polygon points="254.0,151.0 280.0,177.0 261.0,175.0" id="167" fill="rgb(190,194,193)" fill-opacity="0.5019607843137255"/>
<polygon points="205.0,287.0 280.0,300.0 266.0,299.0" id="168" fill="rgb(100,101,102)" fill-opacity="0.5019607843137255"/>
<polygon points="219.0,185.0 272.0,195.0 245.0,189.0" id="169" fill="rgb(100,97,96)" fill-opacity="0.5019607843137255"/>
<polygon points="26.0,221.0 78.0,229.0 72.0,229.0" id="170" fill="rgb(57,54,45)" fill-opacity="0.5019607843137255"/>
<polygon points="218.0,168.0 256.0,182.0 227.0,187.0" id="171" fill="rgb(170,165,164)" fill-opacity="0.5019607843137255"/>
<polygon points="12.0,103.0 45.0,115.0 8.0,126.0" id="172" fill="rgb(171,164,154)" fill-opacity="0.5019607843137255"/>
<polygon points="0.0,291.0 67.0,296.0 22.0,302.0" id="173" fill="rgb(192,189,176)" fill-opacity="0.5019607843137255"/>
<polygon points="153.0,261.0 170.0,280.0 154.0,286.0" id="174" fill="rgb(71,68,68)" fill-opacity="0.5019607843137255"/>
<polygon points="253.0,175.0 280.0,179.0 280.0,180.0" id="175" fill="rgb(72,73,73)" fill-opacity="0.5019607843137255"/>
<polygon points="201.0,301.0 280.0,295.0 232.0,319.0" id="176" fill="rgb(167,166,169)" fill-opacity="0.5019607843137255"/>
<polygon points="50.0,26.0 26.0,33.0 44.0,34.0" id="177" fill="rgb(255,184,191)" fill-opacity="0.5019607843137255"/>
<polygon points="246.0,99.0 128.0,181.0 203.0,172.0" id="178" fill="rgb(2,5,12)" fill-opacity="0.5019607843137255"/>
<polygon points="120.0,89.0 233.0,73.0 211.0,78.0" id="179" fill="rgb(14,13,18)" fill-opacity="0.5019607843137255"/>
<polygon points="217.0,40.0 233.0,46.0 246.0,39.0" id="180" fill="rgb(76,73,74)" fill-opacity="0.5019607843137255"/>
<polygon points="0.0,89.0 38.0,85.0 16.0,92.0" id="181" fill="rgb(180,173,142)" fill-opacity="0.5019607843137255"/>
<polygon points="155.0,243.0 175.0,254.0 182.0,269.0" id="182" fill="rgb(132,131,128)" fill-opacity="0.5019607843137255"/>
<polygon points="0.0,235.0 37.0,245.0 38.0,215.0" id="183" fill="rgb(197,197,196)" fill-opacity="0.5019607843137255"/>
<polygon points="38.0,225.0 41.0,247.0 67.0,230.0" id="184" fill="rgb(194,194,196)" fill-opacity="0.5019607843137255"/>
<polygon points="100.0,199.0 115.0,234.0 107.0,243.0" id="185" fill="rgb(189,188,189)" fill-opacity="0.5019607843137255"/>
<polygon points="216.0,57.0 254.0,73.0 257.0,105.0" id="186" fill="rgb(10,16,30)" fill-opacity="0.5019607843137255"/>
<polygon points="0.0,49.0 47.0,57.0 44.0,68.0" id="187" fill="rgb(137,103,100)" fill-opacity="0.5019607843137255"/>
<polygon points="172.0,22.0 195.0,29.0 178.0,45.0" id="188" fill="rgb(110,105,104)" fill-opacity="0.5019607843137255"/>
<polygon points="115.0,252.0 153.0,257.0 125.0,232.0" id="189" fill="rgb(168,168,165)" fill-opacity="0.5019607843137255"/>
<polygon points="157.0,277.0 114.0,262.0 126.0,276.0" id="190" fill="rgb(125,119,119)" fill-opacity="0.5019607843137255"/>
<polygon points="252.0,258.0 280.0,254.0 269.0,266.0" id="191" fill="rgb(209,203,187)" fill-opacity="0.5019607843137255"/>
<polygon points="0.0,48.0 3.0,78.0 23.0,72.0" id="192" fill="rgb(103,88,81)" fill-opacity="0.5019607843137255"/>
<polygon points="248.0,132.0 280.0,119.0 271.0,159.0" id="193" fill="rgb(158,155,152)" fill-opacity="0.5019607843137255"/>
<polygon points="87.0,39.0 89.0,50.0 111.0,27.0" id="194" fill="rgb(129,132,109)" fill-opacity="0.5019607843137255"/>
<polygon points="133.0,0.0 158.0,4.0 179.0,0.0" id="195" fill="rgb(90,92,78)" fill-opacity="0.5019607843137255"/>
<polygon points="51.0,19.0 78.0,46.0 52.0,33.0" id="196" fill="rgb(14,14,29)" fill-opacity="0.5019607843137255"/>
<polygon points="222.0,213.0 178.0,261.0 250.0,213.0" id="197" fill="rgb(155,152,147)" fill-opacity="0.5019607843137255"/>
<polygon points="105.0,84.0 108.0,85.0 137.0,90.0" id="198" fill="rgb(202,198,184)" fill-opacity="0.5019607843137255"/>
<polygon points="18.0,282.0 47.0,291.0 30.0,290.0" id="199" fill="rgb(207,206,209)" fill-opacity="0.5019607843137255"/>
<polygon points="48.0,245.0 45.0,249.0 15.0,243.0" id="200" fill="rgb(89,88,90)" fill-opacity="0.5019607843137255"/>
</svg>