<?xml version="1.0" encoding="UTF-8" standalone="no"?>
<!DOCTYPE svg PUBLIC "-//W3C//DTD SVG 1.1//EN" "http://www.w3.org/Graphics/SVG/1.1/DTD/svg11.dtd">
<!-- Created with Vectornator (http://vectornator.io/) -->
<svg height="100%" stroke-miterlimit="10" style="fill-rule:nonzero;clip-rule:evenodd;stroke-linecap:round;stroke-linejoin:round;" version="1.1" viewBox="0 0 791.727 186.884" width="100%" xml:space="preserve" xmlns="http://www.w3.org/2000/svg" xmlns:vectornator="http://vectornator.io" xmlns:xlink="http://www.w3.org/1999/xlink">
<defs/>
<clipPath id="ArtboardFrame">
<rect height="186.884" width="791.727" x="0" y="0"/>
</clipPath>
<g clip-path="url(#ArtboardFrame)" id="Untitled" vectornator:layerName="Untitled">
<path d="M-7.58781 12.3611L147.063 12.3611L147.063 12.3611L147.063 167.012L147.063 167.012L-7.58781 167.012L-7.58781 167.012L-7.58781 12.3611L-7.58781 12.3611Z" fill="#cecece" fill-rule="nonzero" opacity="1" stroke="none" vectornator:layerName="rect"/>
<path d="M117.099 141.881L84.7192 141.881L84.7192 87.7532L117.099 87.7532L117.099 141.881Z" fill="#000000" fill-opacity="0.501961" fill-rule="nonzero" opacity="1" stroke="none" vectornator:layerName="polygon"/>
<path d="M19.9593 60.2061L35.9076 60.2061L35.9076 130.282L19.9593 130.282L19.9593 60.2061Z" fill="#000000" fill-opacity="0.501961" fill-rule="nonzero" opacity="1" stroke="none" vectornator:layerName="polygon"/>
<path d="M35.9076 133.665L90.5186 133.665L90.5186 147.68L35.9076 147.68L35.9076 133.665Z" fill="#000000" fill-opacity="0.501961" fill-rule="nonzero" opacity="1" stroke="none" vectornator:layerName="polygon"/>
<path d="M52.7585 30.5754L110.431 42.834L107.014 58.9066L49.3422 46.648L52.7585 30.5754Z" fill="#000000" fill-opacity="0.501961" fill-rule="nonzero" opacity="1" stroke="none" vectornator:layerName="polygon"/>
<path d="M51.6149 149.416L25.6997 128.43L34.2157 117.914L60.1308 138.9L51.6149 149.416Z" fill="#000000" fill-opacity="0.501961" fill-rule="nonzero" opacity="1" stroke="none" vectornator:layerName="polygon"/>
<path d="M114.063 54.7562L114.333 70.2189L98.8706 70.4888L98.6007 55.0261L114.063 54.7562Z" fill="#000000" fill-opacity="0.501961" fill-rule="nonzero" opacity="1" stroke="none" vectornator:layerName="polygon"/>
<path d="M116.028 100.727L69.1565 99.9086L69.359 88.3116L116.23 89.1297L116.028 100.727Z" fill="#000000" fill-opacity="0.501961" fill-rule="nonzero" opacity="1" stroke="none" vectornator:layerName="polygon"/>
<path d="M48.1672 35.9851L57.903 46.0668L36.6967 66.5455L26.9609 56.4638L48.1672 35.9851Z" fill="#000000" fill-opacity="0.501961" fill-rule="nonzero" opacity="1" stroke="none" vectornator:layerName="polygon"/>
<path d="M93.8267 131.567L76.0055 125.431L85.7607 97.1L103.582 103.236L93.8267 131.567Z" fill="#ffffff" fill-opacity="0.501961" fill-rule="nonzero" opacity="1" stroke="none" vectornator:layerName="polygon"/>
<path d="M25.3129 126.084L17.2484 101.264L31.0373 96.7839L39.1018 121.604L25.3129 126.084Z" fill="#000000" fill-opacity="0.501961" fill-rule="nonzero" opacity="1" stroke="none" vectornator:layerName="polygon"/>
<path d="M119.321 104.749L113.143 136.535L97.9621 133.584L104.14 101.799L119.321 104.749Z" fill="#000000" fill-opacity="0.501961" fill-rule="nonzero" opacity="1" stroke="none" vectornator:layerName="polygon"/>
<path d="M99.3199 70.7067L96.1632 58.0457L110.231 54.5382L113.388 67.1992L99.3199 70.7067Z" fill="#000000" fill-opacity="0.501961" fill-rule="nonzero" opacity="1" stroke="none" vectornator:layerName="polygon"/>
<path d="M132.407 15.6155L154.86 47.682L121.606 70.9668L99.1528 38.9003L132.407 15.6155Z" fill="#ffffff" fill-opacity="0.501961" fill-rule="nonzero" opacity="1" stroke="none" vectornator:layerName="polygon"/>
<path d="M37.444 64.4094L30.2094 98.4454L16.9732 95.6319L24.2077 61.5959L37.444 64.4094Z" fill="#000000" fill-opacity="0.501961" fill-rule="nonzero" opacity="1" stroke="none" vectornator:layerName="polygon"/>
<path d="M91.6461 38.9122L90.0991 49.9195L63.7772 46.2202L65.3242 35.2129L91.6461 38.9122Z" fill="#000000" fill-opacity="0.501961" fill-rule="nonzero" opacity="1" stroke="none" vectornator:layerName="polygon"/>
<path d="M52.0162 36.4261L63.5827 41.3358L59.4283 51.1228L47.8618 46.2131L52.0162 36.4261Z" fill="#000000" fill-opacity="0.501961" fill-rule="nonzero" opacity="1" stroke="none" vectornator:layerName="polygon"/>
<path d="M37.8054 39.473L33.9451 17.5797L61.0737 12.7962L64.9341 34.6895L37.8054 39.473Z" fill="#ffffff" fill-opacity="0.501961" fill-rule="nonzero" opacity="1" stroke="none" vectornator:layerName="polygon"/>
<path d="M54.2016 138.79L92.0094 133.476L93.4891 144.005L55.6813 149.319L54.2016 138.79Z" fill="#000000" fill-opacity="0.501961" fill-rule="nonzero" opacity="1" stroke="none" vectornator:layerName="polygon"/>
<path d="M85.195 134.984L67.0544 119.762L85.6933 97.5495L103.834 112.771L85.195 134.984Z" fill="#ffffff" fill-opacity="0.501961" fill-rule="nonzero" opacity="1" stroke="none" vectornator:layerName="polygon"/>
<path d="M92.1659 146.101L101.796 134.624L107.719 139.594L98.0893 151.071L92.1659 146.101Z" fill="#ffffff" fill-opacity="0.501961" fill-rule="nonzero" opacity="1" stroke="none" vectornator:layerName="polygon"/>
<path d="M118.456 139.593L116.33 147.529L105.593 144.652L107.72 136.716L118.456 139.593Z" fill="#000000" fill-opacity="0.501961" fill-rule="nonzero" opacity="1" stroke="none" vectornator:layerName="polygon"/>
<path d="M30.9224 139.576L1.59549 150.834L-14.6847 108.423L14.6423 97.165L30.9224 139.576Z" fill="#ffffff" fill-opacity="0.501961" fill-rule="nonzero" opacity="1" stroke="none" vectornator:layerName="polygon"/>
<path d="M46.1396 38.7045L54.7091 47.8943L32.4417 68.6589L23.8722 59.4692L46.1396 38.7045Z" fill="#000000" fill-opacity="0.501961" fill-rule="nonzero" opacity="1" stroke="none" vectornator:layerName="polygon"/>
<path d="M88.5395 87.7599L50.4124 85.7617L52.3853 48.1173L90.5123 50.1155L88.5395 87.7599Z" fill="#ffffff" fill-opacity="0.501961" fill-rule="nonzero" opacity="1" stroke="none" vectornator:layerName="polygon"/>
<path d="M52.0217 180.29L-10.5279 149.783L2.39543 123.286L64.945 153.794L52.0217 180.29Z" fill="#ffffff" fill-opacity="0.501961" fill-rule="nonzero" opacity="1" stroke="none" vectornator:layerName="polygon"/>
<path d="M111.014 53.4972L101.636 63.9125L84.0381 48.0669L93.4161 37.6516L111.014 53.4972Z" fill="#000000" fill-opacity="0.501961" fill-rule="nonzero" opacity="1" stroke="none" vectornator:layerName="polygon"/>
<path d="M69.1014 112.098L34.7936 112.697L34.1273 74.5236L68.4351 73.9247L69.1014 112.098Z" fill="#ffffff" fill-opacity="0.501961" fill-rule="nonzero" opacity="1" stroke="none" vectornator:layerName="polygon"/>
<path d="M104.051 88.2365L116.616 88.2365L116.616 132.215L104.051 132.215L104.051 88.2365Z" fill="#000000" fill-opacity="0.501961" fill-rule="nonzero" opacity="1" stroke="none" vectornator:layerName="polygon"/>
<path d="M37.8819 30.0197L21.7692 69.8999L-10.0453 57.0459L6.06733 17.1657L37.8819 30.0197Z" fill="#ffffff" fill-opacity="0.501961" fill-rule="nonzero" opacity="1" stroke="none" vectornator:layerName="polygon"/>
<path d="M-7.58781 12.3611L18.0262 12.3611L18.0262 133.182L-7.58781 133.182L-7.58781 12.3611Z" fill="#ffffff" fill-opacity="0.501961" fill-rule="nonzero" opacity="1" stroke="none" vectornator:layerName="polygon"/>
<path d="M74.5426 93.0005L86.6801 85.9929L92.4795 96.0378L80.342 103.045L74.5426 93.0005Z" fill="#000000" fill-opacity="0.501961" fill-rule="nonzero" opacity="1" stroke="none" vectornator:layerName="polygon"/>
<path d="M102.701 112.307L92.0705 112.493L91.8681 100.895L102.499 100.71L102.701 112.307Z" fill="#ffffff" fill-opacity="0.501961" fill-rule="nonzero" opacity="1" stroke="none" vectornator:layerName="polygon"/>
<path d="M77.7329 137.06L47.5824 132.822L52.5596 97.4073L82.7101 101.645L77.7329 137.06Z" fill="#ffffff" fill-opacity="0.501961" fill-rule="nonzero" opacity="1" stroke="none" vectornator:layerName="polygon"/>
<path d="M94.7745 172.28L81.8419 147.957L103.178 136.613L116.11 160.935L94.7745 172.28Z" fill="#ffffff" fill-opacity="0.501961" fill-rule="nonzero" opacity="1" stroke="none" vectornator:layerName="polygon"/>
<path d="M109.082 130.607L94.1473 138.548L89.8364 130.44L104.771 122.499L109.082 130.607Z" fill="#000000" fill-opacity="0.501961" fill-rule="nonzero" opacity="1" stroke="none" vectornator:layerName="polygon"/>
<path d="M104.155 37.0444L-8.17547 29.1894L-6.72585 8.4589L105.605 16.3138L104.155 37.0444Z" fill="#ffffff" fill-opacity="0.501961" fill-rule="nonzero" opacity="1" stroke="none" vectornator:layerName="polygon"/>
<path d="M94.6698 56.9578L105.448 76.4015L83.4678 88.5851L72.69 69.1414L94.6698 56.9578Z" fill="#ffffff" fill-opacity="0.501961" fill-rule="nonzero" opacity="1" stroke="none" vectornator:layerName="polygon"/>
<path d="M47.9794 131.861L36.5544 140.787L26.7356 128.22L38.1606 119.294L47.9794 131.861Z" fill="#000000" fill-opacity="0.501961" fill-rule="nonzero" opacity="1" stroke="none" vectornator:layerName="polygon"/>
<path d="M47.3742 38.5433L79.5128 34.5972L80.9852 46.5892L48.8466 50.5353L47.3742 38.5433Z" fill="#000000" fill-opacity="0.501961" fill-rule="nonzero" opacity="1" stroke="none" vectornator:layerName="polygon"/>
<path d="M17.3471 97.5399L29.5095 91.6079L34.1703 101.164L22.0079 107.096L17.3471 97.5399Z" fill="#000000" fill-opacity="0.501961" fill-rule="nonzero" opacity="1" stroke="none" vectornator:layerName="polygon"/>
<path d="M117.099 120.133L117.099 91.1362L147.063 91.1362L147.063 120.133L117.099 120.133Z" fill="#ffffff" fill-opacity="0.501961" fill-rule="nonzero" opacity="1" stroke="none" vectornator:layerName="polygon"/>
<path d="M125.58 99.9236L106.63 77.3404L138.099 50.9353L157.048 73.5185L125.58 99.9236Z" fill="#ffffff" fill-opacity="0.501961" fill-rule="nonzero" opacity="1" stroke="none" vectornator:layerName="polygon"/>
<path d="M147.024 166.271L118.032 166.777L117.138 115.557L146.13 115.051L147.024 166.271Z" fill="#ffffff" fill-opacity="0.501961" fill-rule="nonzero" opacity="1" stroke="none" vectornator:layerName="polygon"/>
<path d="M23.7627 64.7565L36.1734 66.7222L30.6544 101.567L18.2438 99.6018L23.7627 64.7565Z" fill="#000000" fill-opacity="0.501961" fill-rule="nonzero" opacity="1" stroke="none" vectornator:layerName="polygon"/>
<path d="M92.3108 38.5926L114.335 3.34579L133.188 15.1264L111.164 50.3733L92.3108 38.5926Z" fill="#ffffff" fill-opacity="0.501961" fill-rule="nonzero" opacity="1" stroke="none" vectornator:layerName="polygon"/>
<path d="M70.2177 99.5217L69.7624 90.8345L85.6889 89.9999L86.1441 98.687L70.2177 99.5217Z" fill="#000000" fill-opacity="0.501961" fill-rule="nonzero" opacity="1" stroke="none" vectornator:layerName="polygon"/>
<path d="M23.5797 122.722L19.9955 111.691L34.7036 106.912L38.2879 117.943L23.5797 122.722Z" fill="#000000" fill-opacity="0.501961" fill-rule="nonzero" opacity="1" stroke="none" vectornator:layerName="polygon"/>
<path d="M1.59456 148.647L146.579 148.647L146.579 166.528L1.59456 166.528L1.59456 148.647Z" fill="#ffffff" fill-opacity="0.501961" fill-rule="nonzero" opacity="1" stroke="none" vectornator:layerName="polygon"/>
<path d="M94.5363 127.71L72.1447 116.301L80.7015 99.5074L103.093 110.917L94.5363 127.71Z" fill="#ffffff" fill-opacity="0.501961" fill-rule="nonzero" opacity="1" stroke="none" vectornator:layerName="polygon"/>
<path d="M50.037 146.394L37.1188 139.812L43.0427 128.185L55.961 134.768L50.037 146.394Z" fill="#000000" fill-opacity="0.501961" fill-rule="nonzero" opacity="1" stroke="none" vectornator:layerName="polygon"/>
</g>
<g id="Layer-1" vectornator:layerName="Layer 1">
<g fill="#2a0000" opacity="1" stroke="none" vectornator:layerName="Text 1">
<path d="M168.848 65.7998C174.415 65.7998 179.81 67.106 185.035 69.7183C190.259 72.3306 194.239 75.7119 196.973 79.8623C199.61 83.8174 201.368 88.4316 202.247 93.7051C203.028 97.3184 203.419 103.08 203.419 110.99L145.924 110.99C146.168 118.949 148.048 125.333 151.563 130.143C155.079 134.953 160.523 137.357 167.896 137.357C174.781 137.357 180.274 135.087 184.376 130.546C186.719 127.909 188.38 124.857 189.356 121.391L202.32 121.391C201.978 124.271 200.843 127.482 198.914 131.022C196.986 134.562 194.825 137.455 192.432 139.701C188.428 143.607 183.472 146.244 177.564 147.611C174.39 148.393 170.801 148.783 166.798 148.783C157.032 148.783 148.756 145.231 141.968 138.126C135.181 131.022 131.788 121.073 131.788 108.28C131.788 95.6826 135.206 85.4531 142.042 77.5918C148.878 69.7305 157.813 65.7998 168.848 65.7998ZM189.869 100.517C189.332 94.8037 188.087 90.2383 186.134 86.8203C182.52 80.4727 176.49 77.2988 168.043 77.2988C161.988 77.2988 156.91 79.4839 152.808 83.854C148.707 88.2241 146.534 93.7783 146.29 100.517L189.869 100.517Z"/>
<path d="M250.733 137.504C259.473 137.504 265.467 134.196 268.714 127.58C271.961 120.963 273.585 113.603 273.585 105.497C273.585 98.1729 272.413 92.2158 270.069 87.626C266.358 80.3994 259.962 76.7861 250.88 76.7861C242.823 76.7861 236.964 79.8623 233.301 86.0146C229.639 92.167 227.808 99.5889 227.808 108.28C227.808 116.63 229.639 123.588 233.301 129.154C236.964 134.721 242.774 137.504 250.733 137.504ZM251.246 65.2871C261.353 65.2871 269.898 68.6562 276.881 75.3945C283.863 82.1328 287.354 92.0449 287.354 105.131C287.354 117.777 284.278 128.227 278.126 136.479C271.973 144.73 262.427 148.856 249.488 148.856C238.697 148.856 230.128 145.207 223.78 137.907C217.432 130.607 214.259 120.805 214.259 108.5C214.259 95.3164 217.603 84.8184 224.293 77.0059C230.982 69.1934 239.967 65.2871 251.246 65.2871Z"/>
<path d="M303.028 67.5576L316.065 67.5576L316.065 78.6904C319.19 74.833 322.022 72.0254 324.561 70.2676C328.907 67.2891 333.839 65.7998 339.356 65.7998C345.606 65.7998 350.635 67.3379 354.444 70.4141C356.593 72.1719 358.546 74.7598 360.303 78.1777C363.233 73.9785 366.676 70.8657 370.631 68.8394C374.586 66.813 379.029 65.7998 383.961 65.7998C394.508 65.7998 401.685 69.6084 405.494 77.2256C407.545 81.3271 408.57 86.8447 408.57 93.7783L408.57 146L394.874 146L394.874 91.5078C394.874 86.2832 393.568 82.6943 390.955 80.7412C388.343 78.7881 385.157 77.8115 381.397 77.8115C376.221 77.8115 371.766 79.5449 368.03 83.0117C364.295 86.4785 362.427 92.2646 362.427 100.37L362.427 146L349.024 146L349.024 94.8037C349.024 89.4814 348.389 85.5996 347.12 83.1582C345.118 79.4961 341.383 77.665 335.914 77.665C330.933 77.665 326.405 79.5937 322.327 83.4512C318.25 87.3086 316.212 94.291 316.212 104.398L316.212 146L303.028 146L303.028 67.5576Z"/>
<path d="M460.645 65.7998C466.212 65.7998 471.607 67.106 476.832 69.7183C482.056 72.3306 486.036 75.7119 488.77 79.8623C491.407 83.8174 493.165 88.4316 494.044 93.7051C494.825 97.3184 495.216 103.08 495.216 110.99L437.72 110.99C437.965 118.949 439.844 125.333 443.36 130.143C446.876 134.953 452.32 137.357 459.693 137.357C466.578 137.357 472.071 135.087 476.173 130.546C478.516 127.909 480.176 124.857 481.153 121.391L494.117 121.391C493.775 124.271 492.64 127.482 490.711 131.022C488.782 134.562 486.622 137.455 484.229 139.701C480.225 143.607 475.269 146.244 469.361 147.611C466.187 148.393 462.598 148.783 458.594 148.783C448.829 148.783 440.552 145.231 433.765 138.126C426.978 131.022 423.585 121.073 423.585 108.28C423.585 95.6826 427.003 85.4531 433.839 77.5918C440.675 69.7305 449.61 65.7998 460.645 65.7998ZM481.666 100.517C481.129 94.8037 479.884 90.2383 477.93 86.8203C474.317 80.4727 468.287 77.2988 459.84 77.2988C453.785 77.2988 448.707 79.4839 444.605 83.854C440.504 88.2241 438.331 93.7783 438.087 100.517L481.666 100.517Z"/>
<path d="M514.039 45.6582L527.369 45.6582L527.369 67.5576L539.893 67.5576L539.893 78.3242L527.369 78.3242L527.369 129.521C527.369 132.255 528.297 134.086 530.152 135.014C531.177 135.551 532.886 135.819 535.279 135.819C535.914 135.819 536.597 135.807 537.33 135.783C538.062 135.758 538.917 135.697 539.893 135.6L539.893 146C538.38 146.439 536.805 146.757 535.169 146.952C533.533 147.147 531.763 147.245 529.859 147.245C523.707 147.245 519.532 145.67 517.335 142.521C515.137 139.372 514.039 135.282 514.039 130.253L514.039 78.3242L503.419 78.3242L503.419 67.5576L514.039 67.5576L514.039 45.6582Z"/>
<path d="M553.443 67.5576L565.968 67.5576L565.968 81.1074C566.993 78.4707 569.508 75.2603 573.511 71.4761C577.515 67.6919 582.13 65.7998 587.354 65.7998C587.598 65.7998 588.013 65.8242 588.599 65.873C589.185 65.9219 590.186 66.0195 591.602 66.166L591.602 80.082C590.821 79.9355 590.101 79.8379 589.442 79.7891C588.782 79.7402 588.062 79.7158 587.281 79.7158C580.64 79.7158 575.538 81.8521 571.973 86.1245C568.409 90.397 566.627 95.3164 566.627 100.883L566.627 146L553.443 146L553.443 67.5576Z"/>
<path d="M603.028 67.9238L616.431 67.9238L616.431 146L603.028 146L603.028 67.9238ZM603.028 38.4072L616.431 38.4072L616.431 53.3486L603.028 53.3486L603.028 38.4072Z"/>
<path d="M630.494 135.6L677.003 79.3496L633.936 79.3496L633.936 67.5576L694.727 67.5576L694.727 78.3242L648.511 134.208L696.119 134.208L696.119 146L630.494 146L630.494 135.6Z"/>
<path d="M744.019 65.7998C749.586 65.7998 754.981 67.106 760.206 69.7183C765.43 72.3306 769.41 75.7119 772.144 79.8623C774.781 83.8174 776.539 88.4316 777.418 93.7051C778.199 97.3184 778.59 103.08 778.59 110.99L721.094 110.99C721.339 118.949 723.218 125.333 726.734 130.143C730.25 134.953 735.694 137.357 743.067 137.357C749.952 137.357 755.445 135.087 759.547 130.546C761.89 127.909 763.551 124.857 764.527 121.391L777.491 121.391C777.149 124.271 776.014 127.482 774.085 131.022C772.156 134.562 769.996 137.455 767.603 139.701C763.599 143.607 758.643 146.244 752.735 147.611C749.561 148.393 745.972 148.783 741.968 148.783C732.203 148.783 723.926 145.231 717.139 138.126C710.352 131.022 706.959 121.073 706.959 108.28C706.959 95.6826 710.377 85.4531 717.213 77.5918C724.049 69.7305 732.984 65.7998 744.019 65.7998ZM765.04 100.517C764.503 94.8037 763.258 90.2383 761.304 86.8203C757.691 80.4727 751.661 77.2988 743.214 77.2988C737.159 77.2988 732.081 79.4839 727.979 83.854C723.878 88.2241 721.705 93.7783 721.461 100.517L765.04 100.517Z"/>
</g>
</g>
</svg>
